<?xml version="1.0" encoding="utf-8"?>
<!-- Generator: Adobe Illustrator 24.0.1, SVG Export Plug-In . SVG Version: 6.00 Build 0)  -->
<svg version="1.1" id="Layer_1" xmlns="http://www.w3.org/2000/svg" xmlns:xlink="http://www.w3.org/1999/xlink" x="0px" y="0px"
	 viewBox="0 0 2444.9 454.5" style="enable-background:new 0 0 2444.9 454.5;" xml:space="preserve">
<style type="text/css">
	.st0{fill:#FFFFFF;fill-opacity:0;}
	.st1{fill-rule:evenodd;clip-rule:evenodd;}
</style>
<path class="st0" d="M-27.5,1477.3h2500v-2500h-2500V1477.3z"/>
<path class="st1" d="M342.4,10.8v367.6h-90.1V150.5l-56.8,92.3h42v83.6h-96.2l-29.4,49H9.2L255.1,10.8L342.4,10.8L342.4,10.8z
	 M356.7,84.2l-0.4,359.6h90.1V162.2h34.2c0,0,42-0.9,42,42.9c0,43.7-37.7,41.6-37.7,41.6h-24.3v79.7h56.7c0,0,100.9,5.2,96.6-123.9
	c-4.2-123-138.2-118.3-138.2-118.3L356.7,84.2L356.7,84.2L356.7,84.2z M844.4,324h-36.7L793.1,286h-66.8L712.6,324h-35.8l65-167
	h35.7L844.4,324z M782.3,257.9l-23-62l-22.6,62H782.3z M839.1,289.5l32.1-4.9c1.4,6.2,4.1,10.9,8.3,14.2c4.2,3.2,10,4.9,17.5,4.9
	c8.3,0,14.5-1.5,18.7-4.6c2.7-2,4.3-5.1,4.2-8.5c0.1-2.3-0.8-4.4-2.3-6.1c-1.6-1.5-5.2-2.9-10.7-4.2c-25.8-5.7-42.2-10.9-49.1-15.6
	c-9.6-6.5-14.3-15.6-14.3-27.3c0-10.4,4.1-19.3,12.4-26.4c8.3-7.2,21.1-10.7,38.5-10.7c16.6,0,28.9,2.7,37,8.1
	c8,5.4,13.6,13.4,16.6,24l-30.2,5.6c-1.3-4.7-3.7-8.3-7.3-10.8c-3.6-2.5-8.8-3.8-15.4-3.8c-8.4,0-14.5,1.2-18.1,3.5
	c-2.3,1.4-3.6,3.9-3.6,6.5c0,2.3,1.1,4.2,3.2,5.8c2.9,2.1,12.8,5.1,29.9,9c17,3.9,28.9,8.6,35.7,14.2c6.7,5.7,10,13.7,10,23.8
	c0,11.1-4.6,20.6-13.9,28.6c-9.3,8-22.9,11.9-41.1,11.9c-16.5,0-29.5-3.3-39.1-10C848.3,310,842.1,300.9,839.1,289.5L839.1,289.5z
	 M957.2,289.5l32.1-4.9c1.4,6.2,4.1,10.9,8.3,14.2c4.2,3.2,10,4.9,17.5,4.9c8.3,0,14.5-1.5,18.7-4.6c2.7-2,4.3-5.1,4.2-8.5
	c0.1-2.3-0.8-4.4-2.3-6.1c-1.6-1.5-5.2-2.9-10.7-4.2c-25.8-5.7-42.2-10.9-49.1-15.6c-9.6-6.5-14.3-15.6-14.3-27.3
	c0-10.4,4.1-19.3,12.4-26.4c8.3-7.2,21.1-10.7,38.5-10.7c16.5,0,28.9,2.7,36.9,8.1c8.1,5.4,13.6,13.4,16.6,24l-30.2,5.6
	c-1.3-4.7-3.7-8.3-7.3-10.8c-3.6-2.5-8.8-3.8-15.4-3.8c-8.4,0-14.4,1.2-18.1,3.5c-2.3,1.4-3.6,3.9-3.6,6.5c0,2.3,1.1,4.2,3.2,5.8
	c2.9,2.1,12.8,5.1,29.9,9c17,3.9,28.9,8.6,35.7,14.2c6.7,5.7,10,13.7,10,23.8c0,11.1-4.6,20.6-13.9,28.6c-9.2,8-22.9,11.9-41.1,11.9
	c-16.5,0-29.5-3.3-39.2-10C966.4,310,960.2,300.9,957.2,289.5L957.2,289.5z M1079.2,261.8c0-10.6,2.6-20.9,7.9-30.9
	c5-9.6,12.7-17.6,22.3-22.7c9.6-5.3,20.3-7.9,32.2-7.9c18.3,0,33.3,6,45,17.8c11.7,11.9,17.5,26.9,17.5,45.1
	c0,18.3-5.9,33.4-17.7,45.5c-11.8,12.1-26.7,18-44.6,18c-11.1,0-21.7-2.5-31.7-7.5c-9.8-4.7-17.8-12.5-23-22
	C1081.8,287.5,1079.2,275.7,1079.2,261.8z M1112,263.5c0,12,2.8,21.2,8.6,27.6c5.7,6.4,12.7,9.5,21.1,9.5c8.4,0,15.4-3.2,21-9.5
	c5.7-6.4,8.5-15.6,8.5-27.8c0-11.8-2.8-20.9-8.5-27.3c-5.6-6.4-12.6-9.6-21-9.6c-8.4,0-15.4,3.2-21.1,9.6
	C1114.8,242.3,1112,251.5,1112,263.5z M1323,238.8l-31.6,5.7c-1.1-6.3-3.5-11.1-7.2-14.2c-3.8-3.2-8.6-4.8-14.6-4.8
	c-8,0-14.3,2.7-19.1,8.2c-4.7,5.5-7.1,14.7-7.1,27.6c0,14.3,2.4,24.5,7.2,30.4c4.8,5.9,11.3,8.8,19.4,8.8c6.1,0,11-1.7,14.9-5.2
	c3.9-3.4,6.6-9.4,8.2-17.8l31.5,5.3c-3.3,14.4-9.6,25.3-18.8,32.7c-9.3,7.4-21.7,11.1-37.2,11.1c-17.7,0-31.8-5.6-42.3-16.7
	c-10.5-11.1-15.8-26.6-15.8-46.4c0-19.9,5.3-35.5,15.8-46.6c10.6-11.1,24.9-16.7,42.9-16.7c14.7,0,26.4,3.2,35.1,9.5
	C1312.9,216.1,1319.1,225.8,1323,238.8L1323,238.8z M1367.6,186.6h-32V157h32V186.6z M1335.6,186.6h32H1335.6z M1367.6,324h-32V203
	h32V324z M1335.6,324h32H1335.6z M1412.7,239.9l-29.1-5.2c3.3-11.7,8.9-20.3,16.8-26c8-5.6,19.8-8.4,35.5-8.4
	c14.3,0,24.9,1.7,31.9,5.1c7,3.4,11.9,7.7,14.7,12.9c2.8,5.2,4.3,14.7,4.3,28.7l-0.4,37.4c0,10.6,0.5,18.5,1.6,23.5
	c1,5,2.9,10.5,5.7,16.2h-31.7c-1.1-3.1-2.2-6.3-3.1-9.5c-0.3-1.3-0.7-2.5-1.1-3.8c-5.1,5-11,9.1-17.5,12c-6.3,2.7-13.1,4-19.9,4
	c-12.4,0-22.3-3.4-29.4-10.1c-7.2-6.8-10.8-15.3-10.8-25.7c0-6.8,1.6-12.9,4.9-18.3c3.3-5.4,7.9-9.5,13.7-12.3
	c5.9-2.8,14.4-5.3,25.5-7.5c14.9-2.8,25.3-5.4,31.1-7.8v-3.2c0-6.2-1.5-10.5-4.5-13.2c-3-2.6-8.8-3.9-17.2-3.9
	c-5.7,0-10.1,1.1-13.3,3.4C1417.2,230.4,1414.6,234.3,1412.7,239.9L1412.7,239.9z M1455.5,265.9c-4.1,1.4-10.6,3-19.5,4.9
	c-8.9,1.9-14.6,3.8-17.4,5.6c-4.2,3-6.3,6.7-6.3,11.3c0,4.5,1.7,8.4,5,11.6c3.3,3.3,7.6,4.9,12.7,4.9c5.8,0,11.3-1.9,16.5-5.7
	c3.9-2.9,6.4-6.4,7.6-10.6c0.8-2.7,1.2-7.9,1.2-15.6V265.9z M1562.3,203v25.5h-21.9v48.7c0,9.9,0.2,15.6,0.6,17.3
	c0.4,1.6,1.5,3.1,2.9,4c1.5,1,3.3,1.6,5.4,1.6c3,0,7.3-1,12.9-3.1l2.7,24.8c-7.5,3.2-15.9,4.8-25.3,4.8c-5.8,0-11-1-15.6-2.9
	c-4.6-1.9-8-4.5-10.2-7.5c-2.2-3.1-3.7-7.3-4.5-12.5c-0.7-3.7-1-11.2-1-22.5v-52.7h-14.7V203h14.7v-24.1l32.1-18.7V203H1562.3
	L1562.3,203z M1642.9,285.5l31.9,5.3c-4.1,11.7-10.6,20.6-19.4,26.7c-8.8,6.1-19.9,9.2-33.2,9.2c-21,0-36.6-6.8-46.7-20.6
	c-8-11-12-24.9-12-41.7c0-20.1,5.2-35.8,15.7-47.1c10.5-11.3,23.7-17,39.7-17c18,0,32.2,6,42.6,17.8c10.4,11.9,15.3,30.1,14.9,54.6
	h-80.2c0.2,9.5,2.8,16.9,7.7,22.1c4.9,5.3,11.1,7.9,18.5,7.9c5,0,9.2-1.3,12.6-4.1C1638.6,295.9,1641.2,291.6,1642.9,285.5
	L1642.9,285.5z M1644.8,253.1c-0.2-9.3-2.6-16.3-7.2-21.2c-4.3-4.7-10.3-7.3-16.6-7.2c-7,0-12.7,2.6-17.3,7.7
	c-4.6,5.1-6.8,12-6.7,20.7H1644.8z M1801.9,324h-29.7v-17.8c-4.9,6.9-10.8,12-17.5,15.4c-6.7,3.4-13.5,5-20.3,5
	c-13.9,0-25.8-5.6-35.7-16.8c-9.9-11.2-14.9-26.8-14.9-46.9c0-20.5,4.8-36.1,14.5-46.8c9.6-10.7,21.9-16,36.6-16
	c13.5,0,25.2,5.6,35.1,16.9V157h32L1801.9,324L1801.9,324L1801.9,324z M1716.5,260.9c0,12.9,1.8,22.2,5.4,28
	c5.1,8.3,12.4,12.5,21.6,12.5c7.4,0,13.7-3.2,18.8-9.4c5.1-6.3,7.7-15.6,7.7-28.1c0-13.9-2.5-23.9-7.5-30
	c-4.6-5.9-11.8-9.3-19.3-9.2c-7.6,0-13.9,3-19.1,9.1C1719.1,239.9,1716.5,248.9,1716.5,260.9z M1886.9,324V157h54.1
	c20.5,0,33.9,0.9,40.1,2.5c9.6,2.5,17.6,7.9,24.1,16.3c6.5,8.4,9.7,19.2,9.7,32.5c0,10.3-1.9,18.9-5.6,25.9
	c-3.7,7-8.4,12.5-14.2,16.5c-5.7,4-11.6,6.6-17.5,7.9c-8,1.6-19.7,2.4-35,2.4h-22v63L1886.9,324L1886.9,324L1886.9,324z
	 M1920.6,185.3v47.4h18.4c13.3,0,22.2-0.9,26.7-2.6c4.5-1.8,8-4.5,10.5-8.2c2.5-3.7,3.8-8,3.8-13c0-6.1-1.8-11.1-5.4-15
	c-3.5-3.9-8.3-6.5-13.5-7.4c-4-0.8-12.1-1.1-24.3-1.1L1920.6,185.3L1920.6,185.3L1920.6,185.3z M2061.3,324h-32V203h29.7v17.2
	c5.1-8.1,9.7-13.5,13.7-16.1c4.1-2.6,8.9-3.9,13.8-3.9c7.3,0,14.3,2,21.1,6.1l-9.9,27.9c-5.4-3.5-10.4-5.2-15-5.2
	c-4.5,0-8.3,1.2-11.4,3.7c-3.1,2.5-5.6,6.9-7.3,13.4c-1.8,6.5-2.7,20-2.7,40.6L2061.3,324L2061.3,324z M2179.8,285.5l31.9,5.3
	c-4.1,11.7-10.6,20.6-19.4,26.7c-8.8,6.1-19.9,9.2-33.2,9.2c-21,0-36.6-6.8-46.7-20.6c-8-11-12-24.9-12-41.7
	c0-20.1,5.3-35.8,15.8-47.1c10.5-11.3,23.7-17,39.7-17c18,0,32.2,6,42.6,17.8c10.4,11.9,15.4,30.1,14.9,54.6h-80.2
	c0.2,9.5,2.8,16.9,7.7,22.1c4.7,5.2,11.5,8.1,18.5,7.9c5,0,9.2-1.3,12.6-4.1C2175.5,295.9,2178.1,291.6,2179.8,285.5L2179.8,285.5z
	 M2181.6,253.1c-0.3-9.3-2.6-16.3-7.2-21.2c-4.2-4.7-10.3-7.3-16.6-7.2c-6.6-0.2-13,2.6-17.3,7.7c-4.6,5.1-6.8,12-6.7,20.7H2181.6z
	 M2216.6,289.5l32.1-4.9c1.4,6.2,4.1,10.9,8.3,14.2c4.2,3.2,10,4.9,17.5,4.9c8.3,0,14.5-1.5,18.7-4.6c2.7-2,4.3-5.1,4.2-8.5
	c0.1-2.3-0.8-4.4-2.3-6.1c-1.6-1.5-5.2-2.9-10.7-4.2c-25.8-5.7-42.2-10.9-49.1-15.6c-9.6-6.5-14.3-15.6-14.3-27.3
	c0-10.4,4.1-19.3,12.4-26.4c8.3-7.2,21.1-10.7,38.5-10.7c16.5,0,28.9,2.7,36.9,8.1c8,5.4,13.6,13.4,16.6,24l-30.2,5.6
	c-1.3-4.7-3.7-8.3-7.3-10.8c-3.6-2.5-8.8-3.8-15.4-3.8c-8.4,0-14.5,1.2-18.1,3.5c-2.2,1.4-3.6,3.9-3.6,6.5c0,2.3,1,4.2,3.2,5.8
	c2.9,2.1,12.8,5.1,29.9,9c17,3.9,28.9,8.6,35.7,14.2c6.7,5.7,10,13.7,10,23.8c0,11.1-4.6,20.6-13.9,28.6c-9.3,8-23,11.9-41.1,11.9
	c-16.5,0-29.5-3.3-39.2-10C2225.8,310,2219.6,300.9,2216.6,289.5L2216.6,289.5z"/>
<path class="st1" d="M2322.7,289.5l32.1-4.9c1.4,6.2,4.1,10.9,8.3,14.2c4.2,3.2,10,4.9,17.5,4.9c8.3,0,14.5-1.5,18.7-4.6
	c2.7-2,4.3-5.1,4.2-8.5c0.1-2.3-0.8-4.4-2.3-6.1c-1.6-1.5-5.2-2.9-10.7-4.2c-25.8-5.7-42.2-10.9-49.1-15.6
	c-9.6-6.5-14.3-15.6-14.3-27.3c0-10.4,4.1-19.3,12.4-26.4c8.3-7.2,21.1-10.7,38.5-10.7c16.6,0,28.9,2.7,36.9,8.1
	c8.1,5.4,13.6,13.4,16.6,24l-30.2,5.6c-1.3-4.7-3.7-8.3-7.3-10.8c-3.6-2.5-8.8-3.8-15.4-3.8c-8.4,0-14.5,1.2-18.1,3.5
	c-2.3,1.4-3.6,3.9-3.6,6.5c0,2.3,1.1,4.2,3.2,5.8c2.9,2.1,12.8,5.1,29.9,9c17,3.9,28.9,8.6,35.7,14.2c6.7,5.7,10,13.7,10,23.8
	c0,11.1-4.6,20.6-13.9,28.6c-9.3,8-22.9,11.9-41.1,11.9c-16.5,0-29.5-3.3-39.2-10C2331.9,310,2325.7,300.9,2322.7,289.5
	L2322.7,289.5z"/>
</svg>
