<?xml version="1.0" encoding="utf-8"?>
<!-- Generator: Adobe Illustrator 25.2.2, SVG Export Plug-In . SVG Version: 6.00 Build 0)  -->
<svg version="1.1" id="Layer_1" xmlns="http://www.w3.org/2000/svg" xmlns:xlink="http://www.w3.org/1999/xlink" x="0px" y="0px"
	 viewBox="0 0 780.3 214.3" style="enable-background:new 0 0 780.3 214.3;" xml:space="preserve">
<style type="text/css">
	.st0{fill:#0060F5;}
</style>
<g>
	<path class="st0" d="M262.4,77.6c3.9,2.8,5.8,6.7,5.8,11.5c0,3.5-1,6.5-2.9,9c-2,2.5-4.6,4.2-8.1,5c4.2,0.8,7.5,2.6,9.9,5.4
		c2.4,2.8,3.6,6.3,3.6,10.5c0,5.4-2.1,9.6-6.3,12.7c-4.2,3.1-9.9,4.6-17.1,4.6h-28.8v-63h28C253.2,73.4,258.5,74.8,262.4,77.6z
		 M253.2,97c1.8-1.4,2.7-3.3,2.7-5.8c0-2.4-0.9-4.3-2.7-5.6c-1.8-1.3-4.2-1.9-7.3-1.9h-15.3v15.3h15.3C249,99.1,251.4,98.4,253.2,97
		z M254.9,123.8c2.2-1.5,3.2-3.6,3.2-6.3c0-2.6-1.1-4.6-3.2-6.1c-2.2-1.5-5.2-2.2-9-2.1h-15.3v16.6h15.3
		C249.7,126,252.7,125.3,254.9,123.8z"/>
	<path class="st0" d="M317.9,85.5c-3-1.4-6.1-2.2-9.2-2.2c-3.9,0-7.5,0.9-10.7,2.8c-3.2,1.9-5.8,4.4-7.6,7.7
		c-1.9,3.3-2.8,6.9-2.8,10.8c0,3.9,0.9,7.5,2.8,10.8c1.9,3.3,4.4,5.9,7.6,7.7c3.2,1.9,6.8,2.8,10.7,2.8c3,0,6-0.7,9-2
		c3-1.3,5.7-3.1,8.1-5.5l7.1,7.9c-3.3,3.4-7.1,6-11.5,8c-4.4,2-8.8,2.9-13.3,2.9c-6.1,0-11.6-1.4-16.6-4.3c-5-2.9-9-6.8-11.9-11.7
		c-2.9-5-4.3-10.4-4.3-16.4c0-6,1.5-11.5,4.4-16.4c2.9-4.9,6.9-8.8,12-11.6c5.1-2.8,10.7-4.2,16.9-4.2c4.5,0,8.9,0.9,13.2,2.7
		c4.3,1.8,8,4.3,11.1,7.5l-7,8.8C323.6,89,320.9,86.9,317.9,85.5z"/>
	<path class="st0" d="M383.9,77.6c3.9,2.8,5.8,6.7,5.8,11.5c0,3.5-1,6.5-2.9,9c-2,2.5-4.6,4.2-8.1,5c4.2,0.8,7.5,2.6,9.9,5.4
		c2.4,2.8,3.6,6.3,3.6,10.5c0,5.4-2.1,9.6-6.3,12.7c-4.2,3.1-9.9,4.6-17.1,4.6h-28.8v-63h28C374.8,73.4,380.1,74.8,383.9,77.6z
		 M374.8,97c1.8-1.4,2.7-3.3,2.7-5.8c0-2.4-0.9-4.3-2.7-5.6c-1.8-1.3-4.2-1.9-7.3-1.9h-15.3v15.3h15.3C370.5,99.1,373,98.4,374.8,97
		z M376.4,123.8c2.2-1.5,3.2-3.6,3.2-6.3c0-2.6-1.1-4.6-3.2-6.1c-2.2-1.5-5.2-2.2-9-2.1h-15.3v16.6h15.3
		C371.3,126,374.3,125.3,376.4,123.8z"/>
	<path class="st0" d="M472.6,105.6h5.5v23c-3.1,2.6-6.6,4.6-10.7,6.1c-4,1.5-8.2,2.2-12.4,2.2c-5.9,0-11.4-1.4-16.4-4.3
		c-5-2.9-9-6.8-11.9-11.7c-2.9-4.9-4.4-10.3-4.4-16.1c0-5.8,1.5-11.2,4.4-16c2.9-4.9,6.9-8.7,12-11.6c5.1-2.8,10.6-4.3,16.6-4.3
		c4.3,0,8.4,0.8,12.4,2.2c4,1.5,7.5,3.6,10.6,6.3l-3.6,4.4c-2.6-2.4-5.6-4.2-8.9-5.5c-3.4-1.3-6.8-1.9-10.4-1.9
		c-4.9,0-9.3,1.2-13.4,3.6c-4.1,2.4-7.3,5.6-9.7,9.6c-2.4,4-3.6,8.4-3.6,13.2c0,4.9,1.2,9.3,3.6,13.4c2.4,4.1,5.7,7.3,9.8,9.6
		c4.1,2.4,8.6,3.6,13.5,3.6c3,0,6-0.5,9-1.5c3-1,5.7-2.4,8.2-4.2V105.6z"/>
	<path class="st0" d="M534.1,136.4l-13.6-20.5c-1.9,0.1-3.4,0.2-4.4,0.2h-17.3v20.3h-6.2V73.4h23.5c7.9,0,13.9,1.8,18.2,5.4
		c4.3,3.6,6.4,8.8,6.4,15.4c0,5.2-1.3,9.6-3.8,13c-2.5,3.5-6.1,5.9-10.8,7.3l15.1,21.7H534.1z M516.1,110.4c6,0,10.6-1.4,13.9-4.1
		c3.2-2.7,4.9-6.7,4.9-11.8c0-5-1.6-8.9-4.9-11.5c-3.2-2.6-7.9-4-13.9-4h-17.3v31.4H516.1z"/>
	<path class="st0" d="M597.7,77.2c5,2.9,9,6.7,11.9,11.6c2.9,4.9,4.4,10.2,4.4,16c0,5.8-1.5,11.2-4.4,16.1
		c-2.9,4.9-6.9,8.8-11.9,11.7c-5,2.9-10.5,4.3-16.5,4.3c-6,0-11.5-1.4-16.5-4.3c-5-2.9-9-6.8-11.9-11.7c-2.9-4.9-4.4-10.3-4.4-16.1
		c0-5.8,1.5-11.2,4.4-16c2.9-4.9,6.9-8.7,11.9-11.6c5-2.8,10.5-4.3,16.5-4.3C587.2,72.9,592.7,74.3,597.7,77.2z M568,82
		c-4.1,2.3-7.3,5.5-9.7,9.5c-2.4,4-3.6,8.4-3.6,13.2c0,4.8,1.2,9.2,3.6,13.3c2.4,4.1,5.6,7.3,9.7,9.7c4.1,2.4,8.5,3.6,13.3,3.6
		c4.7,0,9.1-1.2,13.2-3.6c4-2.4,7.3-5.6,9.7-9.7c2.4-4.1,3.6-8.5,3.6-13.3c0-4.8-1.2-9.2-3.6-13.2c-2.4-4-5.6-7.2-9.7-9.5
		c-4-2.3-8.4-3.5-13.2-3.5C576.5,78.5,572,79.7,568,82z"/>
	<path class="st0" d="M635.5,125.9c3.5,3.6,8.4,5.4,14.6,5.4s11.1-1.8,14.6-5.4c3.5-3.6,5.2-8.6,5.2-15.1V73.4h6.2v37.4
		c0,8.2-2.3,14.6-6.9,19.2c-4.6,4.6-11,6.9-19.1,6.9c-8.2,0-14.5-2.3-19.2-6.9c-4.6-4.6-6.9-11-6.9-19.2V73.4h6.2v37.4
		C630.3,117.3,632,122.3,635.5,125.9z"/>
	<path class="st0" d="M732.7,78.9c4.3,3.6,6.4,8.8,6.4,15.4c0,6.9-2.1,12.2-6.4,16c-4.3,3.8-10.3,5.7-18.1,5.7h-17v20.3h-6.2V73.4
		h23.2C722.4,73.4,728.4,75.3,732.7,78.9z M728.2,106.3c3.3-2.7,4.9-6.7,4.9-11.8c0-5-1.6-8.9-4.9-11.5c-3.2-2.6-7.9-4-14-4h-16.7
		v31.4h16.7C720.3,110.4,725,109.1,728.2,106.3z"/>
</g>
<g>
	<polygon class="st0" points="84.4,149.2 75.1,165.3 71.4,171.6 145.4,171.6 182.4,107.6 156.5,107.6 132.5,149.2 	"/>
	<polygon class="st0" points="79.5,146.5 55.5,104.8 79.5,63.2 66.6,40.8 29.6,104.8 66.6,168.9 70.3,162.5 	"/>
	<polygon class="st0" points="156.5,102 182.4,102 145.4,38 71.4,38 84.4,60.4 132.5,60.4 	"/>
	<polygon class="st0" points="63.5,107.6 84.4,143.7 126,143.7 105.2,107.6 	"/>
	<polygon class="st0" points="130.8,140.9 151.7,104.8 130.8,68.7 110,104.8 	"/>
	<polygon class="st0" points="126,65.9 84.4,65.9 63.5,102 105.2,102 	"/>
</g>
</svg>
