<svg width="1324" height="201" viewBox="0 0 1324 201" fill="none" xmlns="http://www.w3.org/2000/svg">
<g clip-path="url(#clip0)">
<path d="M713.624 38.4375V82.5842H714.019C721.299 72.9975 731.693 68.2019 745.203 68.2019C751.23 68.2019 756.935 69.1886 762.302 71.1575C767.675 73.1264 772.45 76.0953 776.619 80.0686C780.78 84.0375 784.043 88.9975 786.395 94.953C788.755 100.904 789.927 107.78 789.927 115.575C789.927 124.362 788.32 132.526 785.089 140.069C781.857 147.615 776.83 153.655 770.013 158.202C763.191 162.744 754.726 165.024 744.615 165.024C730.015 165.024 719.62 160.362 713.422 151.046H713.032V162.611H685.304V38.4375H713.624ZM607.236 65.6095C661.116 65.6095 656.507 123.609 656.507 123.609H582.749C585.733 135.152 595.648 142.738 609.309 142.738C625.767 142.738 634.636 132.774 634.636 132.774L650.295 148.809C642.234 156.832 631.409 164.161 609.072 164.161C574.531 164.161 556.112 141.249 556.112 116.965C556.112 92.6806 569.931 65.6095 607.236 65.6095ZM1278.14 65.5673C1301.32 65.5673 1316.06 74.425 1316.06 74.425L1306.54 94.8917C1275.69 78.8562 1261.71 90.1584 1261.71 95.8073C1261.71 101.461 1267.24 101.918 1288.73 105.892C1310.22 109.865 1320.2 118.869 1320.2 133.381C1320.2 147.892 1307.76 163.932 1277.37 163.932C1246.97 163.932 1233.16 154.154 1233.16 154.154L1242.37 133.838C1266.17 148.963 1293.18 144.069 1293.18 135.065C1293.18 128.305 1284.2 126.873 1274.53 125.741L1270.37 125.259C1268.52 125.041 1266.69 124.807 1264.94 124.523C1252.66 122.536 1234.39 115.972 1234.39 97.0295C1234.39 78.0917 1254.96 65.5673 1278.14 65.5673ZM1142.42 31.9682V106.964L1182.72 68.1637H1215.65L1175.71 106.617L1219.56 163.933H1186.87L1156.88 124.75L1142.42 138.666V163.933H1115.48V31.9682H1142.42ZM1045.86 64.9602C1064.97 64.9602 1081.7 74.4935 1090.95 88.7824L1068.18 102.205C1063.91 94.0802 1055.51 88.5557 1045.86 88.5557C1031.87 88.5557 1020.53 100.147 1020.53 114.445C1020.53 128.738 1031.87 140.333 1045.86 140.333C1055.07 140.333 1063.1 135.298 1067.54 127.787L1090.42 140.898C1081.07 154.738 1064.62 163.933 1045.86 163.933C1016.74 163.933 993.131 141.773 993.131 114.445C993.131 87.1113 1016.74 64.9602 1045.86 64.9602ZM920.656 64.9557C949.771 64.9557 973.387 87.1157 973.387 114.44C973.387 141.773 949.771 163.929 920.656 163.929C891.524 163.929 867.925 141.773 867.925 114.44C867.925 87.1157 891.524 64.9557 920.656 64.9557ZM441.879 67.7068V163.018H412.634V67.7068H441.879ZM386.374 38.8384V62.6651H320.977V94.2828H378.771V117.883H320.977V163.016H291.728V38.8384H386.374ZM504.292 79.6171C504.292 79.6171 514.655 63.3504 536.068 65.8748V92.4482C536.068 92.4482 512.81 86.4926 504.292 110.55V163.013H476.43V67.7059H503.067L504.292 78.9326V79.6171ZM840.048 31.5068V162.325H810.575V31.5068H840.048ZM736.684 89.1442C720.522 89.1442 712.439 99.0019 712.439 118.726C712.439 126.202 714.522 132.473 718.682 137.54C722.847 142.602 729.122 145.135 737.519 145.135C743.116 145.135 747.658 143.673 751.149 140.749C754.637 137.82 757.11 134.242 758.573 130.006C760.04 125.775 760.772 121.549 760.772 117.331C760.772 109.224 758.855 102.509 755.023 97.1619C751.19 91.8153 745.072 89.1442 736.684 89.1442ZM920.656 88.5557C906.658 88.5557 895.321 100.142 895.321 114.44C895.321 128.742 906.658 140.333 920.656 140.333C934.641 140.333 945.978 128.742 945.978 114.44C945.978 100.142 934.641 88.5557 920.656 88.5557ZM607.694 86.3784C593.444 86.3784 585.522 95.1828 582.847 106.654H630.606C630.372 103.672 625.655 86.3784 607.694 86.3784ZM427.257 22.7988C436.745 22.7988 444.447 29.8788 444.447 38.6077C444.447 47.3366 436.745 54.4166 427.257 54.4166C417.765 54.4166 410.063 47.3366 410.063 38.6077C410.063 29.8788 417.765 22.7988 427.257 22.7988Z" fill="#030405"/>
<path d="M193.99 0.576172C198.395 0.576172 201.966 4.15789 201.966 8.57617V192.576C201.966 196.994 198.395 200.576 193.99 200.576H7.9759C3.57093 200.576 0 196.994 0 192.576V8.57617C0 4.15789 3.57093 0.576172 7.9759 0.576172H193.99ZM100.983 56.1317L44.8809 145.021H157.084L100.983 56.1317Z" fill="#030405"/>
</g>
<defs>
<clipPath id="clip0">
<rect width="1324" height="200" fill="white" transform="translate(0 0.576172)"/>
</clipPath>
</defs>
</svg>
