<svg width="1080" height="277" viewBox="0 0 1080 277" fill="none" xmlns="http://www.w3.org/2000/svg">
<path d="M258.439 69.9686L252.484 59.5162C252.017 58.697 251.367 57.9968 250.584 57.4702C249.802 56.9435 248.908 56.6048 247.973 56.4803C247.038 56.3558 246.087 56.449 245.194 56.7526C244.301 57.0562 243.49 57.562 242.825 58.2305L229.128 71.9091C228.127 72.915 227.504 74.236 227.365 75.6483C227.226 77.0606 227.58 78.4775 228.366 79.6591C233.36 87.2874 237.362 95.5203 240.276 104.159C245.719 120.308 247.24 137.521 244.711 154.373C242.182 171.226 235.677 187.235 225.733 201.077C215.789 214.919 202.692 226.197 187.524 233.978C172.357 241.759 155.554 245.82 138.506 245.826C120.955 245.874 103.665 241.584 88.1746 233.338L111.339 210.171C125.694 215.598 141.346 216.596 156.274 213.038C171.202 209.479 184.719 201.526 195.078 190.208C205.437 178.89 212.161 164.726 214.382 149.547C216.603 134.369 214.218 118.873 207.536 105.064C207.111 104.18 206.481 103.41 205.698 102.82C204.914 102.229 204.001 101.835 203.034 101.671C202.066 101.506 201.074 101.576 200.139 101.875C199.205 102.173 198.355 102.691 197.662 103.385L183.799 117.147C183.06 117.885 182.522 118.8 182.237 119.804C181.951 120.808 181.927 121.869 182.168 122.885L183.359 127.861C185.408 136.578 184.867 145.704 181.802 154.118C178.737 162.531 173.281 169.868 166.104 175.227C158.927 180.585 150.341 183.733 141.399 184.283C132.458 184.834 123.551 182.763 115.77 178.326L109.66 174.826C108.493 174.154 107.135 173.886 105.8 174.065C104.464 174.243 103.225 174.858 102.276 175.814L45.692 232.361C45.0743 232.979 44.5957 233.721 44.2882 234.538C43.9806 235.356 43.8513 236.229 43.9088 237.1C43.9663 237.972 44.2093 238.82 44.6216 239.59C45.0339 240.36 45.6059 241.033 46.2994 241.564L54.6363 247.957C78.6788 266.476 108.2 276.477 138.554 276.385C162.719 276.354 186.453 269.988 207.388 257.922C228.322 245.857 245.724 228.513 257.857 207.623C269.989 186.734 276.428 163.028 276.53 138.874C276.632 114.719 270.394 90.9601 258.439 69.9686Z" fill="url(#paint0_linear)"/>
<path d="M222.446 28.8376C198.407 10.3112 168.884 0.30562 138.529 0.397106C114.352 0.415891 90.6033 6.77621 69.6556 18.8425C48.708 30.9089 31.295 48.2587 19.1564 69.1586C7.01783 90.0584 0.578753 113.776 0.48254 137.943C0.386327 162.109 6.63634 185.878 18.6081 206.873L24.5631 217.314C25.0321 218.132 25.6833 218.832 26.4662 219.358C27.2492 219.884 28.1429 220.223 29.0781 220.349C30.0132 220.474 30.9647 220.383 31.8588 220.081C32.7529 219.78 33.5656 219.277 34.2339 218.611L47.9065 204.945C48.901 203.937 49.5193 202.619 49.6581 201.211C49.7968 199.802 49.4476 198.389 48.6687 197.207C43.67 189.581 39.6675 181.347 36.7588 172.707C31.3154 156.557 29.7953 139.345 32.3242 122.493C34.8531 105.64 41.3583 89.6309 51.3022 75.7888C61.2461 61.9466 74.3431 50.6689 89.5106 42.8877C104.678 35.1065 121.48 31.0454 138.529 31.04C156.079 31.0003 173.366 35.3028 188.848 43.5638L165.672 66.7185C154.062 62.3202 141.557 60.8053 129.232 62.3042C116.906 63.803 105.13 68.2708 94.9133 75.3235C84.6969 82.3762 76.3465 91.8029 70.5795 102.794C64.8126 113.784 61.8016 126.01 61.8054 138.421C61.8054 139.695 62.1508 145.504 62.258 146.504C63.1972 155.297 65.6426 163.862 69.4873 171.826C69.913 172.71 70.5445 173.48 71.3289 174.07C72.1134 174.66 73.0279 175.054 73.9959 175.219C74.9639 175.383 75.9572 175.313 76.8927 175.015C77.8281 174.717 78.6785 174.199 79.3725 173.504L93.2356 159.635C93.974 158.899 94.5124 157.987 94.8 156.985C95.0875 155.983 95.1148 154.924 94.8792 153.909L93.6882 148.921C91.6361 140.204 92.1755 131.077 95.2401 122.662C98.3048 114.248 103.761 106.91 110.94 101.552C118.118 96.1938 126.706 93.0475 135.648 92.4997C144.59 91.952 153.498 94.0265 161.277 98.4685L167.387 101.969C168.556 102.635 169.912 102.899 171.246 102.72C172.58 102.542 173.818 101.931 174.771 100.98L231.343 44.4328C231.962 43.8151 232.441 43.0727 232.75 42.2549C233.058 41.4372 233.189 40.5631 233.132 39.6909C233.076 38.8187 232.834 37.9687 232.423 37.1974C232.012 36.4262 231.44 35.7515 230.747 35.2185L222.446 28.8376Z" fill="url(#paint1_linear)"/>
<path d="M455.012 176.48C453.98 175.643 452.683 175.2 451.354 175.23C450.025 175.261 448.751 175.763 447.759 176.647C438.886 183.528 428.595 189.897 413.553 189.897C386.018 189.897 363.615 166.718 363.615 138.207C363.615 109.695 385.934 86.3136 413.351 86.3136C425.261 86.3136 438.123 91.3255 447.58 99.6232C448.113 100.241 448.775 100.734 449.521 101.068C450.266 101.401 451.075 101.566 451.891 101.552C452.598 101.496 453.285 101.285 453.902 100.936C454.519 100.586 455.053 100.106 455.464 99.5279L464.42 90.3136C464.99 89.7623 465.44 89.0991 465.742 88.3656C466.043 87.6322 466.189 86.8444 466.171 86.0517C466.138 85.2463 465.938 84.4565 465.586 83.7314C465.234 83.0063 464.735 82.3616 464.123 81.8374C448.485 68.2184 432.776 62.147 413.136 62.147C371.214 62.147 337.104 96.4565 337.104 138.623C337.119 158.78 345.133 178.108 359.387 192.367C373.641 206.626 392.971 214.651 413.136 214.683C422.61 214.795 432.011 213.033 440.801 209.498C449.59 205.964 457.593 200.726 464.349 194.087C464.942 193.483 465.407 192.766 465.718 191.979C466.029 191.192 466.179 190.35 466.159 189.504C466.143 188.831 465.992 188.167 465.713 187.554C465.435 186.94 465.036 186.389 464.54 185.933L455.012 176.48Z" fill="#3D3751"/>
<path d="M520.195 64.2183H506.629C505.116 64.2691 503.678 64.8944 502.61 65.967C501.541 67.0396 500.921 68.4789 500.877 69.9921V206.897C500.918 208.412 501.537 209.854 502.606 210.929C503.675 212.005 505.114 212.632 506.629 212.683H520.195C521.71 212.632 523.149 212.005 524.218 210.929C525.287 209.854 525.905 208.412 525.947 206.897V69.9921C525.902 68.4789 525.283 67.0396 524.214 65.967C523.146 64.8944 521.708 64.2691 520.195 64.2183Z" fill="#3D3751"/>
<path d="M680.728 110.302C680.728 84.8968 659.802 64.2183 634.077 64.2183H578.136C576.608 64.2246 575.145 64.8356 574.067 65.9178C572.989 66.9999 572.384 68.4649 572.384 69.9921V206.897C572.381 208.426 572.985 209.894 574.063 210.979C575.141 212.064 576.606 212.676 578.136 212.683H591.499C593.015 212.632 594.454 212.005 595.523 210.929C596.592 209.854 597.21 208.412 597.252 206.897V155.98H625.288L652.144 209.73C652.633 210.611 653.35 211.344 654.219 211.853C655.089 212.362 656.079 212.628 657.087 212.623H673.118C674.13 212.657 675.134 212.422 676.027 211.943C676.92 211.465 677.671 210.759 678.203 209.897C678.71 208.987 678.976 207.962 678.976 206.921C678.976 205.879 678.71 204.855 678.203 203.944L650.953 153.183C669.366 145.004 680.728 128.742 680.728 110.302ZM655.658 110.718C655.658 123.611 645.022 134.528 632.434 134.528H597.669V87.9683H632.386C644.998 87.9683 655.61 98.3849 655.61 110.718H655.658Z" fill="#3D3751"/>
<path d="M826.732 176.48C825.7 175.643 824.404 175.2 823.075 175.23C821.746 175.261 820.471 175.763 819.479 176.647C810.606 183.528 800.316 189.897 785.274 189.897C757.738 189.897 735.335 166.718 735.335 138.206C735.335 109.695 757.642 86.3136 785.059 86.3136C796.969 86.3136 809.832 91.3255 819.3 99.6232C819.836 100.247 820.504 100.744 821.256 101.078C822.008 101.411 822.825 101.573 823.647 101.552C824.354 101.496 825.041 101.285 825.658 100.936C826.275 100.586 826.809 100.106 827.22 99.5279L836.176 90.3136C836.745 89.7617 837.193 89.0981 837.492 88.3646C837.791 87.6311 837.935 86.8436 837.915 86.0517C837.887 85.2465 837.691 84.456 837.34 83.7305C836.99 83.005 836.492 82.3603 835.879 81.8374C820.277 68.2184 804.568 62.147 784.928 62.147C743.005 62.147 708.895 96.4565 708.895 138.623C708.911 158.78 716.925 178.108 731.179 192.367C745.432 206.626 764.762 214.651 784.928 214.683C794.401 214.793 803.803 213.031 812.592 209.496C821.381 205.962 829.384 200.725 836.141 194.087C836.734 193.481 837.201 192.762 837.511 191.973C837.822 191.184 837.972 190.34 837.951 189.492C837.936 188.819 837.784 188.155 837.506 187.541C837.228 186.927 836.828 186.376 836.331 185.921L826.732 176.48Z" fill="#3D3751"/>
<path d="M951.5 189.694H897.667V69.9921C897.623 68.4789 897.003 67.0396 895.934 65.967C894.866 64.8944 893.428 64.2691 891.915 64.2183H878.349C876.821 64.2246 875.358 64.8356 874.28 65.9178C873.202 66.9999 872.597 68.4649 872.597 69.9921V206.897C872.594 208.426 873.197 209.894 874.276 210.979C875.354 212.064 876.819 212.676 878.349 212.683H951.5C952.258 212.681 953.009 212.53 953.709 212.239C954.41 211.947 955.046 211.52 955.581 210.983C956.116 210.446 956.54 209.808 956.829 209.107C957.118 208.406 957.266 207.655 957.264 206.897V195.528C957.272 194.766 957.129 194.009 956.843 193.303C956.557 192.596 956.134 191.953 955.598 191.411C955.062 190.868 954.424 190.438 953.72 190.143C953.017 189.848 952.262 189.696 951.5 189.694Z" fill="#3D3751"/>
<path d="M1073.36 87.3849C1074.89 87.3786 1076.35 86.7675 1077.43 85.6854C1078.51 84.6032 1079.12 83.1382 1079.12 81.6111V70.0277C1079.12 68.5005 1078.51 67.0355 1077.43 65.9534C1076.35 64.8713 1074.89 64.2602 1073.36 64.2539H991.184C989.656 64.2602 988.193 64.8713 987.115 65.9534C986.037 67.0355 985.432 68.5005 985.432 70.0277V206.932C985.428 208.462 986.032 209.93 987.111 211.014C988.189 212.099 989.654 212.712 991.184 212.718H1073.36C1074.89 212.712 1076.36 212.099 1077.44 211.014C1078.51 209.93 1079.12 208.462 1079.12 206.932V195.563C1079.12 194.036 1078.51 192.571 1077.43 191.489C1076.35 190.407 1074.89 189.796 1073.36 189.79H1010.24V148.944H1063.25C1064.78 148.941 1066.25 148.332 1067.33 147.249C1068.41 146.167 1069.02 144.7 1069.02 143.171V131.599C1068.97 130.082 1068.35 128.638 1067.28 127.563C1066.21 126.487 1064.77 125.861 1063.25 125.813H1010.28V87.3849H1073.36Z" fill="#3D3751"/>
<defs>
<linearGradient id="paint0_linear" x1="276.531" y1="85" x2="73" y2="259" gradientUnits="userSpaceOnUse">
<stop stop-color="#67BEFD"/>
<stop offset="1" stop-color="#AA96F3"/>
</linearGradient>
<linearGradient id="paint1_linear" x1="205" y1="15" x2="11" y2="203" gradientUnits="userSpaceOnUse">
<stop stop-color="#57E29F"/>
<stop offset="1" stop-color="#6CD8F4"/>
</linearGradient>
</defs>
</svg>
