<svg viewBox="0 0 369 93" fill="none" xmlns="http://www.w3.org/2000/svg">
<g clip-path="url(#clip0)">
<path d="M47.1 38.4999C47.1 33.1999 39.1 33.8999 36.6 33.8999V42.8999C39.2 42.8999 47.1 43.5999 47.1 38.4999Z" fill="#00ADEE"/>
<path d="M75.5 8.89993C68.4 8.59993 51.5 7.19993 39.7 0.799927C27.9 7.19993 11.1 8.59993 3.99998 8.89993C2.09998 8.99993 0.599976 10.5999 0.599976 12.4999V30.0999C0.599976 78.9999 39.7 92.2999 39.7 92.2999C39.7 92.2999 78.8 78.9999 78.8 30.0999V12.4999C78.9 10.5999 77.4 9.09993 75.5 8.89993ZM58 53.4999C57.3 60.5999 52 62.4999 44.4 62.8999V70.2999H39.9V62.8999C38.7 62.8999 37.5 62.8999 36.3 62.7999V70.1999H31.8V62.6999C30.7 62.6999 23.6 62.6999 23.6 62.6999V57.2999H28.6V33.4999H22.8V28.7999C22.8 28.7999 30.9 28.7999 31.9 28.7999V21.3999H36.4V28.6999C37.6 28.6999 38.9 28.6999 40.1 28.6999V21.4999H44.6V28.9999C50.4 29.5999 55 31.3999 55.5 36.6999C55.9 40.5999 54.2 42.8999 51.6 44.2999C55.9 45.1999 58.6 47.6999 58 53.4999Z" fill="#00A1EF"/>
<path d="M36.5 47.4999V57.3999C39.6 57.3999 49 58.0999 49.1 52.4999C49.2 46.6999 39.6 47.4999 36.5 47.4999Z" fill="#00ADEE"/>
<path d="M156.6 61.4999C156.6 65.3999 155.8 68.6999 154.3 71.2999C152.8 73.9999 150.7 76.0999 148.2 77.6999C145.6 79.2999 142.7 80.4999 139.5 81.1999C136.2 81.8999 132.9 82.2999 129.5 82.2999H101.1V10.8999H129.5C132.3 10.8999 135.1 11.1999 138 11.7999C140.9 12.3999 143.5 13.2999 145.8 14.6999C148.1 16.0999 150.1 17.8999 151.5 20.2999C153 22.5999 153.7 25.5999 153.7 29.2999C153.7 33.2999 152.6 36.4999 150.5 39.0999C148.4 41.6999 145.5 43.4999 142 44.6999V44.8999C144 45.1999 145.9 45.8999 147.7 46.7999C149.5 47.6999 151 48.8999 152.3 50.2999C153.6 51.6999 154.6 53.3999 155.4 55.1999C156.2 56.9999 156.6 59.0999 156.6 61.4999ZM137.1 31.5999C137.1 29.1999 136.2 27.3999 134.3 26.2999C132.5 25.1999 129.7 24.5999 126.1 24.5999H117.6V39.2999H126.9C130.1 39.2999 132.6 38.5999 134.4 37.2999C136.2 36.0999 137.1 34.0999 137.1 31.5999ZM139.4 59.8999C139.4 56.8999 138.3 54.8999 136.1 53.7999C133.9 52.6999 130.9 52.0999 127.2 52.0999H117.6V68.3999H127.3C128.6 68.3999 130 68.2999 131.5 67.9999C132.9 67.7999 134.3 67.2999 135.4 66.6999C136.6 66.0999 137.5 65.1999 138.3 64.0999C139 62.9999 139.4 61.5999 139.4 59.8999Z" fill="#3F3A39"/>
<path d="M179.5 16.0999C179.5 17.3999 179.2 18.5999 178.7 19.6999C178.2 20.7999 177.5 21.7999 176.7 22.5999C175.9 23.3999 174.9 23.9999 173.7 24.4999C172.5 24.9999 171.3 25.1999 170 25.1999C167.3 25.1999 165.1 24.2999 163.3 22.4999C161.5 20.6999 160.6 18.5999 160.6 16.0999C160.6 14.8999 160.8 13.6999 161.3 12.5999C161.8 11.4999 162.4 10.4999 163.3 9.6999C164.2 8.8999 165.2 8.1999 166.3 7.6999C167.4 7.1999 168.7 6.8999 170 6.8999C171.3 6.8999 172.5 7.0999 173.7 7.5999C174.9 8.0999 175.9 8.6999 176.7 9.4999C177.5 10.2999 178.2 11.2999 178.7 12.3999C179.2 13.5999 179.5 14.7999 179.5 16.0999ZM161.8 82.1999V32.0999H178.3V82.1999H161.8Z" fill="#3F3A39"/>
<path d="M208.2 44.3999V63.5999C208.2 65.9999 208.7 67.6999 209.6 68.8999C210.5 70.0999 212.1 70.6999 214.5 70.6999C215.3 70.6999 216.2 70.5999 217.1 70.4999C218 70.3999 218.8 70.1999 219.4 69.8999L219.6 81.9999C218.5 82.3999 217 82.7999 215.3 83.0999C213.6 83.3999 211.8 83.5999 210.1 83.5999C206.7 83.5999 203.9 83.1999 201.6 82.2999C199.3 81.3999 197.5 80.1999 196.1 78.6999C194.7 77.0999 193.7 75.1999 193.1 73.0999C192.5 70.8999 192.2 68.4999 192.2 65.7999V44.3999H184V32.0999H192V18.8999H208.2V32.0999H220V44.3999H208.2Z" fill="#3F3A39"/>
<path d="M279.7 82.2999C275 83.3999 270 84 264.5 84C258.8 84 253.5 83.0999 248.7 81.2999C243.9 79.4999 239.8 76.9 236.3 73.7C232.8 70.4 230.1 66.5 228.2 61.9C226.3 57.3 225.3 52.2 225.3 46.6C225.3 40.9 226.3 35.7 228.3 31.1C230.3 26.5 233 22.5 236.5 19.3C240 16 244.1 13.5 248.8 11.8C253.5 10.1 258.6 9.19995 264 9.19995C269.6 9.19995 274.9 10.1 279.7 11.8C284.5 13.5 288.5 15.8 291.5 18.7L280.6 31.1C278.9 29.2 276.7 27.6 274 26.3C271.2 25.1 268.1 24.4 264.6 24.4C261.6 24.4 258.8 25 256.2 26.1C253.6 27.2 251.4 28.8 249.6 30.7C247.7 32.7 246.3 35 245.2 37.7C244.2 40.4 243.6 43.4 243.6 46.6C243.6 49.9 244.1 52.9 245 55.7C245.9 58.5 247.3 60.7999 249.2 62.7999C251 64.7999 253.3 66.2999 256 67.3999C258.7 68.4999 261.8 69.1 265.3 69.1C267.3 69.1 269.2 68.9 271 68.6C272.8 68.3 274.5 67.8 276 67.1V54.1H262.4V40.1H291.8V77.7999C288.4 79.6999 284.4 81.1999 279.7 82.2999Z" fill="#3F3A39"/>
<path d="M354 56.8999C354 60.9999 353.3 64.6999 351.8 67.9999C350.3 71.2999 348.3 74.0999 345.8 76.4999C343.2 78.7999 340.3 80.5999 336.9 81.8999C333.5 83.1999 330 83.7999 326.1 83.7999C322.3 83.7999 318.8 83.1999 315.4 81.8999C312 80.5999 309.1 78.7999 306.5 76.4999C304 74.1999 302 71.3999 300.5 67.9999C299 64.6999 298.3 60.9999 298.3 56.8999C298.3 52.7999 299 49.0999 300.5 45.7999C302 42.4999 304 39.6999 306.5 37.3999C309 35.0999 312 33.3999 315.4 32.1999C318.8 30.9999 322.4 30.3999 326.1 30.3999C329.9 30.3999 333.5 30.9999 336.9 32.1999C340.3 33.3999 343.2 35.1999 345.8 37.3999C348.3 39.6999 350.4 42.4999 351.8 45.7999C353.2 49.1999 354 52.7999 354 56.8999ZM338.1 56.8999C338.1 55.2999 337.8 53.6999 337.3 52.1999C336.8 50.6999 336 49.2999 335 48.0999C334 46.8999 332.8 45.9999 331.3 45.1999C329.8 44.4999 328.1 44.0999 326.2 44.0999C324.3 44.0999 322.5 44.4999 321.1 45.1999C319.6 45.8999 318.4 46.8999 317.4 48.0999C316.4 49.2999 315.7 50.5999 315.2 52.1999C314.7 53.6999 314.4 55.2999 314.4 56.8999C314.4 58.4999 314.7 60.0999 315.2 61.5999C315.7 63.0999 316.5 64.4999 317.5 65.7999C318.5 66.9999 319.7 67.9999 321.2 68.7999C322.7 69.4999 324.4 69.8999 326.3 69.8999C328.2 69.8999 330 69.4999 331.4 68.7999C332.9 68.0999 334.1 67.0999 335.1 65.7999C336.1 64.5999 336.9 63.1999 337.4 61.5999C337.8 60.0999 338.1 58.4999 338.1 56.8999Z" fill="#3F3A39"/>
<path d="M362.3 72.3999C365.4 72.3999 368.1 74.7999 368.1 78.0999C368.1 81.3999 365.4 83.7999 362.3 83.7999C359.2 83.7999 356.5 81.3999 356.5 78.0999C356.5 74.7999 359.2 72.3999 362.3 72.3999ZM362.3 73.2999C359.7 73.2999 357.6 75.2999 357.6 78.0999C357.6 80.8999 359.6 82.8999 362.3 82.8999C364.9 82.8999 367 80.8999 367 78.0999C367 75.2999 364.9 73.2999 362.3 73.2999ZM361.1 81.3999H360.1V74.7999H362.6C364.2 74.7999 364.9 75.3999 364.9 76.6999C364.9 77.8999 364.2 78.3999 363.2 78.4999L365.1 81.3999H364L362.2 78.4999H361.1V81.3999V81.3999ZM361.1 77.6999H362.3C363.5 77.6999 363.9 77.2999 363.9 76.5999C363.9 75.9999 363.6 75.5999 362.4 75.5999H361V77.6999H361.1Z" fill="#3F3A39"/>
</g>
<defs>
<clipPath id="clip0">
<rect width="368.8" height="92.6" fill="white" transform="translate(0 0.199951)"/>
</clipPath>
</defs>
</svg>
