<svg id="Layer_1" data-name="Layer 1" xmlns="http://www.w3.org/2000/svg" xmlns:xlink="http://www.w3.org/1999/xlink" viewBox="0 0 7613 1120"><defs><style>.cls-1,.cls-2{fill:none;}.cls-1{clip-rule:evenodd;}.cls-3{clip-path:url(#clip-path);}.cls-4{clip-path:url(#clip-path-2);}.cls-5{fill:#f69f39;}.cls-6{clip-path:url(#clip-path-3);}.cls-7{clip-path:url(#clip-path-5);}.cls-8{clip-path:url(#clip-path-7);}.cls-9{clip-path:url(#clip-path-9);}.cls-10{fill:#1a487f;}.cls-11{clip-path:url(#clip-path-11);}.cls-12{fill:#e99b2e;}.cls-13{clip-path:url(#clip-path-13);}.cls-14{clip-path:url(#clip-path-15);}.cls-15{clip-path:url(#clip-path-17);}.cls-16{clip-path:url(#clip-path-19);}.cls-17{clip-path:url(#clip-path-21);}.cls-18{clip-path:url(#clip-path-23);}.cls-19{clip-path:url(#clip-path-25);}.cls-20{clip-path:url(#clip-path-27);}.cls-21{clip-path:url(#clip-path-29);}.cls-22{clip-path:url(#clip-path-31);}</style><clipPath id="clip-path" transform="translate(-4 -11)"><path class="cls-1" d="M77.61,571.16C77.61,302.46,295.36,84.64,564,84.64A484.94,484.94,0,0,1,736.07,116,164,164,0,0,1,776,58,553.12,553.12,0,0,0,564,16C257.47,16,9,264.55,9,571.16A552.65,552.65,0,0,0,97.5,872a164.26,164.26,0,0,1,49.08-51A484.34,484.34,0,0,1,77.61,571.16Z"/></clipPath><clipPath id="clip-path-2" transform="translate(-4 -11)"><rect class="cls-2" width="7629" height="1139"/></clipPath><clipPath id="clip-path-3" transform="translate(-4 -11)"><path class="cls-1" d="M1026.24,264A164.48,164.48,0,0,1,977,314.3,483.48,483.48,0,0,1,1050.31,571c0,268.61-218,486.35-487,486.35a486.24,486.24,0,0,1-178-33.52A163.92,163.92,0,0,1,343,1080.62,554.33,554.33,0,0,0,563.33,1126C870.22,1126,1119,877.54,1119,571A551.87,551.87,0,0,0,1026.24,264Z"/></clipPath><clipPath id="clip-path-5" transform="translate(-4 -11)"><circle class="cls-2" cx="890.5" cy="174.5" r="97.5"/></clipPath><clipPath id="clip-path-7" transform="translate(-4 -11)"><circle class="cls-2" cx="234.5" cy="962.5" r="97.5"/></clipPath><clipPath id="clip-path-9" transform="translate(-4 -11)"><path class="cls-1" d="M646.32,727.66q-34.92,27.93-97.13,27.93-57.33,0-101.42-21.56V663.48q36.25,16.17,61.37,22.78t45.93,6.62q25,0,38.34-9.56t13.35-28.41a31.37,31.37,0,0,0-5.88-18.74q-5.88-8.2-17.27-15.8t-46.42-24.25Q504.35,580.69,488,566.48a111.17,111.17,0,0,1-26.21-33.07q-9.8-18.85-9.8-44.09,0-47.52,32.21-74.71t89.05-27.19A210.67,210.67,0,0,1,626.48,394a366.91,366.91,0,0,1,53,18.62l-24.5,59q-28.66-11.76-47.4-16.41a152.2,152.2,0,0,0-36.87-4.66q-21.56,0-33.06,10t-11.52,26.21a32.38,32.38,0,0,0,4.66,17.52q4.65,7.47,14.82,14.45T593.77,544q50.22,24,68.84,48.14t18.62,59.15Q681.22,699.74,646.32,727.66ZM564.5,214C367.06,214,207,374.06,207,571.5S367.06,929,564.5,929,922,768.94,922,571.5,761.94,214,564.5,214Z"/></clipPath><clipPath id="clip-path-11" transform="translate(-4 -11)"><path class="cls-1" d="M4436,980a77,77,0,1,0-77,77,77,77,0,0,0,77-77"/></clipPath><clipPath id="clip-path-13" transform="translate(-4 -11)"><path class="cls-1" d="M1234,851.69V807.3q0-19.42,19.41-19.43h62.41q19.41,0,19.42,19.43v36.06q0,124.86,123.43,124.86h122q123.4,0,123.42-127.63V793.42q0-99.88-165-130.4-69.36-12.48-138.68-29.13t-117.89-64.51Q1234,521.53,1234,438.29v-68q0-95.71,54.78-150.52T1439.26,165H1593.2q94.29,0,149.78,54.79t55.47,150.52V405q0,20.79-18,20.8h-63.8q-18,0-18-20.8V380q0-126.21-123.43-126.23H1457.29q-123.46,0-123.44,131.78v55.49q0,70.76,92.92,97.11,41.61,11.12,91.54,20.11a1024.13,1024.13,0,0,1,100.54,23.59q50.61,14.57,92.23,36.06t67.26,65.21Q1804,726.84,1804,789.26v62.43q0,95.71-55.47,150.52T1598.74,1057H1439.26q-94.34,0-149.79-54.79T1234,851.69"/></clipPath><clipPath id="clip-path-15" transform="translate(-4 -11)"><path class="cls-1" d="M2496.55,1057h-436.1q-19.47,0-19.45-19.42V184.42q0-19.41,19.45-19.42h436.1q19.44,0,19.45,19.42v49.94q0,19.45-19.45,19.43H2156.28q-13.91,0-13.89,12.48V546.49q0,12.5,13.89,12.49H2453.5q19.44,0,19.45,19.42v49.94q0,19.44-19.45,19.42H2156.28q-13.91,0-13.89,12.48V955.73q0,12.48,13.89,12.49h340.27q19.44,0,19.45,19.42v49.94q0,19.44-19.45,19.42"/></clipPath><clipPath id="clip-path-17" transform="translate(-4 -11)"><path class="cls-1" d="M3092.72,1057H2926.28q-95.7,0-150.5-54.1T2721,851.69V370.31q0-97.08,54.78-151.2T2926.28,165h166.44q95.7,0,150.49,54.11T3298,370.31v68q0,19.44-19.42,19.42h-62.41q-19.44,0-19.42-19.42V374.48q0-120.71-116.51-120.69H2937.37q-115.14,0-115.12,120.69v473q0,120.69,115.12,120.7h142.87q116.51,0,116.51-120.7V783.71q0-19.41,19.42-19.42h62.41q19.41,0,19.42,19.42v68q0,97.11-54.79,151.21T3092.72,1057"/></clipPath><clipPath id="clip-path-19" transform="translate(-4 -11)"><path class="cls-1" d="M3987.18,165h62.41q19.39,0,19.41,18V851.69q0,97.11-54.08,151.21T3865.15,1057H3711.23q-95.68,0-150.45-54.1T3506,851.69V184.42q0-19.41,19.41-19.42h62.4q19.41,0,19.42,19.42v663.1q0,120.69,115.09,120.7h130.36q116.47,0,116.48-120.7V184.42q0-19.41,18-19.42"/></clipPath><clipPath id="clip-path-21" transform="translate(-4 -11)"><path class="cls-1" d="M4390.9,816.46h-62.46Q4309,816.46,4309,797V184.42q0-19.41,19.44-19.42h319.27q95.79,0,151.32,54.79t55.52,150.52V496.55q0,77.71-37.48,128.32T4713,692.15v5.55l161,337.1q12.49,22.21-13.88,22.2h-62.48q-23.61,0-34.7-19.42L4607.46,701.86H4424.22q-13.89,0-13.88,12.49V797Q4410.34,816.48,4390.9,816.46Zm33.32-199.21h209.61q119.37,0,119.39-119.31V374.48q0-120.71-119.39-120.69H4424.22q-13.89,0-13.88,12.48V604.76Q4410.34,617.24,4424.22,617.25Z"/></clipPath><clipPath id="clip-path-23" transform="translate(-4 -11)"><path class="cls-1" d="M5189,184.42v853.16q0,19.44-19.37,19.42h-62.26q-19.4,0-19.37-19.42V184.42q0-19.41,19.37-19.42h62.26q19.36,0,19.37,19.42"/></clipPath><clipPath id="clip-path-25" transform="translate(-4 -11)"><path class="cls-1" d="M5662.23,1057h-62.42c-13,0-19.45-6.46-19.45-19.42V266.27q0-12.48-13.85-12.48h-188.7q-20.81,0-20.81-19.43V184.42q0-19.41,20.81-19.42h506.41q20.77,0,20.78,19.42v49.94q0,19.45-20.78,19.43H5695.54c-9.28,0-13.89,4.16-13.89,12.48v771.31c0,13-6.5,19.42-19.42,19.42"/></clipPath><clipPath id="clip-path-27" transform="translate(-4 -11)"><path class="cls-1" d="M6172,184.42v853.16q0,19.44-19.4,19.42h-62.24q-19.38,0-19.36-19.42V184.42q0-19.41,19.36-19.42h62.24q19.38,0,19.4,19.42"/></clipPath><clipPath id="clip-path-29" transform="translate(-4 -11)"><path class="cls-1" d="M6377,1037.58V987.64q0-25,8.34-36.07L6815.5,264.88v-5.55h-401q-19.44,0-19.41-19.42V184.42q0-19.41,19.41-19.42h491.23c13,0,19.46,6.48,19.46,19.42V251q0,22.2-11.12,38.84L6494.94,957.12v5.55h424.64q19.44,0,19.42,18v55.49q0,20.8-19.42,20.81H6396.42q-19.44,0-19.42-19.42"/></clipPath><clipPath id="clip-path-31" transform="translate(-4 -11)"><path class="cls-1" d="M7592.57,1057h-436.1c-13,0-19.47-6.46-19.47-19.42V184.42c0-12.94,6.46-19.42,19.47-19.42h436.1c12.92,0,19.43,6.48,19.43,19.42v49.94c0,13-6.51,19.43-19.43,19.43H7252.31q-13.94,0-13.92,12.48V546.49q0,12.5,13.92,12.49h297.2c12.93,0,19.43,6.48,19.43,19.42v49.94c0,13-6.5,19.42-19.43,19.42h-297.2q-13.94,0-13.92,12.48V955.73q0,12.48,13.92,12.49h340.26c12.92,0,19.43,6.48,19.43,19.42v49.94c0,13-6.51,19.42-19.43,19.42"/></clipPath></defs><title>logo-securitize</title><g class="cls-3"><g class="cls-4"><rect class="cls-5" width="777" height="866"/></g></g><g class="cls-6"><g class="cls-4"><rect class="cls-5" x="334" y="248" width="786" height="872"/></g></g><g class="cls-7"><g class="cls-4"><rect class="cls-5" x="784" y="61" width="205" height="205"/></g></g><g class="cls-8"><g class="cls-4"><rect class="cls-5" x="128" y="849" width="205" height="205"/></g></g><g class="cls-9"><g class="cls-4"><rect class="cls-10" x="198" y="198" width="725" height="725"/></g></g><g class="cls-11"><g class="cls-4"><rect class="cls-12" x="4273" y="887" width="164" height="164"/></g></g><g class="cls-13"><g class="cls-4"><rect class="cls-10" x="1225" y="149" width="580" height="902"/></g></g><g class="cls-14"><g class="cls-4"><rect class="cls-10" x="2032" y="149" width="485" height="902"/></g></g><g class="cls-15"><g class="cls-4"><rect class="cls-10" x="2712" y="149" width="587" height="902"/></g></g><g class="cls-16"><g class="cls-4"><rect class="cls-10" x="3497" y="149" width="573" height="902"/></g></g><g class="cls-17"><g class="cls-4"><rect class="cls-10" x="4300" y="149" width="579" height="902"/></g></g><g class="cls-18"><g class="cls-4"><rect class="cls-10" x="5079" y="149" width="111" height="902"/></g></g><g class="cls-19"><g class="cls-4"><rect class="cls-10" x="5348" y="149" width="558" height="902"/></g></g><g class="cls-20"><g class="cls-4"><rect class="cls-10" x="6062" y="149" width="111" height="902"/></g></g><g class="cls-21"><g class="cls-4"><rect class="cls-10" x="6368" y="149" width="572" height="902"/></g></g><g class="cls-22"><g class="cls-4"><rect class="cls-10" x="7128" y="149" width="485" height="902"/></g></g></svg>