<?xml version="1.0" encoding="utf-8"?>
<!-- Generator: Adobe Illustrator 24.0.0, SVG Export Plug-In . SVG Version: 6.00 Build 0)  -->
<svg version="1.1" id="Layer_1" xmlns="http://www.w3.org/2000/svg" xmlns:xlink="http://www.w3.org/1999/xlink" x="0px" y="0px"
	 viewBox="0 0 579.2 119" style="enable-background:new 0 0 579.2 119;" xml:space="preserve">
<style type="text/css">
	.st0{fill:#FE0000;}
	.st1{fill:#FE1F1F;}
	.st2{fill:#FE5959;}
	.st3{fill:#FE3232;}
	.st4{fill:#FE2F2F;}
	.st5{fill:#FE0101;}
</style>
<g>
	<path class="st0" d="M-0.3,73c0.5-1.5,0.4-3,0.6-4.5c1.4-11.2,5.1-21.6,11-31.2c8.7-14,20.7-24.3,35.8-30.9C55.4,2.8,64,0.8,73,0.2
		C86.1-0.7,98.7,1.6,110.7,7c10.2,4.6,19,11.2,26.4,19.5c0.7,0.7,1.2,1.6,0.7,2.7c-0.5,1-1.4,1.1-2.4,1.1c-6,0-12,0-18,0
		c-1.3,0-2.6,0.2-3.6,1.1c-1.3,1.1-1.9,2.6-1.5,4.3c0.4,1.8,1.6,3,3.4,3.4c0.6,0.1,1.3,0.2,1.9,0.2c7.6,0,15.2,0,22.9,0
		c3.6,0,5.3,1.7,5.3,5.2c0,4.7,0,9.5,0,14.2c0,0.9,0,1.7-0.4,2.5c-0.8,1.8-2.8,2.9-4.7,2.6c-2.2-0.4-3.7-2.1-3.8-4.4
		c-0.1-2.4,0-4.7,0-7.1c0-1-0.1-2-0.5-2.9c-0.7-1.6-2.1-2.2-3.7-1.5c-1.1,0.4-2,1.2-2.8,2.1C116.5,63,103.1,76.1,89.7,89.1
		c-1.1,1.1-2.2,2.2-3.4,3.2c-1.1,0.9-2.3,1.8-3.9,1.2c-1.5-0.6-1.7-2.1-1.9-3.5c-0.1-0.5-0.1-1.1-0.1-1.6c-0.1-7.3-0.1-14.7-0.2-22
		c0-0.9,0-1.9-0.3-2.8c-0.6-2.2-2.3-2.9-4.3-1.8c-0.9,0.5-1.7,1.2-2.4,1.9C58,78.9,42.5,94,27.1,109.2c-2,2-4,3.9-6,5.9
		c-1.6,1.6-3.2,3.3-5.6,4c-0.2,0-0.3,0-0.5,0c-0.6-0.2-1.2-0.2-1.8,0c-0.1,0-0.2,0-0.2,0c-2.1-0.3-3.4-1.7-4.4-3.5
		C4.1,106.7,1,97.3,0,87.4c-0.1-1.1,0-2.2-0.3-3.3c0-0.9,0-1.8,0-2.7c0.2-0.7,0.2-1.4,0-2c0-0.6,0-1.2,0-1.8C0,77-0.2,76.4-0.2,75.9
		c-0.1-0.6,0.1-1.2-0.1-1.8C-0.3,73.7-0.3,73.3-0.3,73z"/>
	<path class="st1" d="M-0.3,79.3c0.3,0.7,0.4,1.4,0,2C-0.3,80.6-0.3,80-0.3,79.3z"/>
	<path class="st2" d="M-0.3,74.1c0.5,0.5,0.1,1.2,0.2,1.8c-0.1,0.1-0.1,0.1-0.2,0C-0.3,75.3-0.3,74.7-0.3,74.1z"/>
	<path class="st3" d="M13.3,119c0.6-0.4,1.2-0.3,1.8,0C14.5,119,13.9,119,13.3,119z"/>
	<path class="st4" d="M-0.3,75.9c0.1,0,0.1,0,0.2,0c0,0.5,0.2,1.1-0.2,1.6C-0.3,76.9-0.3,76.4-0.3,75.9z"/>
	<path class="st0" d="M216.9,40c-1,4.4-1.9,8.5-2.8,12.7c-0.4,1.7-0.7,2-2.4,2c-3.4,0-3.3,0.3-4.4-3.2c-1.6-5.4-3.3-10.9-4.9-16.3
		c-0.5-1.5-0.2-1.9,1.4-1.9c3.4,0,3.4,0,4.2,3.3c0.9,3.7,1.8,7.4,2.7,11.2c0.1,0.2,0.1,0.4,0.3,0.9c1-4.2,1.9-8.2,2.8-12.2
		c0.7-3.2,0.7-3.2,4-3.2c1.6,0,2,0.3,2.4,1.8c1.1,4.2,2.1,8.4,3.2,12.6c0.1,0.3,0.1,0.5,0.4,0.8c1.1-4.5,2.2-9,3.2-13.4
		c0.3-1.4,0.7-1.7,2.2-1.7c0.6,0,1.2,0,1.8,0c1.2,0,1.5,0.4,1.1,1.6c-0.9,3-1.9,6-2.8,9c-0.9,3.1-1.9,6.1-2.8,9.2
		c-0.3,1.1-1,1.7-2.2,1.7c-0.6,0-1.3,0-1.9,0c-1.5,0-1.8-0.3-2.2-1.7c-1-4-2-7.9-3-11.9C217.2,40.8,217.1,40.6,216.9,40z"/>
	<path class="st0" d="M449.7,49.7c0,1.4,0,2.8,0,4.2c0,1.4-0.7,2-2,2c-0.9,0-1.8,0-2.7,0c-1.5,0-2.1-0.6-2.1-2.1c0-2.7,0-5.5,0-8.2
		c0-0.9-0.3-1.1-1.1-1c-2.4,0.1-4.8,0-7.2,0c-1.4,0-2-0.6-2.1-2.1c0-0.8,0-1.5,0-2.3c0-1.4,0.7-2,2-2c2.4,0,4.9,0,7.3,0
		c0.8,0,1-0.2,1-1c0-2.7,0-5.3,0-8c0-1.8,0.5-2.3,2.4-2.3c0.8,0,1.5,0,2.3,0c1.7,0,2.3,0.6,2.3,2.2c0,2.7,0,5.3,0,8
		c0,0.8,0.1,1.2,1.1,1.1c2.4-0.1,4.7,0,7.1,0c1.5,0,2.2,0.7,2.2,2.2c0,0.7,0,1.4,0,2c0,1.4-0.7,2.1-2.1,2.1c-2.4,0-4.8,0.1-7.1,0
		c-1.1,0-1.2,0.3-1.2,1.3C449.7,47,449.7,48.3,449.7,49.7z"/>
	<path class="st0" d="M191,55.2c-2.6,0-5.1-0.5-7.2-2.1c-1.9-1.4-2.9-3.4-3.1-5.8c-0.1-1.1,0.3-1.5,1.4-1.6c0.4,0,0.8,0,1.1,0
		c2.2,0,2.2,0,2.9,2c1.1,3.2,6.2,4.2,8.4,1.8c1.7-1.8,1.1-4.5-1.3-5.4c-1.8-0.6-3.6-0.5-5.4-1c-0.9-0.2-1.7-0.5-2.6-0.9
		c-2.9-1.4-4.1-3.7-4.1-6.9c0.1-3.2,1.2-5.7,4.2-7c3.4-1.4,6.8-1.4,10.2,0c2.9,1.3,4.3,3.6,4.6,6.7c0.1,1.2-0.3,1.7-1.5,1.7
		c-0.8,0-1.6,0-2.4,0c-0.8,0-1.3-0.3-1.3-1.2c-0.1-2.8-2.7-4.5-6-3.7c-1.6,0.4-2.6,1.6-2.6,3.3c0,1.6,0.8,2.8,2.4,3.2
		c1.6,0.4,3.3,0.6,5,0.9c0.7,0.1,1.3,0.3,2,0.5c3.3,1.1,4.9,3.3,4.9,6.5c0.1,4.1-1.4,6.6-4.7,7.9C194.4,55,192.7,55.2,191,55.2z"/>
	<path class="st0" d="M365.5,96.7c-1.9,1.7-4,2.2-6.3,2c-3.4-0.2-5.4-2-5.5-5.4c-0.1-4.3,0-8.5-0.1-12.8c0-0.9,0.5-1.4,1.4-1.4
		c0.7,0,1.4,0,2,0c1.3,0,1.6,0.3,1.6,1.6c0,3.2,0,6.3,0,9.5c0,0.6,0,1.1,0.1,1.7c0.3,2,1.5,2.9,3.6,2.5c0.6-0.1,1.1-0.3,1.7-0.7
		c1-0.6,1.5-1.3,1.4-2.5c-0.1-3.4,0-6.8,0-10.2c0-1.7,0.3-1.9,1.9-1.9c3.2,0,3.2,0,3.2,3.2c0,5.4,0,10.8,0,16.3c0,0.9,0,1.8-0.2,2.7
		c-0.5,2.4-1.9,4-4.2,4.8c-3,1-6.1,0.9-9.1-0.3c-1.7-0.7-3-1.8-3.2-3.8c-0.2-1.3,0.3-1.7,1.5-1.8c0.6,0,1.1,0,1.7,0
		c0.8,0,1.3,0.3,1.7,1c0.7,1.4,2.3,1.9,4.3,1.5c1.4-0.3,2.2-1.2,2.3-2.8C365.5,99,365.5,97.9,365.5,96.7z"/>
	<path class="st0" d="M244.7,80.7c0.4,0.1,0.6-0.2,0.8-0.3c2.6-1.9,5.3-2,8.1-0.7c2.2,1,3,3,3,5.2c0.1,4.8,0.1,9.6,0.1,14.4
		c0,0.2,0,0.4-0.1,0.6c-0.9,1.5-2.4,0.7-3.7,0.8c-0.9,0.1-1.3-0.6-1.3-1.5c0-4,0-7.9,0-11.9c0-0.5,0-1,0-1.5c-0.2-2.2-1.3-3-3.4-2.7
		c-1.3,0.1-2.3,0.9-3.2,1.8c-0.3,0.3-0.2,0.8-0.2,1.2c0,4.2,0,8.4,0,12.6c0,1.7-0.3,2-2,2c-3.1,0-3.1,0-3.1-3.1c0-7.9,0-15.8,0-23.7
		c0-1.6,0.3-1.9,1.9-1.9c3.2,0,3.2,0,3.2,3.1C244.7,77,244.7,78.8,244.7,80.7z"/>
	<path class="st0" d="M567,81.2c1.7-1.5,3.4-2.4,5.6-2.3c4,0.1,6.3,2,6.4,6c0.2,4.8,0.1,9.6,0.1,14.4c0,0.8-0.5,1.3-1.2,1.3
		c-0.9,0.1-1.7,0.1-2.6,0c-1.1-0.1-1.3-0.9-1.3-1.8c0-3.8,0-7.6,0-11.4c0-0.5,0-1.1,0-1.6c-0.2-2.3-1.6-3.3-3.9-2.7
		c-1.9,0.5-2.8,1.6-2.8,3.6c0,4,0,8,0,12c0,1.6-0.4,1.9-1.9,1.9c-3.2,0-3.2,0-3.2-3.2c0-5.4,0-10.8,0-16.3c0-1.7,0.3-2,2-2
		C566.5,79.2,566.7,79.4,567,81.2z"/>
	<path class="st0" d="M367.4,35.2c1.6-1.5,3.4-2.3,5.6-2.3c4,0.1,6.2,2.1,6.4,6.1c0.2,4.8,0.1,9.6,0.1,14.3c0,0.9-0.5,1.4-1.4,1.4
		c-0.5,0-1,0-1.5,0c-2,0-2.2-0.2-2.2-2.2c0-3.7,0-7.4,0-11.1c0-0.6,0-1.2-0.1-1.8c-0.2-1.8-1.2-2.7-3-2.6c-1.4,0.1-2.4,0.8-3.3,1.7
		c-0.4,0.3-0.3,0.8-0.3,1.2c0,4.3,0,8.5,0,12.8c0,1.6-0.3,1.9-1.9,1.9c-3.2,0-3.2,0-3.2-3.2c0-5.3,0-10.6,0-15.9
		c0-1.8,0.3-2.2,1.4-2.3C366.4,33,367,33.4,367.4,35.2z"/>
	<path class="st0" d="M265.3,81.2c1.7-1.6,3.6-2.4,5.8-2.3c3.9,0.2,6.1,2.1,6.2,6c0.2,4.8,0.1,9.6,0.1,14.4c0,0.1,0,0.3,0,0.4
		c-0.8,1.7-2.4,0.8-3.6,0.9c-0.9,0.1-1.4-0.5-1.4-1.4c0-1.4,0-2.9,0-4.3c0-2.8,0-5.6,0-8.4c0-1.2,0-2.6-1.4-3.2
		c-1.4-0.6-2.8-0.3-4.1,0.5c-0.9,0.6-1.4,1.3-1.3,2.5c0.1,4.1,0,8.2,0,12.3c0,1.6-0.3,1.9-1.9,2c-3.2,0-3.2,0-3.2-3.2
		c0-5.3,0-10.5,0-15.8c0-2.2,0.2-2.4,2.5-2.4C264.8,79.2,265,79.4,265.3,81.2z"/>
	<path class="st0" d="M325.5,35.1c0.3,0,0.5-0.3,0.7-0.5c2.4-1.9,5.1-2.1,7.9-1.1c2.5,0.9,3.4,3.1,3.4,5.5c0.1,4.8,0.1,9.6,0.1,14.3
		c0,0.9-0.4,1.4-1.4,1.4c-3.9,0-3.7,0.4-3.7-3.4c0-3.3,0-6.6,0-9.9c0-0.5,0-0.9,0-1.4c-0.2-2.6-2-3.7-4.5-2.6
		c-1.4,0.6-2.4,1.4-2.3,3.3c0.2,4,0.1,8,0,12.1c0,1.5-0.3,1.9-1.8,1.9c-3.3,0-3.3,0-3.3-3.3c0-5.3,0-10.6,0-15.9
		c0-1.7,0.3-2.1,1.4-2.2C324.5,33,325.2,33.4,325.5,35.1z"/>
	<path class="st0" d="M270.3,32.9c1.8,0,3.6,0.3,5.2,1.2c1.7,1,2.7,2.5,3,4.4c0.1,1.1-0.2,1.5-1.4,1.6c-0.6,0-1.1,0-1.7,0
		c-1,0.1-1.6-0.2-1.8-1.4c-0.3-1.6-2-2.4-4-2c-1.6,0.3-2.3,1.2-2.2,2.8c0.1,1.1,0.8,1.6,1.7,2c1.2,0.5,2.5,0.6,3.8,0.9
		c1.1,0.2,2.1,0.6,3.1,1c4.1,1.8,3.6,7.8,1,9.8c-3.3,2.6-10.1,2.4-13.2-0.4c-1-0.9-1.6-2.1-1.8-3.4c-0.1-1.1,0.2-1.5,1.4-1.6
		c0.5,0,0.9,0,1.4,0c1.2-0.1,2.1,0,2.2,1.5c0.1,0.6,0.6,1,1.1,1.3c1.3,0.7,2.7,0.8,4.2,0.4c1-0.3,1.6-1.1,1.7-2.1
		c0.1-1.1-0.5-1.8-1.4-2.2c-1.2-0.6-2.6-0.8-3.9-1.1c-1.2-0.2-2.3-0.5-3.4-1.1c-2.2-1.2-3.1-3-3-5.5c0.1-2.4,1.1-4.2,3.3-5.2
		C267.1,33.1,268.7,32.9,270.3,32.9z"/>
	<path class="st0" d="M416,101.1c-2.2,0-4.3-0.4-6.1-1.6c-1.5-1-2.5-2.4-2.6-4.3c-0.1-0.9,0.4-1.3,1.3-1.4c0.6,0,1.1,0,1.7,0
		c1.1-0.1,1.8,0.1,2,1.4c0.1,0.8,0.8,1.3,1.6,1.6c1.1,0.5,2.3,0.6,3.5,0.3c1.1-0.3,1.9-1.1,1.9-2.2c0.1-1.1-0.5-1.8-1.5-2.3
		c-1.3-0.6-2.7-0.8-4.1-1.1c-0.6-0.1-1.2-0.3-1.9-0.5c-3.1-1.1-4.3-3-4.2-6.4c0.1-2.7,1.7-4.6,4.6-5.4c2.5-0.7,5.1-0.7,7.5,0.3
		c2.2,0.9,3.7,2.5,4,5c0.1,1-0.3,1.5-1.3,1.5c-0.5,0-1.1,0-1.6,0c-1.1,0.1-1.7-0.2-1.9-1.5c-0.2-1.4-1.7-2.1-3.6-1.9
		c-1.5,0.1-2.3,0.8-2.5,2.1c-0.2,1.2,0.3,2.1,1.5,2.6c1.2,0.5,2.5,0.7,3.7,1c1.2,0.3,2.3,0.6,3.4,1.1c4.2,1.9,3.6,8,0.8,9.9
		C420.2,100.7,418.2,101,416,101.1z"/>
	<path class="st0" d="M250.7,32.9c2,0,4,0.3,5.7,1.5c1.5,1.1,2.5,2.5,2.5,4.4c0,0.8-0.3,1.3-1.2,1.3c-0.6,0-1.2,0-1.8,0
		c-1,0.1-1.7-0.2-1.9-1.4c-0.2-1.4-1.4-1.9-2.7-2c-1.2-0.1-2.4,0-3.2,1.2c-0.8,1.3-0.3,2.8,1,3.4c1.3,0.6,2.7,0.8,4.1,1.1
		c0.9,0.2,1.8,0.5,2.7,0.8c1.9,0.8,3.2,2.2,3.4,4.4c0.2,2.4-0.4,4.6-2.5,6c-3.2,2.2-9.3,2-12.3-0.4c-1.3-1-2.1-2.3-2.2-3.9
		c-0.1-0.9,0.3-1.4,1.3-1.4c0.5,0,0.9,0,1.4,0c1.2-0.1,2.2,0,2.3,1.5c0.1,0.7,0.7,1.1,1.3,1.4c1.2,0.6,2.5,0.7,3.8,0.4
		c1.2-0.3,1.9-1.2,1.9-2.3c0-1.1-0.6-1.8-1.5-2.3c-1.2-0.5-2.4-0.7-3.7-1c-1.2-0.2-2.3-0.5-3.3-1c-2.3-1.2-3.3-3.1-3.2-5.6
		c0.1-2.4,1.1-4.2,3.3-5.2C247.5,33.1,249.1,32.9,250.7,32.9z"/>
	<path class="st0" d="M435.6,101.1c-2.4,0-4.5-0.4-6.3-1.7c-1.4-0.9-2.2-2.2-2.5-3.9c-0.2-1.2,0.2-1.7,1.4-1.7c0.6,0,1.1,0,1.7,0
		c0.9,0,1.6,0.2,1.7,1.3c0.1,0.9,0.8,1.4,1.6,1.8c1.2,0.5,2.4,0.6,3.6,0.2c1.1-0.3,1.7-1,1.8-2.2c0.1-1.1-0.5-1.8-1.5-2.3
		c-1.3-0.6-2.7-0.8-4.1-1.1c-0.7-0.2-1.3-0.3-2-0.5c-3-1.1-4.3-3-4.2-6.2c0.1-2.8,1.7-4.7,4.6-5.5c2.5-0.7,5.1-0.7,7.5,0.3
		c2.2,0.9,3.7,2.4,4,4.9c0.2,1.2-0.2,1.6-1.4,1.6c-0.4,0-0.8,0-1.2,0c-1.2,0.1-2-0.1-2.2-1.5c-0.2-1.5-2.2-2.2-4.1-1.8
		c-1.3,0.3-2.1,1.3-2,2.7c0,1.1,0.7,1.6,1.6,2c1.1,0.5,2.4,0.7,3.6,0.9c1,0.2,2.1,0.5,3,0.9c1.9,0.8,3.2,2.1,3.4,4.3
		c0.2,2.5-0.3,4.6-2.5,6.1C439.5,100.8,437.5,101.1,435.6,101.1z"/>
	<path class="st0" d="M292.3,41.4c0-3.8,0-7.7,0-11.5c0-1.6,0.3-1.9,1.9-1.9c4.3,0,8.6,0,12.9,0c1.7,0,1.9,0.3,1.9,2
		c0,0.3,0,0.5,0,0.8c-0.1,1.2-0.4,1.5-1.6,1.6c-3,0-6,0-8.9,0c-0.8,0-0.9,0.2-0.9,0.9c0,1.9,0.1,3.8,0,5.8c0,0.8,0.3,1,1,1
		c2.3,0,4.5,0,6.8,0c1.4,0,1.7,0.4,1.7,1.8c0,0.2,0,0.4,0,0.6c0,1.7-0.3,2-2.1,2c-2.1,0-4.2,0-6.3,0c-0.8,0-1.2,0.1-1.1,1.1
		c0.1,2.6,0,5.1,0,7.7c0,1.4-0.3,1.7-1.7,1.7c-0.5,0-1.1,0-1.6,0c-1.7,0-2-0.2-2-1.9c0-3.4,0-6.9,0-10.3
		C292.3,42.1,292.3,41.7,292.3,41.4z"/>
	<path class="st0" d="M383.2,44c0-1.1,0-2.3,0-3.4c0.1-4,2.5-6.7,6.4-7.4c2.2-0.4,4.4-0.3,6.4,0.5c2.7,1,4.2,3.1,4.4,6
		c0.1,1.1-0.4,1.6-1.5,1.7c-0.4,0-0.8,0-1.2,0c-2,0-2,0-2.4-2c-0.3-1.2-1.3-2.1-2.7-2.2c-1.8-0.2-3.4,0.3-3.8,1.7
		c-1,3.5-1,7.1,0,10.5c0.4,1.4,2.2,2,3.8,1.7c1.7-0.3,2.5-1.1,2.7-2.7c0.1-1.1,0.6-1.6,1.7-1.5c0.6,0,1.3,0,1.9,0
		c1.2,0,1.6,0.5,1.5,1.7c-0.2,3-2.1,5.3-5.2,6.2c-2,0.6-4.1,0.7-6.1,0.2c-3.7-0.9-5.9-3.5-6-7.3C383.1,46.3,383.2,45.1,383.2,44z"/>
	<path class="st0" d="M218.6,89.4c0-0.9-0.1-2.3,0.1-3.7c0.5-3.5,2.5-5.7,6-6.5c2.4-0.5,4.8-0.4,7.1,0.6c2.6,1.1,3.9,3.1,4.1,5.8
		c0.1,1.1-0.3,1.6-1.5,1.6c-0.8,0-1.5,0-2.3,0c-0.8,0-1.2-0.4-1.3-1.2c-0.4-2.3-1.5-3.2-3.6-3.1c-2,0.1-3.3,1.3-3.4,3.5
		c-0.1,2.4-0.1,4.7,0,7.1c0.2,2.8,2.8,4.3,5.4,3c1-0.5,1.5-1.2,1.6-2.3c0.2-1.5,0.4-1.6,1.9-1.6c0.5,0,1.1,0,1.6,0
		c1.3,0,1.8,0.5,1.6,1.8c-0.3,3.1-2.1,5-4.9,6c-2.2,0.7-4.4,0.8-6.7,0.2c-3.5-0.9-5.5-3.5-5.7-7.2C218.6,92.2,218.6,91.1,218.6,89.4
		z"/>
	<path class="st0" d="M467.8,90c0-1.4-0.1-2.8,0-4.2c0.3-3.4,2.4-5.7,5.6-6.5c2.7-0.7,5.4-0.6,7.9,0.7c2.4,1.2,3.6,3.2,3.7,5.8
		c0,1-0.4,1.5-1.4,1.5c-0.3,0-0.6,0-0.9,0c-0.7-0.1-1.5,0.2-2.2-0.2c-0.8-0.4-0.5-1.3-0.7-1.9c-0.4-1.3-1.4-1.9-2.7-2.1
		c-1.4-0.2-2.7,0.1-3.6,1.4c-0.2,0.3-0.5,0.7-0.5,1.1c-0.4,3-0.5,6,0,9c0.4,1.9,1.8,2.6,3.9,2.5c1.8-0.1,2.7-1,3-3
		c0.1-0.8,0.5-1.2,1.3-1.2c0.8,0,1.6,0,2.4,0c1,0,1.4,0.6,1.4,1.5c-0.1,2.9-2,5.4-5,6.3c-2.2,0.7-4.5,0.7-6.8,0.1
		c-3.4-1-5.4-3.6-5.5-7.1C467.8,92.3,467.8,91.1,467.8,90C467.8,90,467.8,90,467.8,90z"/>
	<path class="st0" d="M191.6,89.1c0,3.2,0,6.5,0,9.7c0,1.4-0.4,1.8-1.8,1.8c-0.6,0-1.2,0-1.8,0c-1.4,0-1.8-0.4-1.8-1.8
		c0-2.6,0-5.1,0-7.7c0-4,0-8.1,0-12.1c0-0.8-0.2-1.1-1-1c-1.5,0.1-3,0-4.5,0c-1.1,0-1.5-0.4-1.6-1.6c0-0.4,0-0.8,0-1.1
		c0-1.2,0.4-1.6,1.7-1.6c5.4,0,10.8,0,16.2,0c1.2,0,1.6,0.4,1.6,1.6c0,0.4,0,0.8,0,1.2c0,1-0.5,1.4-1.5,1.4c-1.5,0-3,0-4.5,0
		c-0.8,0-1.1,0.2-1.1,1C191.7,82.5,191.6,85.8,191.6,89.1z"/>
	<path class="st0" d="M519,89.3c0-1.8,0-3.5,0-5.3c0-0.6,0-0.9-0.8-1c-1.1-0.1-1.3-0.7-1.2-2.3c0.1-0.9,0.5-1.5,1.5-1.4
		c0.8,0.1,0.9-0.3,0.9-0.9c0-0.9,0.2-1.9,0.2-2.8c0.1-1.2,0.6-1.6,1.7-1.7c0.5,0,0.9,0,1.4,0c1,0,1.5,0.5,1.5,1.5c0,1.1,0,2.1,0,3.2
		c0,0.6,0.1,0.8,0.8,0.8c1.1,0,2.2,0,3.3,0c1.2,0,1.5,0.4,1.5,1.6c0,1.6-0.3,2.1-1.4,2.2c-1.1,0.1-2.3,0-3.4,0
		c-0.5,0-0.7,0.1-0.7,0.7c0,3.4,0,6.8,0,10.2c0.1,2.4,1.4,3.4,3.8,3.1c0.9-0.1,1.9-0.5,2,1c0.2,2.2-0.2,2.8-1.9,3c-1,0.1-2,0.1-3,0
		c-3.5-0.3-5.7-2.4-5.9-5.9c-0.1-1.9,0-3.8,0-5.7C519.1,89.3,519.1,89.3,519,89.3z"/>
	<path class="st0" d="M302.3,85.1c0-3.8,0-7.6,0-11.4c0-1.4,0.3-1.8,1.7-1.8c3.6,0,3.4-0.1,3.4,3.3c0,6.5,0,13,0,19.5
		c0,1.7,0,1.7,1.6,2.2c0.2,0.1,0.4,0.1,0.5,0.3c0.8,0.9,0.2,3.3-1,3.6c-1.3,0.3-2.6,0.2-3.9-0.2c-1.8-0.6-2.2-2.2-2.2-3.8
		C302.3,92.9,302.3,89,302.3,85.1C302.3,85.1,302.3,85.1,302.3,85.1z"/>
	<path class="st0" d="M316.8,44c0,2.9,0,5.9,0,8.8c0,1.6-0.3,1.9-1.9,1.9c-0.5,0-1,0-1.5,0c-1.3,0-1.7-0.4-1.7-1.8
		c0-4.9,0-9.9,0-14.8c0-0.6,0.1-1.2-0.8-1.2c-0.5,0-0.8-0.4-0.8-0.9c0-0.5,0-1,0-1.5c0-0.9,0.4-1.3,1.2-1.3c1.3,0,2.6,0,4,0
		c1.2,0,1.6,0.5,1.6,1.7C316.8,38,316.8,41,316.8,44z"/>
	<path class="st0" d="M239.2,43.9c0,3,0,6,0,9c0,1.4-0.3,1.7-1.7,1.7c-3.5,0-3.4,0.2-3.4-3.3c0-4.4,0-8.9,0-13.3
		c0-0.6,0.1-1-0.8-1.1c-1.3-0.2-0.9-1.4-0.9-2.2c0-0.8,0.2-1.4,1.1-1.4c1.5-0.1,3-0.1,4.5,0c1,0,1.2,0.7,1.2,1.6
		C239.2,37.9,239.2,40.9,239.2,43.9z"/>
	<path class="st0" d="M493.8,90c0,3,0,5.9,0,8.9c0,1.4-0.4,1.7-1.7,1.8c-3.3,0.1-3.3,0.1-3.3-3.2c0-4.5,0-9,0-13.4
		c0-0.6,0-1.1-0.8-1.1c-0.5,0-0.8-0.4-0.8-0.9c-0.1-0.6-0.1-1.2,0-1.8c0.1-0.7,0.6-1,1.3-1c1.3,0,2.6,0,3.8,0c1.3,0,1.6,0.4,1.6,1.6
		C493.8,83.9,493.8,87,493.8,90z"/>
	<path class="st0" d="M537.3,89.9c0,3,0,6,0,9c0,1.4-0.4,1.7-1.7,1.7c-3.3,0.1-3.3,0.1-3.3-3.2c0-4.5,0-9,0-13.4
		c0-0.6,0-1.1-0.8-1.1c-0.5,0-0.8-0.4-0.8-0.9c-0.1-0.6-0.1-1.2,0-1.8c0.1-0.6,0.5-0.9,1.1-0.9c1.5,0,2.9,0,4.4,0
		c1,0,1.3,0.6,1.3,1.5C537.3,83.8,537.3,86.9,537.3,89.9z"/>
	<path class="st5" d="M534.6,72c2,0,2.9,0.9,2.9,2.6c0,1.7-1,2.6-3,2.6c-1.9,0-2.9-0.9-2.9-2.6C531.6,72.9,532.7,72,534.6,72z"/>
	<path class="st5" d="M491.1,72c2,0,2.9,0.9,2.9,2.6c0,1.7-1,2.6-3,2.6c-1.9,0-2.9-0.9-2.9-2.6C488.2,72.9,489.2,72,491.1,72z"/>
	<path class="st5" d="M314,31.2c-1.9,0-2.8-0.8-2.9-2.5c0-1.7,1-2.7,2.9-2.7c1.9,0,3,1,2.9,2.7C317,30.3,316,31.2,314,31.2z"/>
	<path class="st0" d="M236.5,31.2c-1.9,0-2.9-0.8-2.9-2.5c0-1.7,1-2.7,2.9-2.7c1.9,0,3,0.9,3,2.6C239.5,30.4,238.5,31.2,236.5,31.2z
		"/>
	<path class="st0" d="M349.7,95.9c0-5,0-9.9,0-14.9c0-0.6,0-1.3-0.7-1.7c-1.5-0.7-3.5,0.1-4.2,1.7c-1-0.8-2-1.5-3.2-1.9
		c-4.3-1.4-8.1,0.6-8.9,4.7c-0.6,3.3-0.5,6.7,0,10c0.5,3,2.1,4.4,5.1,4.9c2.5,0.4,4.7-0.2,6.8-2c0,1.1,0,1.9,0,2.8
		c-0.1,1.6-0.9,2.7-2.3,3.1c-1.9,0.5-3.7,0-4.5-1.4c-0.5-0.8-1-1.2-1.9-1.1c-0.5,0-1.1,0-1.6,0c-1.2,0-1.6,0.5-1.5,1.6
		c0.2,2,1.5,3.2,3.3,3.9c2.6,1.1,5.3,1.2,8,0.6c3.6-0.8,5.4-3.1,5.5-6.8C349.7,98.4,349.7,97.2,349.7,95.9z M343.1,94
		c-0.9,0.5-1.9,0.8-3,0.7c-1.2-0.1-2-0.7-2.2-1.9c-0.4-2.6-0.4-5.2,0-7.7c0.3-1.7,1.9-2.4,3.9-1.8c0.8,0.2,1.6,0.7,2.2,1.3
		c0.5,0.4,0.7,0.8,0.7,1.4c-0.1,1,0,2,0,3c0,0.8-0.1,1.5,0,2.3C344.9,92.6,344.2,93.4,343.1,94z"/>
	<path class="st0" d="M405.6,98.4c-2.5-7.1-5.1-14.3-7.6-21.4c-1.1-3.2-1.1-3.1-4.5-3.1c-1.2,0-1.9,0.5-2.3,1.7
		c-0.6,1.9-1.3,3.8-2,5.7c-2.1,5.9-4.2,11.8-6.3,17.7c-0.5,1.3-0.2,1.7,1.2,1.7c0.7,0,1.4,0,2.1,0c1,0,1.7-0.5,2-1.5
		c0.4-1.4,0.9-2.8,1.4-4.3c0.2-0.6,0.4-0.7,1-0.7c2.4,0,4.7,0.1,7.1,0c0.8,0,1.1,0.3,1.3,1c0.3,1,0.6,2,1,3c0.8,2.4,0.9,2.5,3.5,2.5
		c0.2,0,0.4,0,0.6,0C406.2,100.7,406.3,100.5,405.6,98.4z M395,90.1c-1,0-2,0-2.9,0c-0.8,0-0.9-0.2-0.7-0.9c0.9-2.9,1.8-5.8,2.7-8.7
		c0.1,0,0.2,0,0.2,0c0.8,2.4,1.6,4.9,2.4,7.3C397.4,90.1,397.4,90.1,395,90.1z"/>
	<path class="st0" d="M358.6,34.9c0-0.5-0.1-1.1-0.6-1.4c-1.5-0.9-3.8,0-4.2,1.7c-1-0.8-1.9-1.5-3.1-1.9c-4.5-1.5-8.5,0.6-9.1,5.1
		c-0.5,3.7-0.4,7.5,0,11.3c0.2,2.1,1.2,3.9,3.3,4.8c2.8,1.1,5.5,0.9,8-0.9c0.3-0.2,0.5-0.6,0.9-0.6c0.3,1.6,0.6,1.8,2.2,1.8
		c0.3,0,0.7,0,1,0c1.1,0,1.6-0.4,1.6-1.6C358.6,47,358.6,40.9,358.6,34.9z M352.7,49.6c-1,0.8-2.2,1.4-3.5,1.2
		c-1.4-0.1-2.3-0.8-2.5-2.1c-0.4-3.1-0.4-6.3,0-9.4c0.2-1.5,1.2-2.2,2.8-2.2c1.5,0,2.6,0.8,3.7,1.7c0.3,0.3,0.3,0.7,0.3,1
		c0,1.4,0,2.8,0,4.2c0,1.3-0.1,2.6,0,3.9C353.6,48.7,353.3,49.2,352.7,49.6z"/>
	<path class="st0" d="M514.9,80.6c0-0.5-0.1-1-0.6-1.2c-1.5-0.8-3.6,0-4.2,1.7c-1-0.9-2-1.6-3.2-1.9c-4.4-1.4-8.4,0.8-8.9,5
		c-0.5,3.8-0.4,7.7,0,11.6c0.4,3.2,2.5,5,5.8,5.2c2.4,0.2,4.5-0.6,6.3-2.2c0.7,1.9,0.8,1.9,2.8,1.9c0.2,0,0.5,0,0.7,0
		c0.9-0.1,1.4-0.5,1.4-1.4C514.9,93,514.9,86.8,514.9,80.6z M508.9,95.6c-0.8,0.6-1.6,1-2.5,1.2c-1.9,0.3-3.3-0.6-3.4-2.5
		c-0.2-2.9-0.2-5.8,0-8.7c0.1-2,1.6-2.9,3.7-2.5c1.1,0.2,2,0.8,2.8,1.6c0.4,0.3,0.4,0.7,0.4,1.1c0,1.4,0,2.8,0,4.2
		c0,1.2-0.1,2.5,0,3.7C509.9,94.6,509.6,95.2,508.9,95.6z"/>
	<path class="st0" d="M203.9,90.8c1.6,0.1,3.2,0,4.9,0c1.6,0,3.2,0,4.9,0c1.2,0,1.6-0.4,1.6-1.6c0-0.9,0-1.9,0-2.8
		c-0.2-3.7-2.4-6.4-6-7.2c-1.2-0.3-2.4-0.4-3.6-0.3c-4.4,0.3-7.3,2.7-7.7,6.8c-0.3,2.8-0.2,5.7,0,8.6c0.2,2.1,1.1,3.9,2.9,5.2
		c3.3,2.4,9,2.2,12-0.4c1.3-1.1,2.2-2.5,2.3-4.3c0-0.9-0.3-1.4-1.2-1.4c-0.9,0-1.7,0-2.6,0c-0.7,0-1.1,0.3-1.2,1.1
		c-0.3,1.7-1.2,2.5-3.1,2.6c-1.9,0.1-3.1-0.6-3.7-2.1c-0.4-1-0.2-2-0.3-3C202.8,91.1,203,90.8,203.9,90.8z M202.8,87.2
		c0.1-1.4,0.2-2.8,1.5-3.7c1.3-0.9,2.7-0.9,4.1-0.2c1.1,0.6,2,2.7,1.7,3.9c-0.1,0.4-0.4,0.4-0.7,0.4c-1,0-2,0-2.9,0c0,0,0,0,0,0.1
		c-1,0-2,0-3.1,0C203.1,87.7,202.8,87.7,202.8,87.2z"/>
	<path class="st0" d="M409.8,44.9c1.6,0.1,3.2,0,4.9,0c1.7,0,3.4,0,5.1,0c1,0,1.5-0.5,1.5-1.5c0-1,0-2,0-2.9
		c-0.3-3.8-2.3-6.4-5.8-7.3c-1.5-0.4-3-0.4-4.5-0.2c-4.4,0.5-7,3.4-7.1,7.8c0,2.3,0,4.6,0,6.9c0,1.9,0.7,3.7,2.1,5.1
		c3.5,3.5,10.8,3,13.8-0.8c0.8-1,1.3-2.1,1.3-3.4c0-0.7-0.4-1.1-1.1-1.1c-0.9,0-1.7,0-2.6,0c-0.8,0-1.3,0.3-1.3,1.1
		c0,0.6-0.3,1.2-0.8,1.6c-1.2,1-2.6,1.1-4,0.8c-1.4-0.4-2-1.4-2.2-2.7c-0.1-0.8-0.1-1.6-0.2-2.4C408.9,45.1,409.1,44.9,409.8,44.9z
		 M409,40.7c0.2-2.5,1.4-3.7,3.6-3.8c2.4-0.1,4,1.8,3.7,4.2c-0.1,0.5-0.4,0.5-0.7,0.5c-1,0-2,0-3,0c0,0,0,0.1,0,0.1
		c-0.9,0-1.7-0.1-2.6,0C409,41.8,408.9,41.5,409,40.7z"/>
	<path class="st0" d="M298.5,89.9C298.5,89.9,298.5,89.9,298.5,89.9c0-1.2,0-2.5,0-3.7c-0.1-3.3-2.2-5.9-5.4-6.9
		c-1.4-0.4-2.7-0.5-4.1-0.4c-4.5,0.3-7.3,2.8-7.8,7c-0.3,2.8-0.3,5.7,0.1,8.6c0.4,3.3,2.6,5.6,5.9,6.3c1.4,0.3,2.8,0.3,4.3,0.2
		c4.3-0.4,7-3.4,7.1-7.7C298.5,92.2,298.5,91,298.5,89.9z M293.3,93.7c-0.2,2.2-1.5,3.3-3.5,3.3c-2,0-3.3-1.2-3.5-3.4
		c-0.1-1.2,0-2.5,0-3.7c0,0,0,0,0,0c0-1.1-0.1-2.3,0-3.4c0.1-2.2,1.5-3.6,3.5-3.6c2,0,3.3,1.2,3.5,3.4
		C293.5,88.8,293.5,91.2,293.3,93.7z"/>
	<path class="st0" d="M558.5,86.6c-0.2-4-2.3-6.6-6-7.5c-1.2-0.3-2.4-0.4-3.6-0.3c-5,0.3-7.8,3.3-7.8,8.2c0,2.2,0,4.4,0,6.7
		c0.1,3.3,2.1,5.8,5.2,6.8c1.7,0.5,3.4,0.6,5.1,0.4c4-0.5,6.5-2.9,6.9-6.9c0.1-1.3,0-2.7,0-4.1c0,0,0.1,0,0.1,0
		C558.5,88.9,558.5,87.8,558.5,86.6z M553.1,94.4c-0.5,1.7-1.6,2.6-3.3,2.6c-1.8,0-3.1-0.9-3.4-2.7c-0.4-2.9-0.5-5.8,0-8.7
		c0.3-1.7,1.7-2.7,3.4-2.7c1.7,0,2.9,0.9,3.3,2.6c0.1,0.3,0.2,0.5,0.2,0.8c0,1.2,0,2.4,0,3.6C553.3,91.4,553.5,92.9,553.1,94.4z"/>
	<path class="st0" d="M464.2,90C464.2,90,464.2,90,464.2,90c0-1.3,0-2.6,0-4c-0.2-3.2-2.2-5.8-5.3-6.7c-1.4-0.4-2.8-0.5-4.2-0.4
		c-4.7,0.3-7.5,3-7.8,7.6c-0.1,2.6-0.2,5.2,0.1,7.8c0.3,3.2,2.1,5.2,5.1,6.3c1.7,0.6,3.5,0.6,5.3,0.4c4.2-0.5,6.8-3.4,6.9-7.6
		C464.2,92.2,464.2,91.1,464.2,90z M458.9,94.2c-0.3,1.7-1.5,2.7-3.2,2.7c-1.9,0.1-3.1-0.8-3.6-2.6c-0.4-1.5-0.1-3-0.2-4.5
		c0.1-1.4-0.1-2.9,0.2-4.3c0.5-1.8,1.7-2.7,3.5-2.7c1.7,0,3,1,3.3,2.8C459.3,88.5,459.3,91.4,458.9,94.2z"/>
	<path class="st0" d="M328.9,90C328.8,90,328.8,90,328.9,90c0-1.3,0-2.6,0-4c-0.2-3.3-2.2-5.8-5.4-6.8c-1.4-0.4-2.7-0.5-4.1-0.4
		c-4.7,0.3-7.6,3-7.8,7.7c-0.1,2.6-0.2,5.1,0.1,7.7c0.4,3.2,2.1,5.3,5.2,6.3c1.7,0.6,3.4,0.6,5.1,0.4c4.2-0.5,6.8-3.4,6.9-7.5
		C328.9,92.3,328.9,91.1,328.9,90z M323.6,94.1c-0.3,1.9-1.4,2.8-3.2,2.9c-2,0.1-3.1-0.8-3.6-2.7c-0.4-1.4-0.1-2.9-0.2-4.4
		c0.1-1.4-0.1-2.9,0.2-4.3c0.5-1.8,1.7-2.8,3.5-2.7c1.8,0,3.1,1,3.3,2.9C324,88.5,324,91.3,323.6,94.1z"/>
</g>
</svg>
