<svg width="121" height="48" viewBox="0 0 121 48" fill="none" xmlns="http://www.w3.org/2000/svg">
<path d="M56.0207 47.5842H4.70243C2.44313 47.5842 0.667969 45.829 0.667969 43.5951V4.98034C0.667969 2.74643 2.44313 0.991211 4.70243 0.991211H56.0207C58.28 0.991211 60.0552 2.74643 60.0552 4.98034V43.5951C60.0552 45.7492 58.28 47.5842 56.0207 47.5842Z" fill="#2C3E50"/>
<path d="M31.4922 9.0498H41.417C42.8694 9.0498 44.1604 9.28915 45.2093 9.68807C46.2583 10.087 47.1459 10.6455 47.7914 11.2837C48.4369 11.922 48.921 12.7198 49.2438 13.5974C49.5666 14.475 49.7279 15.4324 49.7279 16.3898C49.7279 17.1876 49.5666 17.9854 49.3245 18.7833C49.0824 19.5013 48.679 20.2194 48.1948 20.7778C47.7107 21.4161 47.1459 21.8948 46.5004 22.2937C45.8549 22.6926 45.1287 22.932 44.2411 23.0915C45.048 23.1713 45.8549 23.4107 46.6618 23.7298C47.4686 24.0489 48.2755 24.4478 48.921 25.0063C49.6472 25.5648 50.2121 26.3626 50.6155 27.2402C51.0997 28.1976 51.261 29.3146 51.261 30.6709C51.261 32.2665 50.9383 33.543 50.3735 34.5802C49.8086 35.6174 48.921 36.4152 47.9528 37.0535C46.9038 37.6917 45.6935 38.0906 44.3218 38.33C42.95 38.5693 41.4976 38.6491 39.9646 38.6491H31.4922V9.0498ZM40.2066 22.2937C41.0135 22.2937 41.8204 22.2139 42.708 21.9746C43.5956 21.7352 44.3218 21.4161 45.048 20.9374C45.7742 20.4587 46.339 19.9002 46.7424 19.1024C47.2266 18.3844 47.388 17.5068 47.388 16.4696C47.388 15.2728 47.1459 14.3155 46.7424 13.5974C46.339 12.8794 45.7742 12.3209 45.048 11.922C44.3218 11.5231 43.5956 11.2837 42.708 11.2039C41.8204 11.1242 41.0135 11.0444 40.2066 11.0444H33.6708V22.2139H40.2066V22.2937ZM39.5611 36.7343C40.6908 36.7343 41.8204 36.6546 42.9501 36.5748C44.0797 36.495 45.1287 36.2556 46.0162 35.8567C46.9038 35.4578 47.7107 34.8196 48.2755 34.0217C48.8404 33.2239 49.1631 32.107 49.1631 30.7507C49.1631 29.3944 48.921 28.3572 48.3562 27.4796C47.7914 26.602 47.0652 25.9637 46.2583 25.485C45.3707 25.0063 44.4831 24.6872 43.4342 24.5276C42.3852 24.3681 41.3363 24.2883 40.368 24.2883H33.7515V36.7343H39.5611Z" fill="white"/>
<path d="M68.0468 15.6705H67.1592V9.68679H65.2227V8.96875H69.9833V9.68679H68.0468V15.6705Z" fill="#2C3E50"/>
<path d="M75.7902 15.6705H74.9026V12.4792H71.7557V15.6705H70.8682V8.96875H71.7557V11.7611H74.9026V8.96875H75.7902V15.6705Z" fill="#2C3E50"/>
<path d="M81.8426 14.9524V15.6705H77.4854V8.96875H81.7619V9.68679H78.2922V11.8409H81.0357V12.559H78.2922V14.9524H81.8426Z" fill="#2C3E50"/>
<path d="M66.0244 27.7984V21.0967H68.6872C69.3327 21.0967 69.8975 21.2562 70.2202 21.5754C70.543 21.8945 70.7044 22.2934 70.7044 22.6923C70.7044 23.4902 70.3009 23.9689 69.4941 24.2082C69.9782 24.3678 70.3009 24.5273 70.543 24.8465C70.7851 25.1656 70.8658 25.4847 70.8658 25.8836C70.8658 26.4421 70.7044 26.841 70.3009 27.2399C69.9782 27.5591 69.4134 27.7984 68.6065 27.7984H66.0244ZM66.8313 23.8891H68.2837C68.9292 23.8891 69.3327 23.8093 69.4941 23.5699C69.6554 23.3306 69.8168 23.0912 69.8168 22.7721C69.8168 22.453 69.7361 22.2136 69.4941 22.0541C69.252 21.8945 68.9292 21.7349 68.5258 21.7349H66.8313V23.8891ZM66.8313 27.0006H68.6872C69.1713 27.0006 69.494 26.9208 69.7361 26.6815C69.9782 26.4421 70.1396 26.2028 70.1396 25.8836C70.1396 25.6443 70.0589 25.4049 69.9782 25.2454C69.8975 25.0858 69.7361 24.8465 69.4941 24.7667C69.252 24.6869 69.0099 24.6071 68.6065 24.6071H66.8313V27.0006Z" fill="#2C3E50"/>
<path d="M72.9628 27.7984H72.0752V21.0967H72.9628V27.7984Z" fill="#2C3E50"/>
<path d="M76.7577 27.7984H75.8701V21.8147H73.9336V21.0967H78.6942V21.8147H76.7577V27.7984Z" fill="#2C3E50"/>
<path d="M83.4545 25.4848L84.2614 25.6444C83.858 27.1602 83.0511 27.8783 81.76 27.8783C80.8725 27.8783 80.2269 27.5592 79.7428 26.8411C79.2587 26.1231 79.0166 25.3252 79.0166 24.2881C79.0166 23.2509 79.2587 22.4531 79.7428 21.8148C80.2269 21.1766 80.9531 20.8574 81.76 20.8574C83.0511 20.8574 83.858 21.5755 84.1807 23.0115L83.3738 23.1711C83.0511 22.1339 82.5669 21.5755 81.6793 21.5755C81.1145 21.5755 80.6304 21.8148 80.3076 22.2935C79.9849 22.7722 79.8235 23.4902 79.8235 24.3679C79.8235 25.1657 79.9849 25.8837 80.3076 26.3624C80.6304 26.8411 81.1145 27.0805 81.6793 27.0805C82.5669 27.1602 83.1317 26.6018 83.4545 25.4848Z" fill="#2C3E50"/>
<path d="M87.5689 27.8783C86.6813 27.8783 86.0358 27.5592 85.5516 26.8411C85.0675 26.2029 84.8254 25.3252 84.8254 24.3679C84.8254 23.3307 85.0675 22.5329 85.5516 21.8148C86.0358 21.1766 86.762 20.8574 87.5689 20.8574C88.3758 20.8574 89.102 21.1766 89.5861 21.8148C90.0702 22.4531 90.3123 23.2509 90.3123 24.2881C90.3123 25.2455 90.0702 26.0433 89.5861 26.7613C89.1826 27.5592 88.4564 27.8783 87.5689 27.8783ZM87.6496 27.24C88.2144 27.24 88.6985 27.0007 89.0213 26.4422C89.344 25.8837 89.5054 25.2455 89.5054 24.3679C89.5054 23.4902 89.344 22.852 89.0213 22.3733C88.6985 21.8946 88.2144 21.6552 87.6496 21.6552C87.0847 21.6552 86.6006 21.8946 86.2778 22.4531C85.9551 23.0116 85.7937 23.6498 85.7937 24.5274C85.7937 25.3252 85.9551 26.0433 86.2778 26.522C86.6006 26.9209 87.0847 27.24 87.6496 27.24Z" fill="#2C3E50"/>
<path d="M92.5714 27.7984H91.6838V21.0967H92.5714V27.7984Z" fill="#2C3E50"/>
<path d="M99.2664 27.7984H98.4595L94.9092 21.9743V22.453C94.9092 22.6125 94.9092 22.7721 94.9092 22.8519V27.7984H94.2637V21.0967H95.3126L98.6209 26.6017V26.123C98.6209 25.9634 98.6209 25.8039 98.6209 25.6443V21.0967H99.2664V27.7984Z" fill="#2C3E50"/>
<path d="M66.8313 39.8463H66.0244V33.1445H70.2202V33.8626H66.8313V36.0167H69.5747V36.7347H66.8313V39.8463Z" fill="#2C3E50"/>
<path d="M73.3665 40.0052C72.4789 40.0052 71.8334 39.6861 71.3493 38.9681C70.8651 38.3298 70.623 37.4522 70.623 36.4948C70.623 35.4576 70.8651 34.6598 71.3493 33.9418C71.8334 33.3035 72.5596 32.9844 73.3665 32.9844C74.1734 32.9844 74.8996 33.3035 75.3837 33.9418C75.8678 34.58 76.1099 35.3779 76.1099 36.415C76.1099 37.3724 75.8678 38.1702 75.3837 38.8883C74.8996 39.6063 74.2541 40.0052 73.3665 40.0052ZM73.3665 39.2872C73.9313 39.2872 74.4154 39.0478 74.7382 38.4894C75.061 37.9309 75.2223 37.2926 75.2223 36.415C75.2223 35.5374 75.061 34.8992 74.7382 34.4205C74.4154 33.9418 73.9313 33.7024 73.3665 33.7024C72.8017 33.7024 72.3175 33.9418 71.9948 34.5002C71.672 35.0587 71.5106 35.697 71.5106 36.5746C71.5106 37.3724 71.672 38.0905 71.9948 38.5692C72.3175 39.0478 72.8017 39.2872 73.3665 39.2872Z" fill="#2C3E50"/>
<path d="M81.2751 33.1445H82.0013V37.5326C82.0013 38.4102 81.7592 39.0484 81.3557 39.4474C80.9523 39.8463 80.3875 40.0058 79.6613 40.0058C78.8544 40.0058 78.2896 39.8463 77.8861 39.4474C77.4827 39.0484 77.3213 38.4102 77.3213 37.5326V33.1445H78.2089V37.5326C78.2089 38.091 78.2896 38.4102 78.3703 38.6495C78.5316 38.8889 78.693 39.0484 78.9351 39.1282C79.1771 39.208 79.4192 39.2878 79.742 39.2878C80.2261 39.2878 80.6295 39.1282 80.9523 38.8889C81.2751 38.6495 81.3557 38.1708 81.3557 37.5326V33.1445H81.2751Z" fill="#2C3E50"/>
<path d="M88.6156 39.8463H87.8088L84.2584 34.0221V34.5008C84.2584 34.6604 84.2584 34.82 84.2584 34.8997V39.8463H83.5322V33.1445H84.5812L87.8894 38.6495V38.1708C87.8894 38.0113 87.8894 37.8517 87.8894 37.6921V33.1445H88.535V39.8463H88.6156Z" fill="#2C3E50"/>
<path d="M90.313 39.8463V33.1445H92.5723C93.5406 33.1445 94.2668 33.4637 94.8316 34.1019C95.3964 34.7402 95.6385 35.538 95.6385 36.4954C95.6385 37.4528 95.3964 38.2506 94.8316 38.8889C94.3474 39.5271 93.6212 39.8463 92.8144 39.8463H90.313ZM91.1199 39.1282H92.4916C93.2178 39.1282 93.7826 38.8889 94.1861 38.4102C94.5895 37.9315 94.7509 37.2932 94.7509 36.4156C94.7509 35.7774 94.5895 35.1391 94.1861 34.6604C93.8633 34.1019 93.2985 33.8626 92.4916 33.8626H91.1199V39.1282Z" fill="#2C3E50"/>
<path d="M101.286 39.8463H100.398L99.7525 37.8517H97.2511L96.6056 39.8463H95.8794L98.058 33.1445H99.0263L101.286 39.8463ZM99.5104 37.2134L98.4614 34.0221L97.4125 37.2134H99.5104Z" fill="#2C3E50"/>
<path d="M103.543 39.8463H102.656V33.8626H100.719V33.1445H105.48V33.8626H103.543V39.8463Z" fill="#2C3E50"/>
<path d="M107.256 39.8463H106.368V33.1445H107.256V39.8463Z" fill="#2C3E50"/>
<path d="M111.291 40.0052C110.404 40.0052 109.758 39.6861 109.274 38.9681C108.79 38.3298 108.548 37.4522 108.548 36.4948C108.548 35.4576 108.79 34.6598 109.274 33.9418C109.758 33.3035 110.484 32.9844 111.291 32.9844C112.098 32.9844 112.824 33.3035 113.309 33.9418C113.793 34.58 114.035 35.3779 114.035 36.415C114.035 37.3724 113.793 38.1702 113.309 38.8883C112.824 39.6063 112.179 40.0052 111.291 40.0052ZM111.291 39.2872C111.856 39.2872 112.34 39.0478 112.663 38.4894C112.986 37.9309 113.147 37.2926 113.147 36.415C113.147 35.5374 112.986 34.8992 112.663 34.4205C112.34 33.9418 111.856 33.7024 111.291 33.7024C110.726 33.7024 110.242 33.9418 109.92 34.5002C109.597 35.0587 109.435 35.697 109.435 36.5746C109.435 37.3724 109.597 38.0905 109.92 38.5692C110.242 39.0478 110.726 39.2872 111.291 39.2872Z" fill="#2C3E50"/>
<path d="M120.412 39.8463H119.605L116.055 34.0221V34.5008C116.055 34.6604 116.055 34.82 116.055 34.8997V39.8463H115.328V33.1445H116.377L119.686 38.6495V38.1708C119.686 38.0113 119.686 37.8517 119.686 37.6921V33.1445H120.331V39.8463H120.412Z" fill="#2C3E50"/>
<path d="M37.0589 4.74121H34.9609V9.12925H37.0589V4.74121Z" fill="white"/>
<path d="M41.5784 4.74121H39.4805V9.12925H41.5784V4.74121Z" fill="white"/>
<path d="M36.9768 38.5693H34.8789V42.9574H36.9768V38.5693Z" fill="white"/>
<path d="M41.4964 38.5693H39.3984V42.9574H41.4964V38.5693Z" fill="white"/>
</svg>
