<svg width="1184" height="257" viewBox="0 0 1184 257" fill="none" xmlns="http://www.w3.org/2000/svg">
<path d="M57.8757 0.682962C25.9931 1.13284 0.37075 27.0837 0.327153 58.9696V198.182C0.317553 221.798 14.5399 243.093 36.3582 252.131C58.1766 261.168 83.291 256.168 99.9836 239.462L139.608 199.829C140.551 231.701 166.896 256.919 198.778 256.469C230.661 256.019 256.283 230.068 256.327 198.182V58.9696C256.336 35.3535 242.114 14.0587 220.296 5.02105C198.477 -4.01661 173.363 0.983963 156.67 17.6896L117.046 57.3226C116.103 25.4507 89.7584 0.23309 57.8757 0.682962Z" fill="#24DF91"/>
<path d="M128.327 186.97C160.577 186.97 186.721 160.826 186.721 128.576C186.721 96.3263 160.577 70.1826 128.327 70.1826C96.0773 70.1826 69.9336 96.3263 69.9336 128.576C69.9336 160.826 96.0773 186.97 128.327 186.97Z" fill="white"/>
<path d="M413.191 193.117H384.327V63.4764H413.191V82.479C423.623 68.4326 439.386 60.7583 457.587 60.7583C486.667 60.7583 503.789 80.6642 503.789 111.435V193.117H474.901V117.123C474.901 97.4369 464.685 87.0119 448.962 87.0119C427.427 87.0119 413.223 106.698 413.223 136.337L413.191 193.117ZM522.614 128.403C522.614 87.9234 548.193 60.7583 586.114 60.7583C624.035 60.7583 649.598 87.9071 649.598 128.403C649.598 168.67 624.067 195.827 586.114 195.827C548.161 195.827 522.614 168.686 522.614 128.403ZM620.07 128.403C620.07 103.516 606.089 86.7678 586.106 86.7678C566.122 86.7678 552.189 103.516 552.189 128.403C552.189 153.061 566.17 169.801 586.154 169.801C606.137 169.801 620.134 153.053 620.134 128.403H620.07ZM698.47 193.117H669.549V63.4764H698.414V82.479C707.51 68.2291 720.851 60.7583 736.151 60.7583C753.025 60.7583 767.901 69.8486 774.783 86.3283C785.207 69.58 801.865 60.7583 819.171 60.7583C843.591 60.7583 860.689 78.4099 860.689 108.497V193.133H831.849V115.512C831.849 96.737 823.855 86.7759 809.203 86.7759C789.891 86.7759 779.012 104.68 779.012 136.337V193.117H750.155V115.512C750.155 96.0534 741.714 86.7759 728.173 86.7759C709.541 86.8003 698.47 105.103 698.47 136.337V193.117ZM887.339 63.4764H916.204V193.117H887.339V63.4764ZM936.203 128.183C936.203 87.9071 962.406 60.7583 999.471 60.7583C1027.89 60.7583 1048.54 76.1394 1057.19 101.709L1030.33 113.03C1026.79 96.0534 1016.12 86.8004 1000.14 86.8004C979.272 86.8004 965.771 103.077 965.771 128.199C965.731 153.533 979.28 169.809 1000.36 169.809C1016.12 169.809 1026.79 160.532 1030.35 143.564L1056.98 154.884C1047.66 181.577 1027.67 195.851 999.919 195.851C962.382 195.851 936.203 168.686 936.203 128.183ZM1072.7 158.953L1098.89 146.746C1100.67 161.004 1115.1 171.16 1131.76 171.16C1144.62 171.16 1154.62 165.057 1154.62 156.91C1154.62 134.937 1078.03 144.239 1078.03 99.9434C1078.03 75.529 1099.1 61.4826 1127.98 61.4826C1156.4 61.4826 1177.49 75.3174 1182.59 93.6038L1155.03 105.811C1154.14 95.1826 1143.04 86.1249 1127.28 86.1249C1115.74 86.1249 1106.86 91.081 1106.86 98.1205C1106.86 119.158 1183.66 109.433 1183.66 155.812C1183.66 179.347 1163.24 195.86 1131.05 195.86C1099.34 195.851 1077.58 181.349 1072.7 158.953Z" fill="#030405"/>
</svg>
