<svg width="886" height="277" viewBox="0 0 886 277" fill="none" xmlns="http://www.w3.org/2000/svg">
<g clip-path="url(#clip0)">
<path d="M181.379 27.5575L157.638 0H115.855H74.0712L50.3306 27.5575C50.3306 27.5575 29.4388 21.8559 19.4678 31.8336C19.4678 31.8336 47.4817 29.458 56.978 45.1372C56.978 45.1372 82.6178 50.3636 86.4163 50.3636C90.2148 50.3636 97.337 47.5129 104.459 45.1372C111.581 42.7616 115.855 42.7616 115.855 42.7616C115.855 42.7616 120.603 42.7616 127.25 45.1372C134.372 47.5129 141.495 50.3636 145.293 50.3636C149.092 50.3636 174.731 45.1372 174.731 45.1372C184.228 29.458 212.242 31.8336 212.242 31.8336C202.271 21.3808 181.379 27.5575 181.379 27.5575Z" fill="white"/>
<path d="M294.694 150.116V55.0898H303.716C310.838 55.0898 317.011 61.2665 317.011 68.3934V110.68C331.255 97.8514 343.6 92.625 359.744 92.1499C391.081 91.6748 418.146 114.956 420.52 146.79C423.368 184.8 396.779 212.833 361.168 212.833C322.708 212.833 294.694 188.601 294.694 150.116ZM316.536 157.718C318.91 177.198 336.953 193.827 356.895 193.827C382.06 194.303 399.628 177.198 399.628 152.491C399.628 127.785 382.535 111.155 357.844 111.155C331.255 111.155 313.687 130.635 316.536 157.718Z" fill="#222222"/>
<path d="M457.555 94.5256V111.63C471.325 95.951 479.871 91.6748 496.015 91.6748C500.763 91.6748 505.511 92.1499 510.259 92.6251V114.956C505.036 113.531 500.288 113.056 495.065 113.056C483.195 113.056 473.224 116.857 466.102 124.459C459.929 131.11 458.03 135.862 458.03 146.315V209.032H434.764V94.5256H457.555Z" fill="#222222"/>
<path d="M515.483 132.536C516.432 121.608 518.806 115.431 523.554 109.73C533.051 97.8515 550.144 91.6748 574.359 91.6748C593.352 91.6748 607.596 94.5256 617.092 101.177C625.164 106.404 628.488 114.481 628.488 128.26V179.098C628.488 190.026 631.337 194.303 638.934 193.827C640.833 193.827 642.257 193.827 644.157 193.352V208.556C640.358 209.982 636.085 210.457 632.286 210.457C618.042 210.457 611.395 206.181 606.647 193.352C592.402 206.656 577.683 212.357 556.791 212.357C528.777 212.357 511.209 199.529 511.209 178.148C511.209 166.27 517.857 155.342 528.777 150.116C537.324 146.315 542.547 145.364 566.762 142.514C587.654 140.613 590.978 140.138 597.15 138.237C603.323 136.337 606.172 132.536 606.172 126.834C606.172 114.481 596.201 108.779 574.834 108.779C554.892 108.779 544.446 113.056 540.173 123.033C538.274 128.26 533.051 131.586 527.353 132.061L515.483 132.536ZM606.647 152.016C591.927 156.292 577.208 159.143 562.014 160.568C541.597 162.469 534.95 166.745 534.95 177.198C534.95 188.601 544.446 194.778 562.964 194.778C578.158 194.778 590.028 190.977 598.1 183.375C604.747 177.198 606.172 172.922 606.172 161.519V152.016H606.647Z" fill="#222222"/>
<path d="M699.709 209.032H694.012C688.789 209.032 684.041 206.181 681.666 201.43L631.811 94.5259H645.581C653.653 94.5259 660.775 99.2772 664.098 106.879L697.335 183.375L731.522 106.404C734.845 99.2772 741.968 94.5259 750.039 94.5259H762.385L712.054 201.43C709.68 206.181 704.932 209.032 699.709 209.032Z" fill="#222222"/>
<path d="M778.054 158.668C780.428 180.524 797.521 194.303 822.686 194.303C836.931 194.303 847.852 190.026 854.499 181.474C858.297 176.723 864.47 173.397 870.643 173.397H883.937C872.542 199.529 851.65 212.357 820.787 212.357C782.327 212.357 756.213 188.601 756.213 152.491C756.213 116.381 782.802 91.6748 821.262 91.6748C849.276 91.6748 871.592 104.503 880.614 125.884C884.412 135.862 886.311 144.414 886.311 158.668H778.054ZM862.571 140.613C857.348 120.183 842.154 109.255 820.787 109.255C799.421 109.255 784.227 120.658 778.529 140.613H862.571Z" fill="#222222"/>
<path d="M223.639 66.5176L229.811 50.3632C229.811 50.3632 221.74 41.3357 211.768 31.358C201.797 21.3803 180.906 27.0819 180.906 27.0819L157.165 -0.475586H115.382H74.0729L50.3323 27.0819C50.3323 27.0819 29.4406 21.3803 19.4695 31.358C9.49844 41.3357 1.42663 50.3632 1.42663 50.3632L8.07401 66.5176L0.00219727 90.274C0.00219727 90.274 23.7428 182.449 26.5917 193.852C32.2894 216.183 36.0879 224.735 51.2819 235.663C66.4759 246.591 95.4395 266.547 99.7128 269.397C104.461 272.248 110.159 277.475 115.382 277.475C120.605 277.475 126.302 272.248 131.05 269.397C135.799 266.547 164.287 247.066 179.481 235.663C194.675 224.26 198.949 215.708 204.171 193.852C207.02 182.449 230.761 90.274 230.761 90.274L223.639 66.5176Z" fill="url(#paint0_linear)"/>
<path d="M115.857 172.471C117.281 172.471 127.727 176.272 135.799 180.549C143.871 184.825 150.043 187.675 151.943 189.101C153.842 190.526 152.892 192.427 150.993 193.852C149.094 195.278 126.303 213.332 123.929 215.233C121.555 217.133 118.231 220.459 116.332 220.459C114.432 220.459 110.634 217.133 108.735 215.233C106.361 213.332 83.5695 194.802 81.6703 193.852C79.771 192.427 78.8214 190.526 80.7207 189.101C82.6199 187.675 88.3176 184.825 96.8643 180.549C103.986 175.797 114.432 172.471 115.857 172.471ZM115.857 42.2861C116.806 42.2861 121.08 42.7613 127.252 44.6618C134.374 47.0374 141.497 49.8882 145.295 49.8882C149.094 49.8882 174.734 44.6618 174.734 44.6618C174.734 44.6618 205.122 82.1969 205.122 90.2741C205.122 98.3513 201.323 100.252 197.525 104.528C193.726 108.804 176.633 126.859 174.734 129.235C172.359 131.61 168.086 134.936 170.935 141.588C173.784 147.765 177.582 156.317 173.309 164.394C169.036 172.471 161.439 178.173 156.691 177.223C151.943 176.272 140.547 170.096 136.749 167.72C132.475 164.869 119.655 153.941 119.655 149.665C119.655 145.389 132.95 137.787 135.799 136.362C138.173 134.461 149.568 127.809 150.043 125.434C150.043 123.058 150.043 122.108 146.72 115.456C143.396 108.804 137.223 100.252 138.173 94.5503C139.123 88.8487 149.094 85.998 155.741 83.1472C162.863 80.2964 176.158 75.5451 177.582 74.5949C179.482 73.6446 179.007 73.1695 173.784 72.6944C168.561 72.2192 154.317 70.3187 147.669 72.2192C141.022 74.1198 130.101 76.9705 129.152 78.3959C128.202 79.8213 127.252 79.8213 128.202 85.0477C129.152 90.2741 133.9 114.981 134.374 119.257C134.849 123.533 135.799 126.384 131.051 127.809C126.303 128.76 118.706 130.66 115.857 130.66C113.008 130.66 105.411 128.76 100.663 127.809C95.9147 126.859 96.8643 124.008 97.3391 119.257C97.8139 114.981 102.562 90.2741 103.512 85.0477C104.461 79.8213 103.512 79.8213 102.562 78.3959C101.612 76.9705 90.6917 74.1198 84.0443 72.2192C77.397 70.3187 63.1526 72.2192 57.9297 72.6944C52.7067 73.1695 52.2319 74.1198 54.1312 74.5949C56.0304 75.5451 69.3252 80.2964 75.9725 83.1472C83.0947 85.998 92.591 88.8487 93.5406 94.5503C94.4902 100.252 88.3176 108.804 84.994 115.456C81.6703 122.108 81.6703 122.583 81.6703 125.434C81.6703 127.809 93.0658 134.461 95.9147 136.362C98.2887 138.262 112.058 145.864 112.058 149.665C112.058 153.941 98.7635 164.869 94.965 167.72C90.6917 170.571 79.771 176.272 75.0229 177.223C70.2748 178.173 62.6778 172.471 58.4045 164.394C54.1312 156.317 57.9297 147.765 60.7785 141.588C63.6274 135.411 58.8793 131.61 56.98 129.235C54.606 126.859 37.9875 108.804 34.189 104.528C30.3905 100.252 26.592 98.3513 26.592 90.2741C26.592 82.1969 56.98 44.6618 56.98 44.6618C56.98 44.6618 82.6199 49.8882 86.4184 49.8882C90.2169 49.8882 97.3391 47.0374 104.461 44.6618C110.634 42.2861 114.907 42.2861 115.857 42.2861Z" fill="#F5F8FB"/>
<path d="M181.381 27.5575L157.64 0H115.857H74.0734L50.3328 27.5575C50.3328 27.5575 29.441 21.8559 19.47 31.8336C19.47 31.8336 47.4839 29.458 56.9801 45.1372C56.9801 45.1372 82.62 50.3636 86.4185 50.3636C90.217 50.3636 97.3392 47.5129 104.461 45.1372C111.584 42.7616 115.857 42.7616 115.857 42.7616C115.857 42.7616 120.605 42.7616 127.252 45.1372C134.375 47.5129 141.497 50.3636 145.295 50.3636C149.094 50.3636 174.734 45.1372 174.734 45.1372C184.23 29.458 212.244 31.8336 212.244 31.8336C202.273 21.3808 181.381 27.5575 181.381 27.5575Z" fill="url(#paint1_linear)"/>
</g>
<defs>
<linearGradient id="paint0_linear" x1="0.0780611" y1="138.512" x2="230.685" y2="138.512" gradientUnits="userSpaceOnUse">
<stop stop-color="#F1562B"/>
<stop offset="0.3" stop-color="#F1542B"/>
<stop offset="0.41" stop-color="#F04D2A"/>
<stop offset="0.49" stop-color="#EF4229"/>
<stop offset="0.5" stop-color="#EF4029"/>
<stop offset="0.56" stop-color="#E83E28"/>
<stop offset="0.67" stop-color="#E13C26"/>
<stop offset="1" stop-color="#DF3C26"/>
</linearGradient>
<linearGradient id="paint1_linear" x1="19.5333" y1="25.184" x2="212.18" y2="25.184" gradientUnits="userSpaceOnUse">
<stop stop-color="#F1562B"/>
<stop offset="0.3" stop-color="#F1542B"/>
<stop offset="0.41" stop-color="#F04D2A"/>
<stop offset="0.49" stop-color="#EF4229"/>
<stop offset="0.5" stop-color="#EF4029"/>
<stop offset="0.56" stop-color="#E83E28"/>
<stop offset="0.67" stop-color="#E13C26"/>
<stop offset="1" stop-color="#DF3C26"/>
</linearGradient>
<clipPath id="clip0">
<rect width="886" height="277" fill="white"/>
</clipPath>
</defs>
</svg>
