<svg width="183" height="38" viewBox="0 0 183 38" fill="none" xmlns="http://www.w3.org/2000/svg">
<path d="M3.72582 18.0475C3.72505 16.3145 4.0403 14.5959 4.65675 12.9736L1.44313 11.1377C-0.57712 15.9574 -0.391189 21.4056 1.95323 26.0796L5.13879 24.2613C4.20429 22.3205 3.72148 20.1971 3.72582 18.0475Z" fill="#ED1C24"/>
<path d="M45.2778 9.24706C45.2778 3.78804 47.8674 1.05865 53.0466 1.05865C54.1566 1.05512 55.2612 1.20971 56.3266 1.51763C57.3807 1.82529 57.9079 2.20861 57.9079 2.66758C57.9079 3.00375 57.726 3.4486 57.3621 4.00164C56.9981 4.55467 56.676 4.83056 56.3954 4.8288C56.2266 4.78542 56.0634 4.72364 55.9083 4.6447C54.9832 4.25332 53.9834 4.06493 52.9778 4.09242C50.2947 4.09242 48.9531 5.82921 48.9531 9.30254C48.9531 12.7759 50.2794 14.5126 52.9319 14.5126C54.0401 14.5142 55.1355 14.2784 56.1429 13.8217C56.3345 13.7218 56.5375 13.6446 56.7474 13.5922C57.0739 13.5922 57.3843 13.857 57.6783 14.3866C57.9163 14.7507 58.0673 15.164 58.1196 15.5945C58.1196 16.2081 57.5457 16.684 56.398 17.0219C55.2735 17.355 54.1059 17.525 52.9319 17.5262C50.327 17.5262 48.4004 16.8537 47.1524 15.5088C45.9045 14.1639 45.2796 12.0766 45.2778 9.24706Z" fill="#2C3E50"/>
<path d="M60.074 16.6512V9.36055C60.0965 8.5528 60.0495 7.74456 59.9337 6.94463C59.87 6.67202 59.8233 6.39562 59.7935 6.11747C59.7935 5.87209 60.1079 5.688 60.7371 5.56518C61.2001 5.4628 61.6711 5.40126 62.145 5.38109C62.3552 5.36293 62.5666 5.3942 62.7622 5.47188C62.8745 5.54022 62.9632 5.64033 63.0173 5.75937C63.0785 5.8905 63.127 5.99642 63.1576 6.08216C63.2024 6.22162 63.2374 6.3641 63.2621 6.50835C63.3004 6.70758 63.3284 6.83115 63.3437 6.87654C63.9949 5.71145 64.8401 5.12891 65.8789 5.12891C66.3755 5.12891 66.7206 5.255 66.9144 5.50718C67.106 5.75457 67.2085 6.0582 67.2052 6.36965C67.1907 6.7797 67.1205 7.18597 66.996 7.57761C66.8565 8.06004 66.6867 8.30138 66.4859 8.30138C66.3199 8.28902 66.1557 8.25876 65.9963 8.21059C65.7996 8.15435 65.5963 8.12283 65.3918 8.11728C64.6164 8.11728 63.9967 8.5006 63.5325 9.26724V16.6487C63.5325 17.1397 63.0675 17.385 62.1374 17.385H61.487C60.5451 17.385 60.074 17.1404 60.074 16.6512Z" fill="#2C3E50"/>
<path d="M67.3716 5.77251C67.3716 5.43635 67.8442 5.26815 68.7897 5.26815H69.5344C70.2944 5.26815 70.7288 5.42954 70.8377 5.75234L72.2099 10.0042C72.3494 10.4329 72.5662 11.3576 72.8602 12.7782H72.9521C73.2632 11.3054 73.48 10.3807 73.6024 10.0042L74.9746 5.74982C75.0835 5.42879 75.5179 5.26739 76.2779 5.26562H76.8365C77.7666 5.26562 78.2316 5.43383 78.2316 5.76999C78.2265 5.91021 78.2033 6.04916 78.1627 6.18357L72.8373 21.6046C72.7131 21.9256 72.2787 22.087 71.534 22.0888H71.1387C70.2085 22.0888 69.7435 21.9274 69.7435 21.6046C69.7443 21.4619 69.7754 21.3209 69.8354 21.191L71.307 17.3402L67.4813 6.1861C67.4305 6.05244 67.3935 5.91374 67.3716 5.77251Z" fill="#2C3E50"/>
<path d="M79.9598 21.3529V9.36157C79.9825 8.55382 79.9355 7.74558 79.8195 6.94565C79.7557 6.67304 79.7088 6.3969 79.6792 6.11848C79.6792 5.87311 79.9929 5.68902 80.6203 5.5662C81.0832 5.46382 81.5543 5.40228 82.0282 5.38211C82.2384 5.36395 82.4498 5.39522 82.6454 5.47289C82.7574 5.54149 82.8461 5.64161 82.9005 5.76038C82.9533 5.86882 83.0002 5.97978 83.0407 6.09327C83.0828 6.22919 83.1178 6.36714 83.1453 6.50685C83.1843 6.69019 83.2116 6.80518 83.2269 6.85234C83.519 6.3336 83.9495 5.90438 84.4716 5.6116C85.0393 5.28451 85.6866 5.11707 86.3436 5.1274C87.6309 5.1274 88.6773 5.6754 89.4833 6.77164C90.2893 7.86788 90.6922 9.38099 90.6922 11.3109C90.6922 13.2359 90.262 14.754 89.4017 15.8654C88.5414 16.9768 87.3358 17.5323 85.7851 17.5323C84.9373 17.5525 84.1056 17.3023 83.4131 16.8186V21.3579C83.4131 21.8489 82.9482 22.0943 82.018 22.0943H81.3676C80.429 22.0842 79.9598 21.8371 79.9598 21.3529ZM85.0301 14.844C86.4719 14.844 87.193 13.6898 87.193 11.3816C87.193 9.07332 86.5655 7.91655 85.3107 7.91151C84.566 7.91151 83.9301 8.36368 83.4029 9.26826V14.3977C83.898 14.6801 84.4586 14.8304 85.0301 14.834V14.844Z" fill="#2C3E50"/>
<path d="M97.7299 14.8334L98.3574 14.7401C98.5581 14.7401 98.728 14.9663 98.8675 15.4184C98.9797 15.7344 99.0498 16.0633 99.0766 16.3969C99.0766 17.1484 98.3326 17.5242 96.8449 17.5242C94.5801 17.5242 93.4477 16.2827 93.4477 13.7994V7.99919H93.0753C92.6093 7.99919 92.3765 7.61587 92.3765 6.84923V6.47348C92.3765 5.70684 92.6093 5.32352 93.0753 5.32352H93.4477L93.7537 3.127C93.832 2.636 94.2511 2.39062 95.0111 2.39062H95.7329C96.5083 2.39062 96.8959 2.636 96.8959 3.127V5.31091H98.036C98.502 5.31091 98.7348 5.69423 98.7348 6.46087V6.85175C98.7348 7.61839 98.502 8.00171 98.036 8.00171H96.8908V13.8448C96.8908 14.5038 97.1706 14.8334 97.7299 14.8334Z" fill="#2C3E50"/>
<path d="M102.031 15.9255C101.07 14.8596 100.59 13.3223 100.59 11.3131C100.59 9.30396 101.07 7.77497 102.031 6.72588C102.992 5.66848 104.395 5.13965 106.242 5.13965C108.088 5.13965 109.488 5.66848 110.44 6.72588C111.387 7.77673 111.86 9.30648 111.86 11.3156C111.86 13.3248 111.384 14.8621 110.43 15.9281C109.476 16.994 108.076 17.5269 106.232 17.5269C104.387 17.5269 102.987 16.993 102.031 15.9255ZM104.071 11.3257C104.071 13.6642 104.789 14.8336 106.224 14.8336C107.659 14.8336 108.377 13.6642 108.377 11.3257C108.377 8.98721 107.659 7.81784 106.224 7.81784C104.789 7.81784 104.074 8.98721 104.079 11.3257H104.071Z" fill="#2C3E50"/>
<path d="M118.547 1.70163C118.547 1.36547 119.02 1.19727 119.965 1.19727H120.731C121.506 1.19727 121.963 1.41919 122.103 1.86303L125.503 12.6262H125.597L129.086 1.86303C129.241 1.41919 129.698 1.19727 130.458 1.19727H131.18C132.11 1.19727 132.575 1.36547 132.575 1.70163C132.572 1.8421 132.549 1.9813 132.506 2.11521L127.482 16.9033C127.373 17.2243 126.938 17.3857 126.178 17.3875H124.97C124.209 17.3875 123.775 17.2261 123.666 16.9033L118.642 2.11521C118.596 1.98105 118.564 1.84235 118.547 1.70163Z" fill="#2C3E50"/>
<path d="M133.758 14.1683C133.755 13.7744 133.794 13.3813 133.876 12.9957C133.98 12.5864 134.162 12.2005 134.411 11.8583C134.699 11.4407 135.082 11.0952 135.529 10.8496C136.629 10.2058 138.264 9.88373 140.436 9.88373V9.12717C140.436 8.25285 139.831 7.81582 138.622 7.81582C137.761 7.81708 136.912 8.00572 136.133 8.3681C135.977 8.44729 135.813 8.50907 135.643 8.5522C135.41 8.5522 135.151 8.31439 134.865 7.83852C134.631 7.50866 134.483 7.1266 134.434 6.72639C134.434 6.31281 134.865 5.94462 135.725 5.62182C136.738 5.27457 137.806 5.11065 138.877 5.13763C142.212 5.13763 143.879 6.41797 143.879 8.97839V13.2832C143.87 14.0823 143.917 14.881 144.019 15.6739L144.159 16.617C144.159 16.8624 143.846 17.0465 143.218 17.1693C142.755 17.272 142.284 17.3335 141.81 17.3534C141.6 17.3716 141.389 17.3405 141.193 17.2626C141.077 17.189 140.987 17.0803 140.938 16.9524C140.877 16.8062 140.828 16.7003 140.798 16.6069C140.752 16.4602 140.717 16.3101 140.693 16.1581C140.655 15.9437 140.627 15.8126 140.612 15.7672C140.268 16.3144 139.766 16.7467 139.171 17.0079C138.561 17.3262 137.884 17.4989 137.194 17.5123C136.004 17.5123 135.131 17.2054 134.577 16.5918C134.023 15.9783 133.75 15.1703 133.758 14.1683ZM137.179 13.8228C137.166 14.1002 137.277 14.3691 137.482 14.5592C137.739 14.7612 138.063 14.8593 138.39 14.8341C138.82 14.8248 139.236 14.68 139.576 14.4205C139.952 14.1587 140.248 13.8014 140.436 13.3866V12.1256C138.264 12.1224 137.179 12.688 137.179 13.8228Z" fill="#2C3E50"/>
<path d="M151.204 14.8334L151.831 14.7401C152.032 14.7401 152.202 14.9663 152.341 15.4185C152.453 15.7345 152.524 16.0633 152.55 16.397C152.55 17.1485 151.806 17.5242 150.316 17.5242C148.051 17.5242 146.919 16.2827 146.919 13.7995V0.736376C146.919 0.245374 147.384 0 148.314 0H148.964C149.895 0 150.36 0.245374 150.36 0.736376V13.8499C150.37 14.5056 150.651 14.8334 151.204 14.8334Z" fill="#2C3E50"/>
<path d="M158.111 14.8334L158.738 14.7401C158.939 14.7401 159.109 14.9663 159.248 15.4185C159.361 15.7345 159.431 16.0633 159.458 16.397C159.458 17.1485 158.713 17.5242 157.223 17.5242C154.958 17.5242 153.827 16.2827 153.829 13.7995V0.736376C153.829 0.245374 154.294 0 155.224 0H155.874C156.804 0 157.269 0.245374 157.269 0.736376V13.8499C157.273 14.5056 157.553 14.8334 158.111 14.8334Z" fill="#2C3E50"/>
<path d="M161.758 15.9026C160.758 14.8215 160.258 13.2615 160.258 11.2221C160.258 9.18266 160.758 7.65695 161.758 6.64494C162.758 5.6362 164.13 5.13184 165.874 5.13184C167.619 5.13184 168.894 5.68412 169.7 6.78868C170.515 7.89325 170.922 9.32237 170.922 11.0758C170.922 11.2591 170.763 11.5315 170.445 11.8929C170.127 12.2543 169.891 12.4343 169.736 12.4326H163.816C163.893 13.3069 164.156 13.928 164.607 14.2962C165.096 14.6775 165.706 14.8734 166.328 14.8485C167.011 14.8512 167.689 14.7307 168.328 14.4929C168.964 14.2558 169.29 14.1373 169.305 14.1373C169.538 14.1373 169.797 14.3635 170.083 14.8157C170.317 15.1297 170.465 15.4978 170.514 15.8849C170.514 16.3893 170.029 16.7921 169.06 17.0929C168.178 17.3779 167.257 17.5292 166.328 17.5418C164.281 17.5299 162.758 16.9837 161.758 15.9026ZM167.586 10.1402C167.615 9.54883 167.47 8.96175 167.168 8.45057C166.894 8.03144 166.414 7.7896 165.91 7.81759C164.762 7.81759 164.064 8.5918 163.816 10.1402H167.586Z" fill="#2C3E50"/>
<path d="M172.055 5.77251C172.055 5.43635 172.528 5.26815 173.473 5.26815H174.218C174.978 5.26815 175.412 5.42954 175.521 5.75234L176.883 10.0042C177.023 10.4329 177.24 11.3576 177.534 12.7782H177.625C177.937 11.3054 178.153 10.3807 178.276 10.0042L179.648 5.74982C179.757 5.42879 180.191 5.26739 180.951 5.26562H181.51C182.44 5.26562 182.905 5.43383 182.905 5.76999C182.9 5.91021 182.877 6.04916 182.836 6.18357L177.513 21.6046C177.389 21.9256 176.955 22.087 176.21 22.0888H175.815C174.884 22.0888 174.419 21.9274 174.419 21.6046C174.42 21.4619 174.451 21.3209 174.511 21.191L175.978 17.3503L172.152 6.19618C172.105 6.05874 172.072 5.91676 172.055 5.77251Z" fill="#2C3E50"/>
<path d="M16.4971 3.69336V0.0341797C11.0043 0.598819 6.06172 3.58215 3.04321 8.15449L6.22368 9.97778C8.57523 6.52009 12.3181 4.23052 16.4971 3.69336Z" fill="#ED1C24"/>
<path d="M19.907 32.444V36.0881C25.033 35.6583 29.7394 33.1156 32.8737 29.0824L29.6626 27.249C27.2251 30.1781 23.7218 32.0438 19.907 32.444Z" fill="#ED1C24"/>
<path d="M32.8862 17.7961C32.888 20.0022 32.3766 22.1793 31.3916 24.1587L34.5746 25.9769C37.0188 21.2223 37.2139 15.6427 35.1077 10.7324L31.894 12.5658C32.5505 14.2332 32.887 16.0068 32.8862 17.7961Z" fill="#ED1C24"/>
<path d="M30.415 9.83541L33.6057 8.01464C30.5112 3.42213 25.4683 0.474604 19.907 0.0078125V3.64934C24.1543 4.09798 27.9918 6.35729 30.415 9.83541Z" fill="#ED1C24"/>
<path d="M6.96929 27.126L3.76587 28.9518C6.8285 32.9686 11.4426 35.5449 16.503 36.0634V32.4017C12.7556 31.9258 9.33921 30.0354 6.96929 27.126Z" fill="#ED1C24"/>
<path d="M18.8184 23.9914C16.0909 23.9929 13.7024 22.1823 12.9961 19.5775C12.2899 16.9724 13.4417 14.2233 15.8042 12.8754C18.1667 11.5278 21.1503 11.9176 23.0777 13.8259L25.2941 11.6344C21.7446 8.12202 15.9965 8.09075 12.408 11.5643C8.8197 15.0379 8.72941 20.7209 12.2057 24.3041C15.6818 27.8877 21.4281 28.0349 25.0875 24.6345L22.8711 22.443C21.7632 23.4414 20.3176 23.994 18.8184 23.9914Z" fill="#ED1C24"/>
<path d="M49.435 25.3341L51.6916 31.7057L53.9361 25.3341H56.3134V34.1191H54.4973V31.7177L54.6783 27.5726L52.307 34.1191H51.0641L48.6989 27.5786L48.8799 31.7177V34.1191H47.0698V25.3341H49.435ZM60.7844 34.2398C59.827 34.2398 59.0467 33.9462 58.4433 33.3589C57.8439 32.7716 57.5443 31.9892 57.5443 31.0118V30.8428C57.5443 30.1872 57.671 29.6019 57.9244 29.087C58.1778 28.5681 58.5358 28.1699 58.9984 27.8924C59.465 27.6108 59.996 27.47 60.5913 27.47C61.4843 27.47 62.1862 27.7516 62.697 28.3147C63.2119 28.8779 63.4694 29.6763 63.4694 30.7101V31.4221H59.3121C59.3685 31.8485 59.5374 32.1904 59.819 32.4478C60.1046 32.7052 60.4646 32.834 60.899 32.834C61.5708 32.834 62.0957 32.5906 62.4738 32.1039L63.3306 33.0632C63.0691 33.4333 62.7151 33.7229 62.2686 33.9321C61.8222 34.1372 61.3274 34.2398 60.7844 34.2398ZM60.5852 28.8819C60.2393 28.8819 59.9577 28.9985 59.7405 29.2319C59.5273 29.4652 59.3906 29.799 59.3302 30.2334H61.7558V30.0947C61.7477 29.7085 61.6432 29.4108 61.442 29.2017C61.2409 28.9885 60.9553 28.8819 60.5852 28.8819ZM66.1 27.5907L66.1543 28.3208C66.6169 27.7536 67.2424 27.47 68.0308 27.47C68.8715 27.47 69.4487 27.8019 69.7625 28.4656C70.2211 27.8019 70.8747 27.47 71.7234 27.47C72.4314 27.47 72.9583 27.6772 73.3043 28.0915C73.6502 28.5018 73.8232 29.1212 73.8232 29.9499V34.1191H72.0734V29.9559C72.0734 29.5858 72.001 29.3163 71.8562 29.1474C71.7114 28.9744 71.456 28.8879 71.0899 28.8879C70.567 28.8879 70.205 29.1373 70.0038 29.6361L70.0099 34.1191H68.2661V29.9619C68.2661 29.5838 68.1917 29.3103 68.0429 29.1413C67.8941 28.9724 67.6406 28.8879 67.2826 28.8879C66.7879 28.8879 66.4299 29.0931 66.2087 29.5034V34.1191H64.4649V27.5907H66.1ZM81.0515 30.9153C81.0515 31.9611 80.8283 32.7776 80.3818 33.3649C79.9353 33.9482 79.3118 34.2398 78.5113 34.2398C77.8034 34.2398 77.2382 33.9683 76.8159 33.4253L76.7374 34.1191H75.1687V24.8514H76.9124V28.176C77.3147 27.7053 77.8436 27.47 78.4993 27.47C79.2957 27.47 79.9192 27.7637 80.3697 28.3509C80.8243 28.9342 81.0515 29.7568 81.0515 30.8187V30.9153ZM79.3078 30.7885C79.3078 30.1289 79.2032 29.6482 78.994 29.3465C78.7849 29.0408 78.4731 28.8879 78.0588 28.8879C77.5037 28.8879 77.1216 29.1152 76.9124 29.5697V32.1461C77.1256 32.6047 77.5118 32.834 78.0709 32.834C78.634 32.834 79.0041 32.5564 79.1811 32.0013C79.2656 31.7358 79.3078 31.3316 79.3078 30.7885ZM85.1363 34.2398C84.179 34.2398 83.3986 33.9462 82.7953 33.3589C82.1959 32.7716 81.8962 31.9892 81.8962 31.0118V30.8428C81.8962 30.1872 82.023 29.6019 82.2764 29.087C82.5298 28.5681 82.8878 28.1699 83.3504 27.8924C83.817 27.6108 84.3479 27.47 84.9433 27.47C85.8362 27.47 86.5382 27.7516 87.049 28.3147C87.5639 28.8779 87.8213 29.6763 87.8213 30.7101V31.4221H83.6641C83.7204 31.8485 83.8894 32.1904 84.171 32.4478C84.4565 32.7052 84.8166 32.834 85.251 32.834C85.9227 32.834 86.4477 32.5906 86.8258 32.1039L87.6826 33.0632C87.4211 33.4333 87.0671 33.7229 86.6206 33.9321C86.1741 34.1372 85.6794 34.2398 85.1363 34.2398ZM84.9372 28.8819C84.5913 28.8819 84.3097 28.9985 84.0925 29.2319C83.8793 29.4652 83.7426 29.799 83.6822 30.2334H86.1078V30.0947C86.0997 29.7085 85.9951 29.4108 85.794 29.2017C85.5929 28.9885 85.3073 28.8819 84.9372 28.8819ZM92.4854 29.2258C92.2481 29.1936 92.0389 29.1775 91.8579 29.1775C91.1982 29.1775 90.7658 29.4008 90.5606 29.8473V34.1191H88.8169V27.5907H90.4641L90.5124 28.369C90.8623 27.7697 91.347 27.47 91.9665 27.47C92.1596 27.47 92.3406 27.4962 92.5095 27.5485L92.4854 29.2258Z" fill="#2C3E50"/>
</svg>
