<svg width="1080" height="332" viewBox="0 0 1080 332" fill="none" xmlns="http://www.w3.org/2000/svg">
<path fill-rule="evenodd" clip-rule="evenodd" d="M93.751 46.9195C100.197 39.5618 106.071 33.2823 111.682 28.0241C16.8353 24.9411 44.4444 94.1485 13.5376 164.481C-22.0535 245.482 17.7253 276.35 77 285.968C68.7838 276.18 62.076 264.982 56.9701 252.896C18.5404 204.059 34.0078 115.087 93.751 46.9195Z" fill="#B3D234"/>
<path fill-rule="evenodd" clip-rule="evenodd" d="M321.975 133.203C313.15 158.293 296.952 186.447 274.055 214.156C256.208 235.747 236.365 252.751 215.886 265.064C192.211 280.545 162.841 289.681 130.004 289.681C111.623 289.681 93.5513 288.65 76.9971 285.964C86.7778 297.606 98.6665 307.271 112.494 314.014C198.245 355.872 203.66 278.115 294.385 238.66C345.331 216.502 345.518 173.188 321.975 133.203Z" fill="#0095D9"/>
<path fill-rule="evenodd" clip-rule="evenodd" d="M215.858 52.2844C228.505 54.6109 240.507 58.8098 251.252 64.9381C280.051 81.384 306.283 106.549 321.975 133.2C337.424 89.2807 330.229 54.7527 296.427 48.5015C259.281 41.6451 230.239 39.4416 202.33 19.7707C167.957 -4.45845 137.827 3.53283 111.68 28.0268C113.525 28.0836 115.408 28.1687 117.348 28.2822C153.623 30.4384 188.239 37.5691 215.858 52.2844Z" fill="#EEE809"/>
<path fill-rule="evenodd" clip-rule="evenodd" d="M93.7519 46.9188C34.0087 115.086 18.5412 204.059 56.971 252.895C39.7141 212.012 40.9133 161.019 65.234 120.306C97.6117 66.0979 162.554 42.4645 215.861 52.2905C188.243 37.5657 153.626 30.4445 117.361 28.2788C115.412 28.1653 113.529 28.0896 111.683 28.0234C106.072 33.2816 100.197 39.5612 93.7519 46.9188Z" fill="#51B849"/>
<path fill-rule="evenodd" clip-rule="evenodd" d="M251.252 64.9403C240.506 58.8026 228.505 54.6131 215.857 52.2866C252.226 71.6643 276.425 104.225 276.153 156.088C275.91 201.085 252.882 240.853 215.886 265.063C236.365 252.75 256.217 235.746 274.055 214.155C296.961 186.446 313.15 158.292 321.975 133.202C306.283 106.552 280.051 81.3768 251.252 64.9403Z" fill="#00845D"/>
<path fill-rule="evenodd" clip-rule="evenodd" d="M209.875 240.406C168.813 267.037 114.063 255.159 87.5784 213.869C61.0935 172.579 74.1908 119.411 113.96 90.8698C158.433 58.9614 215.468 71.5488 236.257 117.406C256.531 162.12 250.928 213.775 209.875 240.406ZM215.862 52.2846C162.555 42.4681 97.6121 66.092 65.2344 120.3C40.9137 161.013 39.7051 212.016 56.9714 252.89C62.0772 264.976 68.7757 276.182 77.0013 285.971C93.5555 288.656 111.627 289.678 129.999 289.678C162.845 289.678 192.216 280.542 215.881 265.061C252.886 240.86 275.914 201.083 276.148 156.086C276.429 104.223 252.221 71.6623 215.862 52.2846Z" fill="#005121"/>
<path fill-rule="evenodd" clip-rule="evenodd" d="M894.826 122.076C885.56 122.076 876.641 124.554 868.322 129.443C859.993 134.333 853.407 141 848.742 149.265C844.067 157.54 841.697 166.912 841.697 177.126C841.697 192.409 846.793 204.94 857.267 215.456C867.75 225.963 880.042 231.079 894.826 231.079C904.588 231.079 913.741 228.658 922.041 223.882C930.323 219.125 936.862 212.524 941.5 204.268C946.146 195.984 948.498 186.64 948.498 176.483C948.498 166.402 946.146 157.172 941.509 149.048C936.872 140.934 930.248 134.342 921.807 129.453C913.366 124.554 904.288 122.076 894.826 122.076ZM895.322 250.637C874.73 250.637 857.089 243.411 842.896 229.159C828.702 214.907 821.507 197.412 821.507 177.173C821.507 163.707 824.777 151.053 831.241 139.544C837.705 128.025 846.643 118.88 857.82 112.345C868.987 105.819 881.241 102.519 894.235 102.519C915.249 102.519 933.105 109.706 947.299 123.901C961.492 138.097 968.696 155.8 968.696 176.53C968.696 197.071 961.511 214.747 947.355 229.065C933.19 243.383 915.689 250.637 895.322 250.637ZM1037.84 250.638C1029.14 250.638 1021.12 248.255 1014.02 243.555C1007 238.912 1000.51 231.138 994.709 220.442C993.885 218.929 994.391 217.028 995.861 216.129L1007.23 209.254C1008.78 208.308 1010.8 208.866 1011.67 210.483C1019.03 224.149 1027.41 231.081 1036.57 231.081C1040.5 231.081 1044.25 230.135 1047.7 228.291C1051.14 226.447 1053.67 224.073 1055.44 221.028C1057.22 217.955 1058.09 214.796 1058.09 211.372C1058.09 207.504 1056.79 203.759 1054.12 199.939C1050.15 194.246 1042.69 187.209 1031.92 179.01C1020.42 170.243 1013.39 163.992 1010.46 159.897C1005.36 153.041 1002.76 145.447 1002.76 137.37C1002.76 130.958 1004.31 125.01 1007.38 119.704C1010.44 114.38 1014.81 110.134 1020.37 107.079C1025.88 104.053 1031.94 102.511 1038.39 102.511C1045.22 102.511 1051.69 104.242 1057.63 107.656C1063.57 111.07 1069.58 117.047 1076.03 125.937C1077.06 127.355 1076.77 129.341 1075.38 130.4L1064.49 138.751C1063.07 139.829 1061.07 139.545 1060 138.127C1055.25 131.762 1051.23 127.573 1048.05 125.653C1044.99 123.799 1041.74 122.901 1038.11 122.901C1033.53 122.901 1029.93 124.225 1027.11 126.958C1024.31 129.653 1022.96 132.878 1022.96 136.822C1022.96 139.29 1023.48 141.721 1024.5 144.038C1025.54 146.421 1027.56 149.116 1030.47 152.057C1031.57 153.126 1035.42 156.313 1047.37 165.231C1059.36 174.159 1067.4 181.961 1071.95 189.082C1076.57 196.317 1078.91 203.722 1078.91 211.098C1078.91 221.747 1074.88 231.1 1066.91 238.902C1058.97 246.695 1049.2 250.638 1037.84 250.638ZM790.002 247.244H773.626C772.736 247.244 771.939 246.696 771.602 245.864L750.841 195.552C750.326 194.256 748.518 194.256 748.003 195.552L727.176 245.864C726.839 246.696 726.033 247.244 725.143 247.244H708.758C707.165 247.244 706.107 245.58 706.781 244.114L736.648 177.167C737.463 175.408 737.463 173.365 736.657 171.606L709.742 110.73C708.711 108.48 710.35 105.907 712.814 105.907H726.596C727.926 105.907 729.125 106.721 729.612 107.969L748.003 152.9C748.537 154.281 750.476 154.281 751.019 152.9L769.532 107.941C770.019 106.711 771.19 105.907 772.501 105.907H786.432C788.775 105.907 790.32 108.357 789.337 110.494L762.262 171.511C761.446 173.289 761.446 175.332 762.262 177.11L791.988 244.123C792.653 245.58 791.594 247.244 790.002 247.244ZM437.723 109.738C437.723 107.629 439.419 105.908 441.517 105.908H489.728C513.449 105.908 532.673 125.324 532.673 149.269V150.442C532.673 174.671 513.215 194.314 489.213 194.314H459.87C458.474 194.314 457.341 195.458 457.341 196.867V243.415C457.341 245.534 455.645 247.245 453.547 247.245H441.517C439.419 247.245 437.723 245.534 437.723 243.415V109.738ZM457.341 171.957C457.341 173.366 458.474 174.51 459.87 174.51H491.808C503.547 174.51 513.065 164.902 513.065 153.062V147.557C513.065 135.49 503.369 125.711 491.414 125.711H459.87C458.474 125.711 457.341 126.856 457.341 128.265V171.957ZM660.936 247.241C659.587 247.241 658.35 246.457 657.779 245.218L647.211 222.577C646.63 221.348 645.394 220.553 644.035 220.553H578.09C576.741 220.553 575.504 221.338 574.924 222.577L564.3 245.227C563.719 246.457 562.491 247.241 561.133 247.241H546.921C544.354 247.241 542.658 244.546 543.754 242.201L606.599 107.928C607.179 106.699 608.407 105.904 609.765 105.904H612.641C614.009 105.904 615.246 106.699 615.817 107.947L677.846 242.22C678.933 244.556 677.237 247.241 674.67 247.241H660.936ZM586.213 198.509C585.585 199.833 586.55 201.365 588.002 201.365H633.955C635.51 201.365 636.54 199.729 635.875 198.31L613.166 149.672C612.36 147.941 609.924 147.941 609.119 149.663L586.213 198.509Z" fill="#778F9B"/>
</svg>
