<svg width="644" height="133" viewBox="0 0 644 133" fill="none" xmlns="http://www.w3.org/2000/svg">
<path d="M0.929459 66.3497C0.929459 83.4199 7.69747 99.7909 19.7446 111.861C31.7917 123.932 48.1311 130.713 65.1684 130.713C82.2056 130.713 98.545 123.932 110.592 111.861C122.639 99.7909 129.407 83.4199 129.407 66.3497C129.407 49.2794 122.639 32.9084 110.592 20.8379C98.545 8.76745 82.2056 1.98633 65.1684 1.98633C48.1311 1.98633 31.7917 8.76745 19.7446 20.8379C7.69747 32.9084 0.929459 49.2794 0.929459 66.3497" fill="#CCF7FF"/>
<path fill-rule="evenodd" clip-rule="evenodd" d="M65.876 132.602C62.1991 132.602 58.6142 132.223 55.0993 131.644L58.112 124.122C60.6577 124.467 63.2369 124.706 65.876 124.706C69.5266 124.706 73.0867 124.324 76.5505 123.677L67.7954 114.176H55.3679H52.7405H50.1131V106.281H41.5026C40.5932 107.846 38.9175 108.914 36.9791 108.914C34.0773 108.914 31.7228 106.556 31.7228 103.647C31.7228 100.738 34.0758 98.3822 36.9791 98.3822C38.919 98.3822 40.5947 99.4469 41.5026 101.015H50.1131V98.3822V93.1158H55.3679H81.6418V94.2419L88.0876 101.238C88.5474 101.107 89.0233 101.015 89.5225 101.015C92.4243 101.015 94.7773 103.372 94.7773 106.281C94.7773 109.187 92.4257 111.543 89.5225 111.543C86.6192 111.543 84.2692 109.189 84.2692 106.281C84.2692 105.848 84.3334 105.434 84.4297 105.032L78.3035 98.3822H55.3693V108.912H71.1322V110.035L82.4081 122.27C92.0068 119.404 100.528 114.079 107.326 107.068L99.3226 98.3822H97.4061V73.4848L89.4728 64.881C87.279 66.7954 84.9464 68.8326 82.684 70.8084C82.2475 71.1931 81.3805 71.9477 81.3805 71.9477L79.0144 71.9828V72.0574H67.7765C66.8671 73.6252 65.1914 74.6914 63.2515 74.6914C60.3497 74.6914 57.9967 72.3338 57.9967 69.4249C57.9967 66.5161 60.3497 64.1614 63.2515 64.1614C65.1914 64.1614 66.8671 65.2261 67.7765 66.7939H79.0144V67.3687L94.7773 53.2952V32.5732H84.2706V43.8343C85.8325 44.7454 86.8951 46.4244 86.8951 48.3666C86.8951 51.274 84.545 53.633 81.6418 53.633C78.7414 53.633 76.387 51.2755 76.387 48.3666C76.387 46.4229 77.4496 44.744 79.0144 43.8343V32.5732V29.9407V27.3082H94.7773V16.8031C92.6958 15.5966 90.5588 14.4734 88.3241 13.5301C87.4877 13.9162 86.5637 14.1473 85.5814 14.1473C81.9556 14.1473 79.0144 11.2003 79.0144 7.56606C79.0144 3.93324 81.9556 0.986328 85.5814 0.986328C88.8554 0.986328 91.547 3.39066 92.0448 6.52623C115.28 16.6613 131.558 39.7847 131.558 66.7939C131.558 103.138 102.153 132.602 65.876 132.602ZM110.54 69.4264C107.638 69.4264 105.287 67.0718 105.287 64.1629C105.287 62.2193 106.351 60.5403 107.913 59.6277V37.8396H110.54H113.169H115.899C111.88 30.9205 106.453 24.9273 100.034 20.2107V58.8979H96.323C95.4706 59.6409 94.4985 60.4921 93.4358 61.4178L102.96 71.7561L102.565 72.0589H102.658V79.9563H106.015C106.923 78.3885 108.599 77.3238 110.539 77.3238C113.44 77.3238 115.795 79.6814 115.795 82.5903C115.795 85.4962 113.442 87.8552 110.539 87.8552C108.599 87.8552 106.923 86.7891 106.015 85.2227H102.658V94.2434L110.829 103.11C118.841 93.1787 123.677 80.5662 123.677 66.7954C123.677 58.3378 121.829 50.3321 118.571 43.1045H113.168V59.6277C114.732 60.5418 115.795 62.2193 115.795 64.1629C115.795 67.0703 113.442 69.4264 110.54 69.4264ZM65.876 8.8823C64.1039 8.8823 62.3553 8.99345 60.6241 9.14994V25.8018L67.07 32.7984C67.5283 32.6667 68.0042 32.5746 68.5034 32.5746C71.4052 32.5746 73.7596 34.9321 73.7596 37.841C73.7596 40.7485 71.4066 43.106 68.5034 43.106C65.6001 43.106 63.25 40.7485 63.25 37.841C63.25 37.4096 63.3143 36.9943 63.4121 36.5935L59.7118 32.5746H56.9122L47.6433 40.671L54.7373 48.368H55.3664V49.0525L55.3927 49.0817L55.3664 49.1051V82.5917H82.3716C83.2795 81.0225 84.9552 79.9578 86.8951 79.9578C89.7969 79.9578 92.1513 82.3153 92.1513 85.2242C92.1513 88.1331 89.7984 90.4877 86.8951 90.4877C84.9552 90.4877 83.2795 89.4215 82.3716 87.8567H55.3693H52.7419H50.1146V51.1102L26.017 24.9565C24.5574 26.3503 23.1824 27.8274 21.873 29.3659L44.2307 53.633H44.8598V54.316L44.886 54.3452L44.8598 54.3686V85.2227V90.4862H39.6065H26.4695H23.845H21.2176V77.3253H9.06305C13.0684 99.1091 29.2399 116.603 50.2678 122.51L47.312 129.894C20.085 121.86 0.198532 96.6726 0.198532 66.7954C0.198532 30.4496 29.6049 0.987791 65.8774 0.987791C69.4492 0.987791 72.9291 1.35049 76.3461 1.90038L73.3363 9.4205C70.8885 9.1046 68.4114 8.8823 65.876 8.8823ZM18.5961 33.572C11.978 42.9685 8.07778 54.414 8.07778 66.7954C8.07778 68.5708 8.16974 70.3229 8.32738 72.0589H26.468V74.6928V77.3253V85.2227H39.605V56.3752L31.3915 47.4613L23.756 58.057C23.8012 58.332 23.8436 58.6098 23.8436 58.8979C23.8436 61.8054 21.4906 64.1629 18.5888 64.1629C15.687 64.1629 13.334 61.8054 13.334 58.8979C13.334 55.9905 15.687 53.633 18.5888 53.633C19.1741 53.633 19.7259 53.7514 20.2514 53.9284L27.7569 43.5155L18.5961 33.572ZM55.3693 9.88557C45.8859 11.6332 37.2433 15.7326 29.9873 21.5007L44.0818 36.7997L55.3693 26.9396V9.88557Z" fill="#46D2EB"/>
<path d="M199.554 78.7159V16.9575H175.712V10.7428H230.567V16.9575H206.725V78.7159H199.554ZM238.223 79.2014C236.802 79.2014 235.59 78.6835 234.589 77.6478C233.587 76.612 233.087 75.3496 233.087 73.8607C233.087 72.3717 233.587 71.1256 234.589 70.1222C235.59 69.1187 236.802 68.617 238.223 68.617C239.645 68.617 240.872 69.1187 241.906 70.1222C242.94 71.1256 243.457 72.3717 243.457 73.8607C243.457 75.3496 242.94 76.612 241.906 77.6478C240.872 78.6835 239.645 79.2014 238.223 79.2014ZM313.721 78.7159H305.871L290.365 56.8674C288.62 57.0616 286.811 57.1587 284.937 57.1587H266.717V78.7159H259.545V10.7428H284.937C293.595 10.7428 300.379 12.8143 305.29 16.9575C310.2 21.1006 312.655 26.7974 312.655 34.0479C312.655 39.3562 311.315 43.8392 308.633 47.4968C305.952 51.1544 302.124 53.7924 297.149 55.4108L313.721 78.7159ZM284.743 51.0411C291.463 51.0411 296.6 49.5522 300.153 46.5743C303.707 43.5965 305.484 39.421 305.484 34.0479C305.484 28.5453 303.707 24.3212 300.153 21.3757C296.6 18.4302 291.463 16.9575 284.743 16.9575H266.717V51.0411H284.743ZM328.84 79.2014C327.419 79.2014 326.208 78.6835 325.206 77.6478C324.205 76.612 323.704 75.3496 323.704 73.8607C323.704 72.3717 324.205 71.1256 325.206 70.1222C326.208 69.1187 327.419 68.617 328.84 68.617C330.262 68.617 331.49 69.1187 332.523 70.1222C333.557 71.1256 334.074 72.3717 334.074 73.8607C334.074 75.3496 333.557 76.612 332.523 77.6478C331.49 78.6835 330.262 79.2014 328.84 79.2014ZM377.493 79.2985C368.706 79.2985 361.857 76.7738 356.946 71.7244C352.036 66.6749 349.581 59.3274 349.581 49.6817V10.7428H356.752V49.3904C356.752 57.2882 358.529 63.1792 362.083 67.0634C365.637 70.9475 370.773 72.8896 377.493 72.8896C384.277 72.8896 389.446 70.9475 392.999 67.0634C396.553 63.1792 398.33 57.2882 398.33 49.3904V10.7428H405.308V49.6817C405.308 59.3274 402.869 66.6749 397.991 71.7244C393.112 76.7738 386.28 79.2985 377.493 79.2985ZM425.273 79.2014C423.851 79.2014 422.64 78.6835 421.638 77.6478C420.637 76.612 420.136 75.3496 420.136 73.8607C420.136 72.3717 420.637 71.1256 421.638 70.1222C422.64 69.1187 423.851 68.617 425.273 68.617C426.694 68.617 427.922 69.1187 428.955 70.1222C429.989 71.1256 430.506 72.3717 430.506 73.8607C430.506 75.3496 429.989 76.612 428.955 77.6478C427.922 78.6835 426.694 79.2014 425.273 79.2014ZM465.299 79.2985C460.26 79.2985 455.43 78.4893 450.81 76.8709C446.19 75.2525 442.621 73.1162 440.101 70.462L442.911 64.9271C445.367 67.3871 448.63 69.3777 452.7 70.899C456.771 72.4203 460.97 73.181 465.299 73.181C471.373 73.181 475.928 72.0642 478.964 69.8308C482.001 67.5974 483.52 64.7005 483.52 61.14C483.52 58.4211 482.696 56.2524 481.048 54.634C479.401 53.0156 477.382 51.7694 474.991 50.8955C472.6 50.0215 469.273 49.0667 465.008 48.0309C459.904 46.7362 455.834 45.49 452.797 44.2924C449.76 43.0947 447.16 41.266 444.995 38.806C442.831 36.346 441.748 33.0121 441.748 28.8042C441.748 25.3732 442.653 22.2497 444.462 19.4336C446.271 16.6176 449.049 14.368 452.797 12.6849C456.544 11.0017 461.196 10.1602 466.753 10.1602C470.63 10.1602 474.426 10.6942 478.141 11.7624C481.856 12.8305 485.07 14.3033 487.784 16.1806L485.361 21.9098C482.518 20.0324 479.481 18.6244 476.251 17.6858C473.02 16.7471 469.854 16.2777 466.753 16.2777C460.809 16.2777 456.334 17.4268 453.33 19.7249C450.326 22.0231 448.823 24.9848 448.823 28.61C448.823 31.3289 449.647 33.5138 451.295 35.1646C452.942 36.8153 455.01 38.0777 457.497 38.9516C459.985 39.8256 463.329 40.7804 467.528 41.8162C472.503 43.0462 476.525 44.26 479.594 45.4576C482.663 46.6552 485.264 48.4679 487.396 50.8955C489.528 53.3231 490.594 56.6085 490.594 60.7516C490.594 64.1826 489.674 67.3061 487.832 70.1222C485.991 72.9382 483.164 75.1716 479.352 76.8224C475.54 78.4731 470.856 79.2985 465.299 79.2985ZM507.361 79.2014C505.94 79.2014 504.728 78.6835 503.727 77.6478C502.725 76.612 502.224 75.3496 502.224 73.8607C502.224 72.3717 502.725 71.1256 503.727 70.1222C504.728 69.1187 505.94 68.617 507.361 68.617C508.783 68.617 510.01 69.1187 511.044 70.1222C512.078 71.1256 512.595 72.3717 512.595 73.8607C512.595 75.3496 512.078 76.612 511.044 77.6478C510.01 78.6835 508.783 79.2014 507.361 79.2014ZM541.863 78.7159V16.9575H518.022V10.7428H572.877V16.9575H549.035V78.7159H541.863ZM580.533 79.2014C579.112 79.2014 577.9 78.6835 576.899 77.6478C575.897 76.612 575.397 75.3496 575.397 73.8607C575.397 72.3717 575.897 71.1256 576.899 70.1222C577.9 69.1187 579.112 68.617 580.533 68.617C581.955 68.617 583.182 69.1187 584.216 70.1222C585.25 71.1256 585.767 72.3717 585.767 73.8607C585.767 75.3496 585.25 76.612 584.216 77.6478C583.182 78.6835 581.955 79.2014 580.533 79.2014Z" fill="#24478F"/>
<path d="M151.477 107.299V108.933H144.819V126.018H142.977V108.933H136.32V107.299H151.477ZM157.845 112.229V113.864C156.634 113.899 155.582 114.233 154.687 114.866C153.792 115.498 153.161 116.368 152.792 117.476V126.018H151.003V112.282H152.687V115.577C153.196 114.523 153.88 113.697 154.739 113.099C155.599 112.502 156.52 112.203 157.502 112.203C157.643 112.203 157.757 112.211 157.845 112.229ZM163.502 126.282C162.853 126.282 162.252 126.172 161.7 125.952C161.147 125.732 160.665 125.429 160.252 125.043C159.84 124.656 159.52 124.203 159.292 123.685C159.064 123.166 158.95 122.608 158.95 122.011C158.95 121.413 159.09 120.859 159.371 120.35C159.651 119.84 160.046 119.4 160.555 119.031C161.064 118.662 161.669 118.377 162.371 118.174C163.072 117.972 163.844 117.871 164.686 117.871C165.388 117.871 166.098 117.933 166.818 118.056C167.537 118.179 168.177 118.355 168.739 118.583V117.344C168.739 116.131 168.397 115.169 167.712 114.457C167.028 113.745 166.081 113.389 164.87 113.389C164.169 113.389 163.449 113.53 162.713 113.811C161.976 114.092 161.23 114.496 160.476 115.024L159.844 113.837C161.616 112.642 163.335 112.045 165.002 112.045C166.721 112.045 168.072 112.528 169.054 113.495C170.037 114.461 170.528 115.797 170.528 117.502V123.698C170.528 124.19 170.747 124.436 171.186 124.436V126.018C170.888 126.071 170.66 126.097 170.502 126.097C170.046 126.097 169.69 125.983 169.436 125.754C169.182 125.526 169.046 125.209 169.028 124.805L168.975 123.724C168.344 124.55 167.55 125.183 166.594 125.623C165.638 126.062 164.607 126.282 163.502 126.282ZM163.923 124.911C164.853 124.911 165.708 124.735 166.489 124.383C167.269 124.032 167.861 123.566 168.265 122.986C168.423 122.828 168.541 122.656 168.62 122.472C168.699 122.287 168.739 122.116 168.739 121.958V119.717C168.142 119.488 167.524 119.312 166.883 119.189C166.243 119.066 165.59 119.005 164.923 119.005C163.66 119.005 162.634 119.269 161.844 119.796C161.055 120.323 160.66 121.017 160.66 121.879C160.66 122.301 160.744 122.696 160.91 123.065C161.077 123.434 161.305 123.755 161.594 124.027C161.884 124.3 162.23 124.515 162.634 124.673C163.037 124.832 163.467 124.911 163.923 124.911ZM180.001 126.018H178.133L172.554 112.282H174.396L179.106 124.357L183.843 112.282H185.58L180.001 126.018ZM193.5 126.282C192.5 126.282 191.584 126.093 190.75 125.715C189.917 125.337 189.193 124.818 188.579 124.159C187.965 123.5 187.487 122.74 187.145 121.879C186.803 121.017 186.632 120.095 186.632 119.11C186.632 118.144 186.803 117.234 187.145 116.382C187.487 115.529 187.961 114.782 188.566 114.141C189.172 113.499 189.895 112.989 190.737 112.611C191.579 112.233 192.492 112.045 193.474 112.045C194.474 112.045 195.39 112.233 196.224 112.611C197.057 112.989 197.772 113.503 198.368 114.154C198.965 114.804 199.43 115.551 199.763 116.395C200.096 117.238 200.263 118.135 200.263 119.084C200.263 119.225 200.263 119.365 200.263 119.506C200.263 119.646 200.254 119.743 200.237 119.796H188.501C188.553 120.534 188.724 121.215 189.014 121.839C189.303 122.463 189.676 123.004 190.132 123.461C190.588 123.918 191.11 124.274 191.698 124.528C192.285 124.783 192.913 124.911 193.579 124.911C194.018 124.911 194.456 124.849 194.895 124.726C195.333 124.603 195.737 124.436 196.105 124.225C196.474 124.014 196.807 123.755 197.105 123.447C197.403 123.14 197.632 122.801 197.789 122.432L199.342 122.854C199.131 123.364 198.833 123.825 198.447 124.238C198.061 124.651 197.614 125.012 197.105 125.319C196.597 125.627 196.035 125.864 195.421 126.031C194.807 126.198 194.167 126.282 193.5 126.282ZM188.474 118.425H198.553C198.5 117.687 198.329 117.014 198.039 116.408C197.75 115.802 197.382 115.279 196.934 114.839C196.487 114.4 195.969 114.057 195.382 113.811C194.794 113.565 194.167 113.442 193.5 113.442C192.834 113.442 192.202 113.565 191.606 113.811C191.009 114.057 190.487 114.4 190.04 114.839C189.593 115.279 189.233 115.806 188.961 116.421C188.689 117.036 188.527 117.704 188.474 118.425ZM203.105 123.513V106.771H204.894V122.907C204.894 123.417 205.035 123.817 205.315 124.107C205.596 124.397 205.991 124.542 206.499 124.542C206.692 124.542 206.92 124.515 207.184 124.462C207.447 124.41 207.692 124.339 207.92 124.252L208.236 125.702C207.903 125.842 207.495 125.957 207.013 126.044C206.53 126.132 206.113 126.176 205.763 126.176C204.938 126.176 204.289 125.943 203.815 125.478C203.342 125.012 203.105 124.357 203.105 123.513ZM218.288 126.018H216.446V107.299H224.34C225.147 107.299 225.889 107.47 226.564 107.813C227.239 108.156 227.823 108.604 228.314 109.158C228.805 109.711 229.187 110.34 229.458 111.043C229.73 111.746 229.866 112.458 229.866 113.178C229.866 113.864 229.765 114.518 229.564 115.142C229.362 115.766 229.081 116.329 228.722 116.83C228.362 117.331 227.928 117.753 227.419 118.095C226.91 118.438 226.34 118.671 225.709 118.794L230.287 126.018H228.209L223.814 119.11H218.288V126.018ZM218.288 108.933V117.476H224.393C224.937 117.476 225.432 117.357 225.88 117.12C226.327 116.883 226.709 116.562 227.024 116.157C227.34 115.753 227.586 115.296 227.761 114.786C227.937 114.277 228.024 113.741 228.024 113.178C228.024 112.616 227.923 112.075 227.722 111.557C227.52 111.038 227.248 110.586 226.906 110.199C226.564 109.812 226.16 109.505 225.696 109.276C225.231 109.048 224.744 108.933 224.235 108.933H218.288ZM237.366 126.282C235.875 126.282 234.765 125.785 234.037 124.792C233.309 123.799 232.945 122.318 232.945 120.35V112.282H234.734V120.033C234.734 123.144 235.796 124.7 237.918 124.7C238.445 124.7 238.962 124.612 239.471 124.436C239.98 124.26 240.449 124.005 240.879 123.672C241.309 123.338 241.695 122.942 242.037 122.485C242.379 122.028 242.655 121.51 242.866 120.93V112.282H244.655V123.698C244.655 124.19 244.865 124.436 245.286 124.436V126.018C245.076 126.053 244.905 126.071 244.773 126.071C244.642 126.071 244.55 126.071 244.497 126.071C244.076 126.053 243.734 125.904 243.471 125.623C243.208 125.341 243.076 124.963 243.076 124.489V122.907C242.48 123.979 241.668 124.81 240.642 125.398C239.616 125.987 238.524 126.282 237.366 126.282ZM248.786 123.513V106.771H250.576V122.907C250.576 123.417 250.716 123.817 250.997 124.107C251.277 124.397 251.672 124.542 252.181 124.542C252.374 124.542 252.602 124.515 252.865 124.462C253.128 124.41 253.374 124.339 253.602 124.252L253.917 125.702C253.584 125.842 253.176 125.957 252.694 126.044C252.211 126.132 251.795 126.176 251.444 126.176C250.619 126.176 249.97 125.943 249.497 125.478C249.023 125.012 248.786 124.357 248.786 123.513ZM261.785 126.282C260.785 126.282 259.869 126.093 259.036 125.715C258.202 125.337 257.479 124.818 256.865 124.159C256.251 123.5 255.773 122.74 255.431 121.879C255.088 121.017 254.917 120.095 254.917 119.11C254.917 118.144 255.088 117.234 255.431 116.382C255.773 115.529 256.246 114.782 256.852 114.141C257.457 113.499 258.18 112.989 259.022 112.611C259.864 112.233 260.777 112.045 261.759 112.045C262.759 112.045 263.676 112.233 264.509 112.611C265.342 112.989 266.057 113.503 266.654 114.154C267.25 114.804 267.715 115.551 268.048 116.395C268.381 117.238 268.548 118.135 268.548 119.084C268.548 119.225 268.548 119.365 268.548 119.506C268.548 119.646 268.539 119.743 268.522 119.796H256.786C256.838 120.534 257.009 121.215 257.299 121.839C257.588 122.463 257.961 123.004 258.417 123.461C258.873 123.918 259.395 124.274 259.983 124.528C260.571 124.783 261.198 124.911 261.864 124.911C262.303 124.911 262.741 124.849 263.18 124.726C263.619 124.603 264.022 124.436 264.391 124.225C264.759 124.014 265.092 123.755 265.39 123.447C265.689 123.14 265.917 122.801 266.075 122.432L267.627 122.854C267.417 123.364 267.118 123.825 266.732 124.238C266.347 124.651 265.899 125.012 265.39 125.319C264.882 125.627 264.32 125.864 263.706 126.031C263.092 126.198 262.452 126.282 261.785 126.282ZM256.759 118.425H266.838C266.785 117.687 266.614 117.014 266.325 116.408C266.035 115.802 265.667 115.279 265.219 114.839C264.772 114.4 264.255 114.057 263.667 113.811C263.079 113.565 262.452 113.442 261.785 113.442C261.119 113.442 260.487 113.565 259.891 113.811C259.294 114.057 258.772 114.4 258.325 114.839C257.878 115.279 257.518 115.806 257.246 116.421C256.974 117.036 256.812 117.704 256.759 118.425ZM285.968 124.489C287.143 124.489 288.121 124.265 288.902 123.817C289.683 123.368 290.306 122.78 290.77 122.05C291.235 121.321 291.56 120.49 291.744 119.559C291.928 118.627 292.02 117.687 292.02 116.737V107.299H293.862V116.737C293.862 118.003 293.722 119.203 293.441 120.336C293.161 121.47 292.709 122.468 292.086 123.329C291.463 124.19 290.652 124.876 289.652 125.385C288.652 125.895 287.433 126.15 285.994 126.15C284.521 126.15 283.28 125.882 282.271 125.346C281.262 124.81 280.451 124.102 279.837 123.223C279.223 122.344 278.784 121.343 278.521 120.218C278.258 119.093 278.126 117.933 278.126 116.737V107.299H279.942V116.737C279.942 117.722 280.039 118.68 280.232 119.611C280.425 120.543 280.754 121.369 281.218 122.09C281.683 122.81 282.302 123.39 283.074 123.83C283.845 124.269 284.81 124.489 285.968 124.489ZM309.414 117.977V126.018H307.625V118.346C307.625 116.711 307.383 115.525 306.901 114.786C306.419 114.048 305.677 113.679 304.677 113.679C304.151 113.679 303.625 113.776 303.099 113.969C302.572 114.163 302.086 114.435 301.638 114.786C301.191 115.138 300.792 115.555 300.441 116.039C300.09 116.522 299.836 117.045 299.678 117.608V126.018H297.888V112.282H299.52V115.393C300.081 114.391 300.884 113.582 301.928 112.967C302.971 112.352 304.107 112.045 305.335 112.045C306.09 112.045 306.73 112.185 307.256 112.466C307.783 112.748 308.204 113.143 308.519 113.653C308.835 114.163 309.063 114.786 309.203 115.525C309.344 116.263 309.414 117.08 309.414 117.977ZM315.019 126.018H313.23V112.282H315.019V126.018ZM315.019 109.408H313.23V106.771H315.019V109.408ZM324.939 126.018H323.071L317.492 112.282H319.334L324.045 124.357L328.781 112.282H330.518L324.939 126.018ZM338.438 126.282C337.439 126.282 336.522 126.093 335.689 125.715C334.855 125.337 334.132 124.818 333.518 124.159C332.904 123.5 332.426 122.74 332.084 121.879C331.742 121.017 331.571 120.095 331.571 119.11C331.571 118.144 331.742 117.234 332.084 116.382C332.426 115.529 332.899 114.782 333.505 114.141C334.11 113.499 334.833 112.989 335.676 112.611C336.518 112.233 337.43 112.045 338.412 112.045C339.412 112.045 340.329 112.233 341.162 112.611C341.995 112.989 342.71 113.503 343.307 114.154C343.903 114.804 344.368 115.551 344.701 116.395C345.035 117.238 345.201 118.135 345.201 119.084C345.201 119.225 345.201 119.365 345.201 119.506C345.201 119.646 345.192 119.743 345.175 119.796H333.439C333.491 120.534 333.662 121.215 333.952 121.839C334.241 122.463 334.614 123.004 335.07 123.461C335.526 123.918 336.048 124.274 336.636 124.528C337.224 124.783 337.851 124.911 338.517 124.911C338.956 124.911 339.395 124.849 339.833 124.726C340.272 124.603 340.675 124.436 341.044 124.225C341.412 124.014 341.745 123.755 342.044 123.447C342.342 123.14 342.57 122.801 342.728 122.432L344.28 122.854C344.07 123.364 343.771 123.825 343.386 124.238C343 124.651 342.552 125.012 342.044 125.319C341.535 125.627 340.973 125.864 340.359 126.031C339.745 126.198 339.105 126.282 338.438 126.282ZM333.413 118.425H343.491C343.438 117.687 343.267 117.014 342.978 116.408C342.688 115.802 342.32 115.279 341.872 114.839C341.425 114.4 340.908 114.057 340.32 113.811C339.732 113.565 339.105 113.442 338.438 113.442C337.772 113.442 337.14 113.565 336.544 113.811C335.947 114.057 335.426 114.4 334.978 114.839C334.531 115.279 334.171 115.806 333.899 116.421C333.627 117.036 333.465 117.704 333.413 118.425ZM354.806 112.229V113.864C353.595 113.899 352.543 114.233 351.648 114.866C350.754 115.498 350.122 116.368 349.754 117.476V126.018H347.964V112.282H349.648V115.577C350.157 114.523 350.841 113.697 351.701 113.099C352.56 112.502 353.481 112.203 354.464 112.203C354.604 112.203 354.718 112.211 354.806 112.229ZM361.753 126.282C360.683 126.282 359.639 126.106 358.621 125.754C357.604 125.403 356.727 124.893 355.99 124.225L356.806 123.012C357.578 123.645 358.363 124.12 359.161 124.436C359.959 124.752 360.814 124.911 361.727 124.911C362.832 124.911 363.713 124.687 364.371 124.238C365.029 123.79 365.358 123.153 365.358 122.327C365.358 121.94 365.27 121.619 365.095 121.365C364.919 121.11 364.661 120.886 364.318 120.692C363.976 120.499 363.547 120.328 363.029 120.178C362.512 120.029 361.911 119.875 361.227 119.717C360.437 119.523 359.753 119.33 359.174 119.137C358.595 118.943 358.117 118.724 357.74 118.478C357.363 118.232 357.082 117.928 356.898 117.568C356.714 117.208 356.622 116.755 356.622 116.21C356.622 115.525 356.758 114.918 357.029 114.391C357.301 113.864 357.67 113.429 358.135 113.086C358.6 112.743 359.143 112.484 359.766 112.308C360.389 112.132 361.051 112.045 361.753 112.045C362.805 112.045 363.761 112.216 364.621 112.559C365.481 112.901 366.174 113.354 366.7 113.916L365.832 114.971C365.323 114.444 364.704 114.048 363.976 113.785C363.248 113.521 362.49 113.389 361.7 113.389C361.227 113.389 360.788 113.437 360.384 113.534C359.981 113.631 359.626 113.785 359.319 113.996C359.012 114.206 358.771 114.474 358.595 114.8C358.42 115.125 358.332 115.507 358.332 115.947C358.332 116.316 358.393 116.614 358.516 116.843C358.639 117.071 358.841 117.269 359.121 117.436C359.402 117.603 359.757 117.753 360.187 117.884C360.617 118.016 361.139 118.152 361.753 118.293C362.63 118.504 363.402 118.715 364.068 118.926C364.735 119.137 365.292 119.383 365.739 119.664C366.187 119.945 366.524 120.288 366.753 120.692C366.981 121.097 367.095 121.589 367.095 122.169C367.095 123.434 366.612 124.436 365.647 125.174C364.682 125.913 363.384 126.282 361.753 126.282ZM373.463 126.282C372.814 126.282 372.213 126.172 371.66 125.952C371.107 125.732 370.625 125.429 370.213 125.043C369.801 124.656 369.48 124.203 369.252 123.685C369.024 123.166 368.91 122.608 368.91 122.011C368.91 121.413 369.051 120.859 369.331 120.35C369.612 119.84 370.007 119.4 370.515 119.031C371.024 118.662 371.629 118.377 372.331 118.174C373.033 117.972 373.805 117.871 374.647 117.871C375.348 117.871 376.059 117.933 376.778 118.056C377.497 118.179 378.138 118.355 378.699 118.583V117.344C378.699 116.131 378.357 115.169 377.673 114.457C376.989 113.745 376.041 113.389 374.831 113.389C374.129 113.389 373.41 113.53 372.673 113.811C371.936 114.092 371.191 114.496 370.436 115.024L369.805 113.837C371.577 112.642 373.296 112.045 374.963 112.045C376.682 112.045 378.033 112.528 379.015 113.495C379.997 114.461 380.488 115.797 380.488 117.502V123.698C380.488 124.19 380.708 124.436 381.146 124.436V126.018C380.848 126.071 380.62 126.097 380.462 126.097C380.006 126.097 379.651 125.983 379.396 125.754C379.142 125.526 379.006 125.209 378.989 124.805L378.936 123.724C378.304 124.55 377.511 125.183 376.555 125.623C375.598 126.062 374.568 126.282 373.463 126.282ZM373.884 124.911C374.813 124.911 375.669 124.735 376.449 124.383C377.23 124.032 377.822 123.566 378.225 122.986C378.383 122.828 378.502 122.656 378.581 122.472C378.66 122.287 378.699 122.116 378.699 121.958V119.717C378.103 119.488 377.484 119.312 376.844 119.189C376.204 119.066 375.55 119.005 374.884 119.005C373.62 119.005 372.594 119.269 371.805 119.796C371.015 120.323 370.621 121.017 370.621 121.879C370.621 122.301 370.704 122.696 370.871 123.065C371.037 123.434 371.265 123.755 371.555 124.027C371.844 124.3 372.191 124.515 372.594 124.673C372.998 124.832 373.428 124.911 373.884 124.911ZM384.436 123.513V106.771H386.225V122.907C386.225 123.417 386.365 123.817 386.646 124.107C386.927 124.397 387.321 124.542 387.83 124.542C388.023 124.542 388.251 124.515 388.514 124.462C388.777 124.41 389.023 124.339 389.251 124.252L389.567 125.702C389.234 125.842 388.826 125.957 388.343 126.044C387.861 126.132 387.444 126.176 387.093 126.176C386.269 126.176 385.62 125.943 385.146 125.478C384.672 125.012 384.436 124.357 384.436 123.513ZM409.592 109.329L408.697 110.805C408.171 110.208 407.469 109.724 406.592 109.355C405.715 108.986 404.715 108.802 403.592 108.802C401.943 108.802 400.742 109.114 399.987 109.738C399.233 110.362 398.856 111.21 398.856 112.282C398.856 112.844 398.957 113.306 399.158 113.666C399.36 114.026 399.671 114.338 400.093 114.602C400.514 114.866 401.053 115.094 401.711 115.287C402.369 115.481 403.145 115.674 404.04 115.867C405.04 116.078 405.939 116.316 406.737 116.579C407.535 116.843 408.215 117.173 408.776 117.568C409.338 117.963 409.767 118.442 410.066 119.005C410.364 119.567 410.513 120.27 410.513 121.114C410.513 121.975 410.346 122.722 410.013 123.355C409.68 123.988 409.215 124.515 408.618 124.937C408.022 125.359 407.311 125.671 406.487 125.873C405.662 126.075 404.759 126.176 403.777 126.176C400.882 126.176 398.382 125.271 396.277 123.461L397.198 121.958C397.531 122.309 397.93 122.643 398.395 122.96C398.86 123.276 399.378 123.553 399.948 123.79C400.518 124.027 401.128 124.212 401.777 124.344C402.426 124.476 403.11 124.542 403.829 124.542C405.32 124.542 406.482 124.274 407.316 123.737C408.149 123.201 408.566 122.388 408.566 121.299C408.566 120.719 408.447 120.231 408.21 119.835C407.974 119.44 407.618 119.097 407.145 118.807C406.671 118.517 406.083 118.267 405.382 118.056C404.68 117.845 403.864 117.634 402.934 117.423C401.952 117.194 401.092 116.957 400.356 116.711C399.619 116.465 398.996 116.157 398.487 115.788C397.979 115.419 397.597 114.975 397.343 114.457C397.088 113.938 396.961 113.301 396.961 112.545C396.961 111.684 397.123 110.915 397.448 110.238C397.773 109.562 398.233 108.999 398.829 108.551C399.426 108.103 400.128 107.76 400.935 107.523C401.742 107.286 402.636 107.167 403.619 107.167C404.864 107.167 405.974 107.356 406.947 107.734C407.921 108.112 408.803 108.643 409.592 109.329ZM419.223 126.282C418.223 126.282 417.311 126.093 416.486 125.715C415.662 125.337 414.947 124.823 414.342 124.172C413.736 123.522 413.267 122.766 412.934 121.905C412.601 121.044 412.434 120.139 412.434 119.189C412.434 118.223 412.605 117.309 412.947 116.447C413.289 115.586 413.763 114.83 414.368 114.18C414.973 113.53 415.688 113.011 416.513 112.625C417.337 112.238 418.241 112.045 419.223 112.045C420.205 112.045 421.113 112.238 421.946 112.625C422.78 113.011 423.499 113.53 424.104 114.18C424.709 114.83 425.183 115.586 425.525 116.447C425.867 117.309 426.038 118.223 426.038 119.189C426.038 120.139 425.872 121.044 425.538 121.905C425.205 122.766 424.736 123.522 424.131 124.172C423.525 124.823 422.806 125.337 421.973 125.715C421.139 126.093 420.223 126.282 419.223 126.282ZM414.25 119.216C414.25 119.989 414.381 120.705 414.644 121.365C414.907 122.024 415.263 122.604 415.71 123.105C416.157 123.606 416.684 123.997 417.289 124.278C417.894 124.559 418.539 124.7 419.223 124.7C419.907 124.7 420.552 124.555 421.157 124.265C421.762 123.975 422.293 123.579 422.749 123.078C423.205 122.577 423.565 121.993 423.828 121.325C424.091 120.657 424.223 119.936 424.223 119.163C424.223 118.407 424.091 117.691 423.828 117.014C423.565 116.338 423.205 115.749 422.749 115.248C422.293 114.747 421.762 114.351 421.157 114.061C420.552 113.771 419.907 113.626 419.223 113.626C418.539 113.626 417.898 113.771 417.302 114.061C416.706 114.351 416.179 114.751 415.723 115.261C415.267 115.771 414.907 116.364 414.644 117.041C414.381 117.717 414.25 118.442 414.25 119.216ZM429.117 123.513V106.771H430.906V122.907C430.906 123.417 431.047 123.817 431.327 124.107C431.608 124.397 432.003 124.542 432.512 124.542C432.705 124.542 432.933 124.515 433.196 124.462C433.459 124.41 433.704 124.339 433.933 124.252L434.248 125.702C433.915 125.842 433.507 125.957 433.025 126.044C432.542 126.132 432.126 126.176 431.775 126.176C430.95 126.176 430.301 125.943 429.827 125.478C429.354 125.012 429.117 124.357 429.117 123.513ZM440.485 126.282C438.994 126.282 437.884 125.785 437.156 124.792C436.428 123.799 436.064 122.318 436.064 120.35V112.282H437.853V120.033C437.853 123.144 438.915 124.7 441.037 124.7C441.564 124.7 442.081 124.612 442.59 124.436C443.099 124.26 443.568 124.005 443.998 123.672C444.427 123.338 444.813 122.942 445.156 122.485C445.498 122.028 445.774 121.51 445.984 120.93V112.282H447.774V123.698C447.774 124.19 447.984 124.436 448.405 124.436V126.018C448.195 126.053 448.024 126.071 447.892 126.071C447.761 126.071 447.669 126.071 447.616 126.071C447.195 126.053 446.853 125.904 446.59 125.623C446.326 125.341 446.195 124.963 446.195 124.489V122.907C445.598 123.979 444.787 124.81 443.761 125.398C442.735 125.987 441.643 126.282 440.485 126.282ZM457.931 123.909L458.405 125.359C458.299 125.412 458.146 125.482 457.944 125.57C457.742 125.658 457.51 125.746 457.247 125.833C456.984 125.921 456.686 126 456.352 126.071C456.019 126.141 455.668 126.176 455.3 126.176C454.914 126.176 454.545 126.123 454.194 126.018C453.844 125.913 453.537 125.75 453.273 125.53C453.01 125.311 452.8 125.034 452.642 124.7C452.484 124.366 452.405 123.979 452.405 123.54V113.706H450.51V112.282H452.405V107.642H454.194V112.282H457.352V113.706H454.194V123.039C454.229 123.548 454.409 123.922 454.734 124.159C455.058 124.397 455.431 124.515 455.852 124.515C456.361 124.515 456.808 124.432 457.194 124.265C457.58 124.098 457.826 123.979 457.931 123.909ZM462.431 126.018H460.641V112.282H462.431V126.018ZM462.431 109.408H460.641V106.771H462.431V109.408ZM472.22 126.282C471.22 126.282 470.307 126.093 469.483 125.715C468.658 125.337 467.944 124.823 467.338 124.172C466.733 123.522 466.264 122.766 465.931 121.905C465.597 121.044 465.431 120.139 465.431 119.189C465.431 118.223 465.602 117.309 465.944 116.447C466.286 115.586 466.759 114.83 467.365 114.18C467.97 113.53 468.685 113.011 469.509 112.625C470.334 112.238 471.237 112.045 472.22 112.045C473.202 112.045 474.11 112.238 474.943 112.625C475.776 113.011 476.496 113.53 477.101 114.18C477.706 114.83 478.18 115.586 478.522 116.447C478.864 117.309 479.035 118.223 479.035 119.189C479.035 120.139 478.868 121.044 478.535 121.905C478.202 122.766 477.732 123.522 477.127 124.172C476.522 124.823 475.803 125.337 474.969 125.715C474.136 126.093 473.22 126.282 472.22 126.282ZM467.246 119.216C467.246 119.989 467.378 120.705 467.641 121.365C467.904 122.024 468.259 122.604 468.707 123.105C469.154 123.606 469.68 123.997 470.286 124.278C470.891 124.559 471.535 124.7 472.22 124.7C472.904 124.7 473.548 124.555 474.154 124.265C474.759 123.975 475.29 123.579 475.746 123.078C476.202 122.577 476.561 121.993 476.825 121.325C477.088 120.657 477.219 119.936 477.219 119.163C477.219 118.407 477.088 117.691 476.825 117.014C476.561 116.338 476.202 115.749 475.746 115.248C475.29 114.747 474.759 114.351 474.154 114.061C473.548 113.771 472.904 113.626 472.22 113.626C471.535 113.626 470.895 113.771 470.299 114.061C469.702 114.351 469.176 114.751 468.72 115.261C468.264 115.771 467.904 116.364 467.641 117.041C467.378 117.717 467.246 118.442 467.246 119.216ZM493.56 117.977V126.018H491.771V118.346C491.771 116.711 491.53 115.525 491.047 114.786C490.565 114.048 489.824 113.679 488.824 113.679C488.298 113.679 487.771 113.776 487.245 113.969C486.719 114.163 486.232 114.435 485.785 114.786C485.337 115.138 484.938 115.555 484.587 116.039C484.236 116.522 483.982 117.045 483.824 117.608V126.018H482.035V112.282H483.666V115.393C484.228 114.391 485.03 113.582 486.074 112.967C487.118 112.352 488.254 112.045 489.482 112.045C490.236 112.045 490.876 112.185 491.403 112.466C491.929 112.748 492.35 113.143 492.666 113.653C492.981 114.163 493.21 114.786 493.35 115.525C493.49 116.263 493.56 117.08 493.56 117.977ZM516.98 107.299V108.933H510.322V126.018H508.48V108.933H501.823V107.299H516.98ZM522.322 126.282C521.322 126.282 520.405 126.093 519.572 125.715C518.739 125.337 518.015 124.818 517.401 124.159C516.787 123.5 516.309 122.74 515.967 121.879C515.625 121.017 515.454 120.095 515.454 119.11C515.454 118.144 515.625 117.234 515.967 116.382C516.309 115.529 516.783 114.782 517.388 114.141C517.993 113.499 518.717 112.989 519.559 112.611C520.401 112.233 521.313 112.045 522.295 112.045C523.295 112.045 524.212 112.233 525.045 112.611C525.878 112.989 526.593 113.503 527.19 114.154C527.786 114.804 528.251 115.551 528.584 116.395C528.918 117.238 529.084 118.135 529.084 119.084C529.084 119.225 529.084 119.365 529.084 119.506C529.084 119.646 529.076 119.743 529.058 119.796H517.322C517.375 120.534 517.546 121.215 517.835 121.839C518.125 122.463 518.497 123.004 518.954 123.461C519.41 123.918 519.932 124.274 520.519 124.528C521.107 124.783 521.734 124.911 522.401 124.911C522.839 124.911 523.278 124.849 523.716 124.726C524.155 124.603 524.558 124.436 524.927 124.225C525.295 124.014 525.629 123.755 525.927 123.447C526.225 123.14 526.453 122.801 526.611 122.432L528.163 122.854C527.953 123.364 527.655 123.825 527.269 124.238C526.883 124.651 526.436 125.012 525.927 125.319C525.418 125.627 524.857 125.864 524.243 126.031C523.629 126.198 522.988 126.282 522.322 126.282ZM517.296 118.425H527.374C527.321 117.687 527.15 117.014 526.861 116.408C526.571 115.802 526.203 115.279 525.756 114.839C525.308 114.4 524.791 114.057 524.203 113.811C523.615 113.565 522.988 113.442 522.322 113.442C521.655 113.442 521.024 113.565 520.427 113.811C519.831 114.057 519.309 114.4 518.861 114.839C518.414 115.279 518.054 115.806 517.783 116.421C517.511 117.036 517.348 117.704 517.296 118.425ZM530.9 119.11C530.9 118.144 531.067 117.23 531.4 116.368C531.733 115.507 532.203 114.756 532.808 114.114C533.413 113.473 534.137 112.967 534.979 112.598C535.821 112.229 536.751 112.045 537.768 112.045C539.066 112.045 540.198 112.339 541.163 112.928C542.127 113.517 542.856 114.312 543.347 115.314L541.61 115.867C541.224 115.164 540.685 114.615 539.992 114.22C539.299 113.824 538.531 113.626 537.689 113.626C536.987 113.626 536.334 113.767 535.729 114.048C535.124 114.329 534.597 114.712 534.15 115.195C533.703 115.678 533.352 116.254 533.097 116.922C532.843 117.59 532.716 118.319 532.716 119.11C532.716 119.884 532.847 120.613 533.111 121.299C533.374 121.984 533.733 122.577 534.189 123.078C534.645 123.579 535.176 123.975 535.781 124.265C536.387 124.555 537.031 124.7 537.715 124.7C538.154 124.7 538.588 124.638 539.018 124.515C539.448 124.392 539.847 124.221 540.215 124.001C540.584 123.781 540.899 123.531 541.163 123.25C541.426 122.968 541.61 122.67 541.715 122.353L543.478 122.881C543.285 123.373 543.005 123.825 542.636 124.238C542.268 124.651 541.834 125.012 541.334 125.319C540.834 125.627 540.281 125.864 539.676 126.031C539.071 126.198 538.444 126.282 537.794 126.282C536.795 126.282 535.874 126.093 535.031 125.715C534.189 125.337 533.461 124.818 532.847 124.159C532.233 123.5 531.755 122.74 531.413 121.879C531.071 121.017 530.9 120.095 530.9 119.11ZM557.82 117.977V126.018H556.03V118.346C556.03 116.781 555.763 115.613 555.228 114.839C554.692 114.066 553.907 113.679 552.872 113.679C552.364 113.679 551.859 113.78 551.359 113.982C550.859 114.184 550.39 114.461 549.952 114.813C549.513 115.164 549.131 115.577 548.807 116.052C548.482 116.527 548.241 117.045 548.083 117.608V126.018H546.294V106.771H548.083V115.393C548.627 114.356 549.381 113.539 550.346 112.941C551.311 112.343 552.355 112.045 553.478 112.045C554.267 112.045 554.934 112.19 555.478 112.48C556.021 112.77 556.469 113.174 556.82 113.692C557.17 114.211 557.425 114.835 557.583 115.564C557.741 116.294 557.82 117.098 557.82 117.977ZM573.161 117.977V126.018H571.371V118.346C571.371 116.711 571.13 115.525 570.648 114.786C570.165 114.048 569.424 113.679 568.424 113.679C567.898 113.679 567.372 113.776 566.845 113.969C566.319 114.163 565.832 114.435 565.385 114.786C564.937 115.138 564.538 115.555 564.188 116.039C563.837 116.522 563.582 117.045 563.424 117.608V126.018H561.635V112.282H563.266V115.393C563.828 114.391 564.63 113.582 565.674 112.967C566.718 112.352 567.854 112.045 569.082 112.045C569.836 112.045 570.477 112.185 571.003 112.466C571.529 112.748 571.95 113.143 572.266 113.653C572.582 114.163 572.81 114.786 572.95 115.525C573.09 116.263 573.161 117.08 573.161 117.977ZM582.818 126.282C581.818 126.282 580.906 126.093 580.081 125.715C579.257 125.337 578.542 124.823 577.937 124.172C577.331 123.522 576.862 122.766 576.529 121.905C576.196 121.044 576.029 120.139 576.029 119.189C576.029 118.223 576.2 117.309 576.542 116.447C576.884 115.586 577.358 114.83 577.963 114.18C578.568 113.53 579.283 113.011 580.108 112.625C580.932 112.238 581.836 112.045 582.818 112.045C583.8 112.045 584.708 112.238 585.541 112.625C586.375 113.011 587.094 113.53 587.699 114.18C588.304 114.83 588.778 115.586 589.12 116.447C589.462 117.309 589.633 118.223 589.633 119.189C589.633 120.139 589.467 121.044 589.133 121.905C588.8 122.766 588.331 123.522 587.726 124.172C587.12 124.823 586.401 125.337 585.568 125.715C584.734 126.093 583.818 126.282 582.818 126.282ZM577.845 119.216C577.845 119.989 577.976 120.705 578.239 121.365C578.502 122.024 578.858 122.604 579.305 123.105C579.752 123.606 580.279 123.997 580.884 124.278C581.489 124.559 582.134 124.7 582.818 124.7C583.502 124.7 584.147 124.555 584.752 124.265C585.357 123.975 585.888 123.579 586.344 123.078C586.8 122.577 587.16 121.993 587.423 121.325C587.686 120.657 587.818 119.936 587.818 119.163C587.818 118.407 587.686 117.691 587.423 117.014C587.16 116.338 586.8 115.749 586.344 115.248C585.888 114.747 585.357 114.351 584.752 114.061C584.147 113.771 583.502 113.626 582.818 113.626C582.134 113.626 581.493 113.771 580.897 114.061C580.301 114.351 579.774 114.751 579.318 115.261C578.862 115.771 578.502 116.364 578.239 117.041C577.976 117.717 577.845 118.442 577.845 119.216ZM592.712 123.513V106.771H594.501V122.907C594.501 123.417 594.642 123.817 594.922 124.107C595.203 124.397 595.598 124.542 596.107 124.542C596.3 124.542 596.528 124.515 596.791 124.462C597.054 124.41 597.299 124.339 597.528 124.252L597.843 125.702C597.51 125.842 597.102 125.957 596.62 126.044C596.137 126.132 595.721 126.176 595.37 126.176C594.545 126.176 593.896 125.943 593.423 125.478C592.949 125.012 592.712 124.357 592.712 123.513ZM605.632 126.282C604.632 126.282 603.72 126.093 602.896 125.715C602.071 125.337 601.356 124.823 600.751 124.172C600.146 123.522 599.677 122.766 599.343 121.905C599.01 121.044 598.843 120.139 598.843 119.189C598.843 118.223 599.014 117.309 599.356 116.447C599.698 115.586 600.172 114.83 600.777 114.18C601.383 113.53 602.097 113.011 602.922 112.625C603.746 112.238 604.65 112.045 605.632 112.045C606.615 112.045 607.523 112.238 608.356 112.625C609.189 113.011 609.908 113.53 610.514 114.18C611.119 114.83 611.592 115.586 611.935 116.447C612.277 117.309 612.448 118.223 612.448 119.189C612.448 120.139 612.281 121.044 611.948 121.905C611.614 122.766 611.145 123.522 610.54 124.172C609.935 124.823 609.215 125.337 608.382 125.715C607.549 126.093 606.632 126.282 605.632 126.282ZM600.659 119.216C600.659 119.989 600.79 120.705 601.054 121.365C601.317 122.024 601.672 122.604 602.119 123.105C602.567 123.606 603.093 123.997 603.698 124.278C604.303 124.559 604.948 124.7 605.632 124.7C606.316 124.7 606.961 124.555 607.566 124.265C608.172 123.975 608.702 123.579 609.158 123.078C609.614 122.577 609.974 121.993 610.237 121.325C610.5 120.657 610.632 119.936 610.632 119.163C610.632 118.407 610.5 117.691 610.237 117.014C609.974 116.338 609.614 115.749 609.158 115.248C608.702 114.747 608.172 114.351 607.566 114.061C606.961 113.771 606.316 113.626 605.632 113.626C604.948 113.626 604.308 113.771 603.711 114.061C603.115 114.351 602.589 114.751 602.133 115.261C601.676 115.771 601.317 116.364 601.054 117.041C600.79 117.717 600.659 118.442 600.659 119.216ZM620.947 126.203C620 126.203 619.136 126.005 618.355 125.609C617.575 125.214 616.899 124.691 616.329 124.041C615.759 123.39 615.316 122.643 615 121.8C614.684 120.956 614.526 120.086 614.526 119.189C614.526 118.24 614.68 117.331 614.987 116.461C615.294 115.591 615.728 114.83 616.29 114.18C616.851 113.53 617.522 113.011 618.303 112.625C619.083 112.238 619.947 112.045 620.894 112.045C622.07 112.045 623.087 112.339 623.947 112.928C624.807 113.517 625.543 114.259 626.157 115.156V112.282H627.762V126.071C627.762 127.02 627.583 127.859 627.223 128.589C626.863 129.318 626.381 129.929 625.776 130.421C625.171 130.913 624.46 131.282 623.644 131.528C622.829 131.774 621.965 131.897 621.052 131.897C619.474 131.897 618.202 131.616 617.237 131.054C616.272 130.491 615.491 129.736 614.895 128.786L616 127.916C616.544 128.795 617.263 129.441 618.158 129.854C619.053 130.267 620.017 130.474 621.052 130.474C621.719 130.474 622.351 130.381 622.947 130.197C623.543 130.012 624.065 129.74 624.513 129.38C624.96 129.019 625.315 128.562 625.578 128.009C625.842 127.455 625.973 126.809 625.973 126.071V123.355C625.447 124.234 624.728 124.928 623.815 125.438C622.903 125.948 621.947 126.203 620.947 126.203ZM621.447 124.7C621.973 124.7 622.491 124.603 623 124.41C623.508 124.216 623.969 123.957 624.381 123.632C624.793 123.307 625.14 122.942 625.421 122.538C625.701 122.134 625.885 121.721 625.973 121.299V117.054C625.78 116.562 625.517 116.105 625.184 115.683C624.85 115.261 624.473 114.901 624.052 114.602C623.631 114.303 623.179 114.066 622.697 113.89C622.215 113.714 621.728 113.626 621.237 113.626C620.465 113.626 619.776 113.789 619.171 114.114C618.566 114.439 618.053 114.866 617.632 115.393C617.211 115.92 616.89 116.518 616.671 117.186C616.452 117.854 616.342 118.53 616.342 119.216C616.342 119.954 616.474 120.657 616.737 121.325C617 121.993 617.364 122.577 617.829 123.078C618.294 123.579 618.833 123.975 619.447 124.265C620.061 124.555 620.728 124.7 621.447 124.7ZM632.499 131.818V130.236C632.639 130.254 632.775 130.267 632.907 130.276C633.038 130.285 633.166 130.289 633.288 130.289C633.604 130.289 633.854 130.245 634.038 130.157C634.223 130.069 634.402 129.876 634.578 129.577C634.753 129.279 634.951 128.848 635.17 128.285C635.389 127.723 635.701 126.967 636.104 126.018L630.131 112.282H631.973L637.051 124.357L641.762 112.282H643.472L636.367 129.999C636.174 130.509 635.854 130.953 635.407 131.331C634.959 131.708 634.35 131.897 633.578 131.897C633.402 131.897 633.236 131.893 633.078 131.884C632.92 131.875 632.727 131.853 632.499 131.818Z" fill="#24478F"/>
</svg>
