<svg width="3702" height="541" viewBox="0 0 3702 541" fill="none" xmlns="http://www.w3.org/2000/svg">
<g clip-path="url(#clip0)">
<path d="M34.7131 217.189L16.2032 235.702C11.08 240.624 7.00396 246.53 4.21958 253.067C1.43521 259.604 0 266.635 0 273.741C0 280.846 1.43521 287.878 4.21958 294.414C7.00396 300.951 11.08 306.858 16.2032 311.78L165.322 462.389C168.857 466.006 172.97 469.006 177.493 471.265V288.703L34.7131 217.189Z" fill="#3D89F5"/>
<path d="M370.985 217.189L389.495 235.702C394.619 240.624 398.695 246.53 401.479 253.067C404.264 259.604 405.699 266.635 405.699 273.741C405.699 280.846 404.264 287.878 401.479 294.414C398.695 300.951 394.619 306.858 389.495 311.78L240.377 462.389C236.842 466.006 232.728 469.006 228.206 471.265V288.703L370.985 217.189Z" fill="#1656B9"/>
<path d="M335.182 179.404L241.872 85.8282C236.931 80.7363 231.02 76.6878 224.487 73.9233C217.953 71.1588 210.931 69.7344 203.837 69.7344C196.744 69.7344 189.721 71.1588 183.188 73.9233C176.655 76.6878 170.743 80.7363 165.803 85.8282L72.2388 179.404L203.33 244.831L335.182 179.404Z" fill="#85B5F8"/>
<path d="M567.644 422.655H698.956C767.989 422.655 804.757 386.633 804.757 337.704C804.757 292.226 772.192 264.759 737.225 263.109V260.107C769.19 252.902 792.751 230.239 792.751 194.067C792.751 147.989 758.535 115.269 690.703 115.269H567.644V422.655ZM632.625 369.523V287.874H687.101C718.316 287.874 737.675 305.885 737.675 331.25C737.675 354.364 721.918 369.523 685.6 369.523H632.625ZM632.625 243.897V167.801H681.998C710.812 167.801 727.17 182.66 727.17 204.873C727.17 229.188 707.361 243.897 680.798 243.897H632.625ZM899.205 115.269H835.274V422.655H899.205V115.269ZM1044.01 427.158C1113.94 427.158 1157.46 379.279 1157.46 308.286C1157.46 236.843 1113.94 189.114 1044.01 189.114C974.065 189.114 930.545 236.843 930.545 308.286C930.545 379.279 974.065 427.158 1044.01 427.158V427.158ZM1044.3 377.628C1012.04 377.628 995.533 348.06 995.533 307.836C995.533 267.612 1012.04 237.894 1044.3 237.894C1075.97 237.894 1092.48 267.612 1092.48 307.836C1092.48 348.06 1075.97 377.628 1044.3 377.628ZM1292.61 427.158C1353.99 427.158 1392.56 391.136 1395.56 338.155H1335.23C1331.48 362.769 1315.27 376.577 1293.36 376.577C1263.5 376.577 1244.14 351.512 1244.14 307.385C1244.14 263.859 1263.65 238.944 1293.36 238.944C1316.77 238.944 1331.78 254.404 1335.23 277.367H1395.56C1392.86 224.085 1352.49 189.114 1292.31 189.114C1222.38 189.114 1179.15 237.593 1179.15 308.286C1179.15 378.379 1221.63 427.158 1292.61 427.158V427.158ZM1425.93 422.655H1489.86V349.411L1507.12 329.749L1569.99 422.655H1644.88L1554.99 291.926L1640.53 192.116H1567.15L1493.31 279.618H1489.86V115.269H1425.93V422.655ZM1755.99 427.158C1817.37 427.158 1855.94 391.136 1858.94 338.155H1798.6C1794.86 362.769 1778.65 376.577 1756.74 376.577C1726.87 376.577 1707.52 351.512 1707.52 307.385C1707.52 263.859 1727.02 238.944 1756.74 238.944C1780.15 238.944 1795.16 254.404 1798.6 277.367H1858.94C1856.24 224.085 1815.86 189.114 1755.69 189.114C1685.75 189.114 1642.54 237.593 1642.54 308.286C1642.54 378.379 1685 427.158 1755.99 427.158V427.158ZM1953.24 289.375C1953.39 259.656 1971.54 242.246 1997.66 242.246C2023.62 242.246 2038.93 258.907 2038.78 287.274V422.655H2102.71V275.866C2102.85 221.834 2071.04 189.114 2023.02 189.114C1988.05 189.114 1964.64 205.624 1954.14 232.791H1951.44V115.269H1889.3V422.655H1953.24V289.375ZM2208.18 427.008C2242.25 427.008 2264.31 412.149 2275.57 390.686H2277.37V422.655H2338V267.161C2338 212.228 2291.48 189.114 2240.15 189.114C2184.92 189.114 2148.6 215.53 2139.76 257.556L2198.88 262.358C2203.23 247.049 2216.89 235.792 2239.85 235.792C2261.61 235.792 2274.07 246.748 2274.07 265.661V266.561C2274.07 281.42 2258.31 283.371 2218.24 287.274C2172.62 291.476 2131.65 306.785 2131.65 358.266C2131.65 403.894 2164.22 427.008 2208.18 427.008V427.008ZM2226.49 382.881C2206.83 382.881 2192.72 373.725 2192.72 356.165C2192.72 338.155 2207.58 329.299 2230.1 326.147C2244.05 324.196 2266.87 320.893 2274.51 315.791V340.255C2274.51 364.42 2254.56 382.881 2226.49 382.881V382.881ZM2377.03 422.655H2440.96V192.116H2377.03V422.655ZM2409.15 162.397C2428.21 162.397 2443.81 147.838 2443.81 129.978C2443.81 112.267 2428.21 97.708 2409.15 97.708C2390.24 97.708 2374.63 112.267 2374.63 129.978C2374.63 147.838 2390.24 162.397 2409.15 162.397ZM2545.54 289.375C2545.69 259.656 2563.4 242.246 2589.21 242.246C2614.87 242.246 2630.33 259.056 2630.18 287.274V422.655H2694.11V275.866C2694.11 222.134 2662.6 189.114 2614.57 189.114C2580.36 189.114 2555.6 205.924 2545.24 232.791H2542.54V192.116H2481.61V422.655H2545.54V289.375Z" fill="#030405"/>
<path d="M2771.3 426.559C2790.51 426.559 2807.17 410.5 2807.32 390.538C2807.17 370.876 2790.51 354.816 2771.3 354.816C2751.49 354.816 2735.14 370.876 2735.29 390.538C2735.14 410.5 2751.49 426.559 2771.3 426.559ZM2953.39 427.16C3014.77 427.16 3053.34 391.138 3056.34 338.157H2996.01C2992.26 362.771 2976.05 376.579 2954.14 376.579C2924.28 376.579 2904.92 351.514 2904.92 307.387C2904.92 263.861 2924.43 238.946 2954.14 238.946C2977.55 238.946 2992.56 254.406 2996.01 277.369H3056.34C3053.64 224.087 3013.27 189.116 2953.09 189.116C2883.16 189.116 2839.94 237.595 2839.94 308.288C2839.94 378.381 2882.4 427.16 2953.39 427.16V427.16ZM3190.86 427.16C3260.79 427.16 3304.31 379.281 3304.31 308.288C3304.31 236.845 3260.79 189.116 3190.86 189.116C3120.92 189.116 3077.4 236.845 3077.4 308.288C3077.4 379.281 3120.92 427.16 3190.86 427.16ZM3191.16 377.63C3158.9 377.63 3142.38 348.062 3142.38 307.838C3142.38 267.614 3158.9 237.896 3191.16 237.896C3222.82 237.896 3239.33 267.614 3239.33 307.838C3239.33 348.062 3222.82 377.63 3191.16 377.63ZM3335.32 422.657H3399.25V284.274C3399.25 258.758 3415.46 241.798 3436.77 241.798C3457.78 241.798 3471.88 256.206 3471.88 278.871V422.657H3533.86V281.872C3533.86 258.007 3547.52 241.798 3570.78 241.798C3591.19 241.798 3606.5 254.555 3606.5 280.221V422.657H3670.28V267.614C3670.28 217.633 3640.56 189.116 3597.64 189.116C3563.88 189.116 3537.62 206.377 3528.16 232.793H3525.76C3518.4 206.077 3494.84 189.116 3463.18 189.116C3432.12 189.116 3408.55 205.626 3398.95 232.793H3396.25V192.118H3335.32V422.657Z" fill="#83888C"/>
</g>
<defs>
<clipPath id="clip0">
<rect width="3702" height="541" fill="white"/>
</clipPath>
</defs>
</svg>
